<?xml version="1.0" encoding="UTF-8"?>
<svg width="356px" height="264px" viewBox="0 0 356 264" version="1.1" xmlns="http://www.w3.org/2000/svg" xmlns:xlink="http://www.w3.org/1999/xlink">
    <title>undraw_deliveries_-131-a</title>
    <g id="Page-1" stroke="none" stroke-width="1" fill="none" fill-rule="evenodd">
        <g id="Artboard" transform="translate(-2384.000000, -819.000000)">
            <g id="First-Row" transform="translate(248.000000, 529.000000)">
                <g id="WhoAmI-screen" transform="translate(2120.000000, 0.000000)">
                    <g id="undraw_deliveries_-131-a" transform="translate(16.000000, 290.000000)">
                        <path d="M256.04223,156.614897 L258.848608,154.885685 C259.115345,154.71689 259.378326,154.536842 259.64882,154.368047 C247.248757,152.238887 238.000761,141.785207 237.415698,129.236337 C237.209458,125.04712 238.00263,120.868892 239.729926,117.045582 C242.985713,109.804031 249.288247,104.375359 256.940121,102.221624 L256.801117,113.249569 L262.868452,101.246364 C262.893343,101.242432 262.918699,101.242432 262.94359,101.246364 C270.044373,100.915329 276.986015,103.414357 282.2413,108.193643 C287.496586,112.972929 290.63499,119.640942 290.966039,126.730668 C290.98858,127.240804 290.966039,127.743438 290.966039,128.231069 C293.077397,125.826677 294.993397,123.249739 296.263217,120.425234 C298.832912,114.704957 298.893022,108.226978 298.678881,100.353625 C298.27314,84.7494593 297.600661,69.029012 296.721555,53.3535768 C283.634778,51.9024425 273.544968,41.1700254 272.921821,28.0380677 C272.884252,27.2165984 272.895523,26.410133 272.921821,25.6074187 C272.921821,25.4086156 272.921821,25.2060616 272.951876,25.0072585 C273.004472,24.2308012 273.075852,23.4618459 273.196072,22.7041436 C273.196072,22.5766095 273.241154,22.4565775 273.263695,22.3290434 C273.373897,21.6863718 273.505387,21.0512022 273.658166,20.4235347 C273.718276,20.1909726 273.774629,19.9546595 273.838495,19.7220974 C274.026339,19.0394151 274.214182,18.3679858 274.473406,17.7040586 C274.5523,17.4827495 274.646221,17.2689424 274.728872,17.0513843 C274.920472,16.5637541 275.1271,16.0836259 275.344998,15.6072487 C275.461461,15.3559316 275.574167,15.1083655 275.698143,14.8570484 C275.728198,14.7932814 275.754496,14.7295144 275.788308,14.6657474 L275.788308,14.6657474 C281.625042,3.15508132 294.861107,-2.55329415 307.255802,1.09462397 L307.075472,15.4459557 L313.086455,3.59279097 C323.206486,9.37644032 328.382252,21.0599769 325.859793,32.4267394 L325.889848,32.4267394 C325.848522,32.6180405 325.788412,32.8018396 325.74333,32.9893897 C325.660679,33.3419838 325.570514,33.6908269 325.472836,34.0396701 C325.345102,34.4860393 325.202342,34.9249064 325.055824,35.3637736 C324.943118,35.6901107 324.834169,36.0239499 324.710192,36.346536 C324.529863,36.8191622 324.334506,37.2805354 324.116608,37.7419086 C323.996388,38.0119807 323.887439,38.2858038 323.740921,38.5521249 C323.397794,39.2423092 323.022108,39.9174894 322.613862,40.5776657 C322.474858,40.8064768 322.31707,41.0240349 322.170552,41.252846 C321.885031,41.6954641 321.595752,42.1343313 321.283932,42.5619455 C321.092332,42.8245156 320.885705,43.0758327 320.682834,43.3346518 C320.389799,43.7097519 320.089249,44.0848521 319.77743,44.4261932 C319.555775,44.6775103 319.330363,44.9250764 319.097437,45.1763935 C318.77059,45.5214857 318.432472,45.8553248 318.083084,46.1854129 C317.853915,46.406722 317.62099,46.6280311 317.38055,46.8380872 C316.98608,47.1869303 316.572825,47.5207694 316.155813,47.8471066 C315.945428,48.0121506 315.742558,48.1846967 315.52466,48.3422388 C314.891002,48.8123643 314.236055,49.2537321 313.55982,49.6663423 C313.432086,49.7413623 313.296839,49.8051294 313.184133,49.8801494 C312.620604,50.2139885 312.057074,50.5253216 311.452219,50.8178998 C311.200509,50.9416828 310.937529,51.0504619 310.678305,51.1667429 C310.193669,51.384301 309.705277,51.5943571 309.205614,51.7856581 C308.916336,51.8944372 308.619543,51.9957142 308.322751,52.0969913 C307.830602,52.2657863 307.330939,52.4195774 306.820005,52.5583645 C306.519456,52.6408865 306.222664,52.7234085 305.918358,52.7946775 C305.369856,52.9259626 304.810083,53.0347416 304.246554,53.1285167 C304.208985,53.1285167 304.175173,53.1285167 304.137604,53.1510227 C304.508282,59.762788 304.837634,66.3783043 305.12566,72.9975716 C308.355275,66.377931 314.175462,61.3805753 321.214273,59.183492 C328.253084,56.9864087 335.887752,57.7839877 342.318614,61.388222 L337.581209,74.3479321 L347.326514,65.0041874 C352.543222,69.7782856 355.650652,76.4232055 355.967302,83.4816208 C356.091274,85.958279 355.862324,88.439965 355.287309,90.8523387 C352.782235,101.534628 343.997875,109.60643 333.128137,111.214034 C322.258399,112.821638 311.507617,107.63903 306.008523,98.1405346 C306.008523,98.8119639 306.057362,99.4871441 306.076146,100.158573 C306.252719,107.105428 306.474374,115.747736 303.006788,123.467297 C300.658748,128.699944 296.875586,132.949828 293.137506,136.757095 C290.706815,139.236507 288.18596,141.633397 285.601237,143.955267 C283.059851,147.362512 279.742489,150.116666 275.923555,151.989912 C271.678299,155.255784 267.282768,158.314101 262.736962,161.164862 L259.975667,162.942836 C257.424756,164.522008 254.809979,166.142441 252.244041,167.819138 C252.694864,167.774126 253.141931,167.725363 253.600269,167.706608 C265.254554,167.16141 275.92425,174.203279 279.988482,185.122508 L263.240382,198.734893 L281.649016,194.470004 C281.638793,203.668056 276.899827,212.216793 269.098859,217.109538 C261.297892,222.002284 251.527418,222.553828 243.22381,218.570189 C243.637065,219.087827 244.054077,219.601714 244.467332,220.115601 C245.290085,221.139625 246.109082,222.156146 246.909294,223.165165 C257.804199,236.942594 260.839746,250.026087 255.441132,260 L248.881647,256.459055 C254.141257,246.751463 246.251842,234.328146 241.056099,227.778897 C240.270915,226.788633 239.466946,225.790866 238.655463,224.778096 C231.693994,216.150793 223.804579,206.353177 224.003693,194.346221 C224.285458,176.266394 241.901394,165.362232 256.04223,156.614897 Z" id="Path" fill="#F2F2F2" fill-rule="nonzero"></path>
                        <ellipse id="Oval" fill="#3F3D56" fill-rule="nonzero" cx="171" cy="256" rx="171" ry="8"></ellipse>
                        <path d="M307.901939,253 C309.051589,250.910814 307.748652,248.351467 306.261771,246.485987 C304.774891,244.620508 302.962276,242.694362 303.000597,240.30943 C303.054248,236.896967 306.713967,234.883614 309.641743,233.075008 C311.809858,231.731486 313.810047,230.139355 315.600762,228.331685 C316.352354,227.636129 316.973781,226.814613 317.43637,225.905045 C318.03802,224.570392 318.022691,223.053742 317.98437,221.590175 C317.856631,216.721728 317.613927,211.858336 317.256258,207" id="Path" stroke="#3F3D56" stroke-width="4"></path>
                        <path d="M323,207.247885 C322.91099,205.37674 321.877674,203.678949 320.256663,202.740438 L319.02608,205.178379 L319.061351,202.230901 C317.35334,201.719118 315.503182,202.069318 314.100295,203.169936 C312.697408,204.270553 311.916763,205.984316 312.007056,207.765261 C312.099465,209.725694 313.230609,211.487902 314.974397,212.38808 C316.718185,213.288258 318.809693,213.189647 320.461071,212.129392 C322.11245,211.069137 323.072814,209.208317 322.980405,207.247885 L323,207.247885 Z" id="Path" fill="#57B793" fill-rule="nonzero"></path>
                        <path d="M313.446382,243.288213 C312.364589,245.389246 309.95922,246.446059 307.679659,245.821857 C305.400098,245.197655 303.868961,243.062926 304.008852,240.703976 C304.148744,238.345027 305.921455,236.406155 308.258819,236.055652 C310.596182,235.705149 312.859794,237.038747 313.685688,239.252871 L310.556858,241.799065 L314,240.999139 C314.000401,241.795354 313.810597,242.58015 313.446382,243.288213 L313.446382,243.288213 Z" id="Path" fill="#57B793" fill-rule="nonzero"></path>
                        <path d="M310.759407,232.993645 C309.30008,233.063805 307.872871,232.550756 306.793372,231.567947 C305.713874,230.585138 305.071022,229.213538 305.006967,227.756444 C304.963216,226.89625 305.126,226.038072 305.481759,225.253398 C306.149221,223.765949 307.442373,222.65002 309.01327,222.205872 L308.985803,224.47389 L310.233604,222.006099 L310.233604,222.006099 C313.272977,221.864398 315.851945,224.209173 315.993891,227.2433 C316.135836,230.277427 313.787008,232.851944 310.747635,232.993645 L310.759407,232.993645 Z" id="Path" fill="#57B793" fill-rule="nonzero"></path>
                        <path d="M323.754754,224.993786 C320.722853,225.136819 318.149142,222.793208 318.00621,219.759186 C317.863277,216.725163 320.205249,214.149651 323.23715,214.006619 C324.266291,213.955842 325.288735,214.198026 326.185926,214.705089 L325.213458,217.373401 L327.213292,215.450647 C328.286438,216.432193 328.926675,217.799647 328.993538,219.252991 C329.01852,219.762023 328.970988,220.272021 328.852373,220.767651 C328.288478,223.15843 326.207055,224.884015 323.754754,224.993786 L323.754754,224.993786 Z" id="Path" fill="#57B793" fill-rule="nonzero"></path>
                        <path d="M321.42414,209.29355 C320.25069,209.419284 319.109836,209.77204 317.932764,209.841892 C316.755692,209.911745 315.462724,209.63932 314.716642,208.755685 C314.314627,208.280687 314.11543,207.679955 313.774984,207.163046 C313.454313,206.680015 313.015224,206.280572 312.496503,206 C311.659799,207.686636 311.893713,209.685739 313.099123,211.150163 C314.304532,212.614587 316.270382,213.287929 318.16362,212.884851 C320.056858,212.481773 321.545998,211.07285 322,209.255131 C321.804425,209.262116 321.612472,209.276086 321.42414,209.29355 Z" id="Path" fill="#000000" fill-rule="nonzero" opacity="0.1"></path>
                        <path d="M324.314218,223.99369 C322.535281,224.081056 320.840006,223.256282 319.851106,221.822326 C318.862205,220.388371 318.725479,218.556652 319.49115,217 C319.893636,217.26304 320.23962,217.599109 320.509955,217.989607 C320.871234,218.517631 321.088001,219.126082 321.514309,219.612143 C322.301896,220.510833 323.653078,220.804568 324.877812,220.748618 C326.102546,220.692669 327.280314,220.360468 328.490597,220.252066 C328.656785,220.252066 328.830199,220.224091 329,220.220594 C328.48435,222.350291 326.571622,223.890462 324.314218,223.99369 L324.314218,223.99369 Z" id="Path" fill="#000000" fill-rule="nonzero" opacity="0.1"></path>
                        <path d="M311.347525,232.994257 C309.992561,233.057656 308.667418,232.594053 307.66512,231.705965 C306.662821,230.817877 306.065942,229.578469 306.006469,228.261807 C305.965847,227.484517 306.11699,226.709048 306.447306,226 C306.871319,226.269415 307.24162,226.611189 307.540292,227.008787 C307.93741,227.553886 308.185153,228.180396 308.633277,228.68302 C309.496736,229.617475 310.946764,229.946658 312.254703,229.914802 C313.562642,229.882946 314.739423,229.585619 316,229.493589 C315.362593,231.495839 313.502349,232.895544 311.347525,232.994257 Z" id="Path" fill="#000000" fill-rule="nonzero" opacity="0.1"></path>
                        <path d="M313,243.069541 C311.816214,245.570179 308.721139,246.686349 306.086957,245.562577 C303.452775,244.438804 302.276997,241.500638 303.460783,239 C303.89025,239.27096 304.276848,239.598638 304.608919,239.973151 C305.104705,240.549964 305.432743,241.201091 306.010539,241.742517 C307.080392,242.7369 308.806323,243.158009 310.342141,243.186319 C311.229748,243.197372 312.117263,243.158377 313,243.069541 L313,243.069541 Z" id="Path" fill="#000000" fill-rule="nonzero" opacity="0.1"></path>
                        <path d="M300,251.289092 C300,251.289092 304.296625,251.159136 305.592987,250.249444 C306.889349,249.339752 312.191236,248.254238 312.528911,249.714331 C312.866586,251.174425 318.991314,256.976577 314.135779,256.999511 C309.280244,257.022444 302.856654,256.235064 301.564173,255.470617 C300.271693,254.70617 300,251.289092 300,251.289092 Z" id="Path" fill="#656380" fill-rule="nonzero"></path>
                        <path d="M314.235081,255.549299 C309.378681,255.582627 302.944921,254.882735 301.651176,254.216171 C300.668241,253.702917 300.271958,251.853202 300.143749,251 L300,251 C300,251 300.271958,253.976208 301.554048,254.666102 C302.836138,255.355996 309.277667,256.025892 314.137953,255.99923 C315.540482,255.99923 316.026122,255.559298 315.998926,254.926062 C315.816325,255.30267 315.280178,255.542633 314.235081,255.549299 Z" id="Path" fill="#000000" fill-rule="nonzero" opacity="0.2"></path>
                        <path d="M72.2319967,241 C69.4931449,235.95591 72.609249,229.778401 76.1705108,225.282256 C79.7317727,220.78611 84.0928094,216.109819 83.9984964,210.378922 C83.8626855,202.144746 75.0802517,197.284555 68.0633586,192.919766 C62.8565026,189.680447 58.0533621,185.839384 53.7541784,181.476738 C52.0301353,179.724067 50.3589075,177.855051 49.3554164,175.618238 C47.9067675,172.398127 47.9444927,168.73891 48.0388058,165.211049 C48.3406077,153.451515 48.9240912,141.714498 49.7892565,130" id="Path" stroke="#3F3D56" stroke-width="4"></path>
                        <path d="M36.0144068,130.379136 C36.2258244,125.960474 38.670637,121.952835 42.5029782,119.742798 L45.4129581,125.497817 L45.3255827,118.531015 C50.7500299,116.932704 56.5855548,119.024259 59.7594274,123.70436 C62.9333,128.38446 62.7173606,134.579384 59.2253134,139.027156 C55.7332661,143.474929 49.7662674,145.155129 44.4662754,143.183037 C39.1662835,141.210946 35.749239,136.039005 36.0144068,130.390532 L36.0144068,130.379136 Z" id="Path" fill="#57B793" fill-rule="nonzero"></path>
                        <path d="M59.43659,216.931866 C62.1247894,222.173217 67.9991836,224.951748 73.7539229,223.703823 C79.5086622,222.455899 83.7059273,217.493314 83.9836826,211.608791 C84.0744635,209.809634 83.785704,208.011505 83.1361827,206.331342 C81.1921035,201.285648 76.3312062,197.968957 70.926201,198 C65.5211959,198.031481 60.6989538,201.404178 58.8133165,206.472023 L66.9348736,213.080241 L58,211.000439 C57.996319,213.064252 58.4890439,215.098655 59.43659,216.931866 Z" id="Path" fill="#57B793" fill-rule="nonzero"></path>
                        <path d="M66.3898233,191.986245 C72.9949198,192.287956 78.7767143,187.594035 79.8318519,181.0734 C80.8869895,174.552765 76.8800786,168.2781 70.5162304,166.485501 L70.5846869,171.838682 L67.656269,166.014391 L67.6220407,166.014391 C60.4417676,165.679715 54.3494217,171.223254 54.0144053,178.396233 C53.6793889,185.569212 59.2285659,191.655368 66.408839,191.990044 L66.3898233,191.986245 Z" id="Path" fill="#57B793" fill-rule="nonzero"></path>
                        <path d="M35.3864292,170.984494 C40.8971332,171.25336 45.9754886,168.004553 48.048366,162.884195 C50.1212434,157.763838 48.7357107,151.890749 44.5937973,148.240739 C40.4518839,144.590728 34.4586146,143.961338 29.6506926,146.671471 L31.9267786,152.966265 L27.2266611,148.41897 C24.6890823,150.73147 23.1741521,153.959749 23.0159021,157.391995 C22.9556577,158.594495 23.0667849,159.799458 23.3459345,160.970568 C24.6717006,166.629359 29.5883706,170.718491 35.3864292,170.984494 L35.3864292,170.984494 Z" id="Path" fill="#57B793" fill-rule="nonzero"></path>
                        <path d="M38.5029144,133.349689 C41.5394934,133.665525 44.4915095,134.554948 47.5357761,134.732833 C50.5800426,134.910718 53.9279671,134.224591 55.8536963,131.988327 C56.8915144,130.783067 57.4104235,129.258341 58.2868033,127.944173 C59.1172051,126.719681 60.2554643,125.708242 61.6001338,125 C63.8858015,129.297156 63.3402552,134.454225 60.1995954,138.23934 C57.0589356,142.024456 51.8873681,143.757638 46.9230336,142.688805 C41.958699,141.619971 38.0934183,137.941133 37,133.24441 C37.5112215,133.266192 38.0109117,133.298865 38.5029144,133.349689 Z" id="Path" fill="#000000" fill-rule="nonzero" opacity="0.1"></path>
                        <path d="M35.2072714,170.986564 C39.8257033,171.190377 44.218273,169.064059 46.7837491,165.38272 C49.3492251,161.70138 49.7127727,157.002891 47.7418672,153 C46.6956979,153.673315 45.7959416,154.534495 45.0924657,155.535811 C44.1528524,156.892175 43.5867739,158.458627 42.481573,159.704418 C40.429057,162.011711 36.9247614,162.767294 33.7439392,162.63092 C30.5631171,162.494547 27.4939703,161.624705 24.3285516,161.348272 C23.889552,161.311414 23.4428505,161.281928 23,161.270871 C24.3442453,166.756075 29.3273073,170.722064 35.2072714,170.986564 L35.2072714,170.986564 Z" id="Path" fill="#000000" fill-rule="nonzero" opacity="0.1"></path>
                        <path d="M66.6212315,191.985895 C71.0563105,192.194079 75.2816399,190.086372 77.7816311,186.41879 C80.2816223,182.751208 80.6979339,178.049452 78.8812385,174 C77.8287091,174.698893 76.9133101,175.58477 76.1804509,176.613686 C75.1868001,178.013875 74.5667022,179.626893 73.4049526,180.918801 C71.2495522,183.319658 67.6260889,184.167239 64.3575008,184.088829 C61.1935075,184.02162 58.1453156,183.244981 55,183.002282 C56.59532,188.143648 61.2416541,191.735424 66.6212315,191.985895 Z" id="Path" fill="#000000" fill-rule="nonzero" opacity="0.1"></path>
                        <path d="M59,217.199355 C61.7359794,222.242351 67.7147851,224.915729 73.5718091,223.715032 C79.4288331,222.514335 83.7007004,217.739555 83.9833925,212.077728 C84.075787,210.346658 83.7818951,208.616579 83.1208292,207 C82.0318831,207.676492 81.0543687,208.501165 80.2198315,209.447406 C78.9627325,210.910728 78.1311131,212.542332 76.6767462,213.895905 C73.9691483,216.405503 69.6021797,217.444462 65.7148428,217.554211 C63.4711141,217.561531 61.2288998,217.443038 59,217.199355 Z" id="Path" fill="#000000" fill-rule="nonzero" opacity="0.1"></path>
                        <polygon id="Path" fill="#A0B92C" fill-rule="nonzero" points="162 248.819672 112.565737 259 111.442231 258.886885 68 254.47541 68 199.04918 121.179283 190 159.752988 194.52459 159.764223 194.769672 159.767968 194.890328"></polygon>
                        <polygon id="Path" fill="#000000" fill-rule="nonzero" opacity="0.1" points="161 248.856178 112.111111 259 111 258.887291 111 202.269739 158.788889 195"></polygon>
                        <polygon id="Path" fill="#000000" fill-rule="nonzero" opacity="0.05" points="159 194.86375 158.984982 194.875 110.552073 202 67 199 120.313745 190 158.984982 194.5 158.996246 194.74375"></polygon>
                        <polygon id="Path" fill="#3F3D56" fill-rule="nonzero" points="216 251.819672 166.565737 262 165.442231 261.886885 122 257.47541 122 202.04918 175.179283 193 213.752988 197.52459 213.764223 197.769672 213.767968 197.890328"></polygon>
                        <polygon id="Path" fill="#000000" fill-rule="nonzero" opacity="0.1" points="215 250.856178 166.111111 261 165 260.887291 165 204.269739 212.788889 197"></polygon>
                        <polygon id="Path" fill="#000000" fill-rule="nonzero" opacity="0.05" points="214 197.86375 213.984982 197.875 165.552073 205 122 202 175.313745 193 213.984982 197.5 213.996246 197.74375"></polygon>
                        <polygon id="Path" fill="#3F3D56" fill-rule="nonzero" points="182 197.819672 132.565737 208 131.442231 207.886885 88 203.47541 88 148.04918 141.179283 139 179.752988 143.52459 179.764223 143.769672 179.767968 143.890328"></polygon>
                        <polygon id="Path" fill="#000000" fill-rule="nonzero" opacity="0.1" points="182 196.856178 133.111111 207 132 206.887291 132 150.269739 179.788889 143"></polygon>
                        <polygon id="Path" fill="#000000" fill-rule="nonzero" opacity="0.05" points="180 143.86375 179.984982 143.875 131.552073 151 88 148 141.313745 139 179.984982 143.5 179.996246 143.74375"></polygon>
                        <polygon id="Path" fill="#3F3D56" fill-rule="nonzero" points="210 199.68593 184.231985 205 183.644733 204.939698 161 202.636935 161 173.722362 188.720534 169 208.829237 171.363065 208.836718 171.491206 208.836718 171.551508"></polygon>
                        <polygon id="Path" fill="#000000" fill-rule="nonzero" opacity="0.1" points="210 199.608031 184.579336 205 184 204.938815 184 174.862333 208.852399 171"></polygon>
                        <polygon id="Path" fill="#000000" fill-rule="nonzero" opacity="0.05" points="209 171.43088 208.992494 171.438061 183.722027 175 161 173.499102 188.815154 169 208.992494 171.251346 209 171.373429"></polygon>
                        <polygon id="Path" fill="#3F3D56" fill-rule="nonzero" points="141 143.689142 115.231985 149 114.644733 148.943461 92 146.640456 92 117.722856 119.720534 113 139.829237 115.363313 139.836718 115.491467 139.836718 115.551775"></polygon>
                        <polygon id="Path" fill="#000000" fill-rule="nonzero" opacity="0.1" points="140 143.611249 114.579336 149 114 148.942632 114 118.862767 138.852399 115"></polygon>
                        <polygon id="Path" fill="#000000" fill-rule="nonzero" opacity="0.05" points="140 115.43088 139.992494 115.438061 114.722027 119 92 117.499102 119.815154 113 139.992494 115.251346 140 115.373429"></polygon>
                        <polygon id="Path" fill="#A0B92C" fill-rule="nonzero" points="185 142.689142 159.231985 148 158.644733 147.943461 136 145.640456 136 116.722856 163.720534 112 183.829237 114.363313 183.836718 114.491467 183.836718 114.551775"></polygon>
                        <polygon id="Path" fill="#000000" fill-rule="nonzero" opacity="0.1" points="185 142.611249 159.579336 148 159 147.942632 159 117.862767 183.852399 114"></polygon>
                        <polygon id="Path" fill="#000000" fill-rule="nonzero" opacity="0.05" points="184 114.43088 183.992494 114.438061 158.722027 118 136 116.499102 163.815154 112 183.992494 114.251346 184 114.373429"></polygon>
                        <polygon id="Path" fill="#3F3D56" fill-rule="nonzero" points="199 113.689142 173.231985 119 172.644733 118.943461 150 116.640456 150 87.7228562 177.720534 83 197.829237 85.3633127 197.836718 85.4914669 197.836718 85.5517747"></polygon>
                        <polygon id="Path" fill="#000000" fill-rule="nonzero" opacity="0.1" points="199 113.611249 173.579336 119 173 118.942632 173 88.8627672 197.852399 85"></polygon>
                        <polygon id="Path" fill="#000000" fill-rule="nonzero" opacity="0.05" points="198 85.4308797 197.992494 85.438061 172.722027 89 150 87.4991023 177.815154 83 197.992494 85.2513465 198 85.3734291"></polygon>
                        <path d="M217.107191,54.646925 C216.834873,57.0895243 214.9846,59.058635 214.298209,61.411046 C213.268621,64.9622095 215.044286,68.7764221 217.491421,71.5572274 C221.474998,76.0202096 227.066015,78.6914973 233.017298,78.9752134 C233.882854,79.050252 234.75463,78.9545189 235.583806,78.693375 C236.322163,78.3906575 236.987463,77.9318998 237.534799,77.3480665 C239.37015,75.4879332 240.358703,72.9138094 240.750394,70.3171386 C241.142085,67.7204677 240.992869,65.0787027 240.839923,62.4594847 C240.839719,61.917432 240.741106,61.3799871 240.548953,60.8736742 C240.299189,60.3921488 239.955315,59.9664927 239.538018,59.6223118 C238.21494,58.3974689 236.756779,57.3295262 235.192115,56.4394171 C234.520645,56.0636326 233.80068,55.6878481 233.371685,55.0377409 C233.077296,54.5200393 232.885962,53.9494699 232.808397,53.3579842 L232.327177,50.8928379 C232.242066,50.1820646 232.001248,49.49922 231.622133,48.8936644 C230.775335,47.7437638 229.152616,47.5859343 227.731338,47.5295667 L222.508794,47.3228852 C220.886075,47.2590018 218.752292,46.7892712 217.166877,47.1124459 C215.674722,47.4093156 216.178324,48.7846869 216.446912,50.0322914 C216.835457,51.5412282 217.0569,53.0888746 217.107191,54.646925 L217.107191,54.646925 Z" id="Path" fill="#FFC0C6" fill-rule="nonzero"></path>
                        <path d="M217.107191,54.646925 C216.834873,57.0895243 214.9846,59.058635 214.298209,61.411046 C213.268621,64.9622095 215.044286,68.7764221 217.491421,71.5572274 C221.474998,76.0202096 227.066015,78.6914973 233.017298,78.9752134 C233.882854,79.050252 234.75463,78.9545189 235.583806,78.693375 C236.322163,78.3906575 236.987463,77.9318998 237.534799,77.3480665 C239.37015,75.4879332 240.358703,72.9138094 240.750394,70.3171386 C241.142085,67.7204677 240.992869,65.0787027 240.839923,62.4594847 C240.839719,61.917432 240.741106,61.3799871 240.548953,60.8736742 C240.299189,60.3921488 239.955315,59.9664927 239.538018,59.6223118 C238.21494,58.3974689 236.756779,57.3295262 235.192115,56.4394171 C234.520645,56.0636326 233.80068,55.6878481 233.371685,55.0377409 C233.077296,54.5200393 232.885962,53.9494699 232.808397,53.3579842 L232.327177,50.8928379 C232.242066,50.1820646 232.001248,49.49922 231.622133,48.8936644 C230.775335,47.7437638 229.152616,47.5859343 227.731338,47.5295667 L222.508794,47.3228852 C220.886075,47.2590018 218.752292,46.7892712 217.166877,47.1124459 C215.674722,47.4093156 216.178324,48.7846869 216.446912,50.0322914 C216.835457,51.5412282 217.0569,53.0888746 217.107191,54.646925 L217.107191,54.646925 Z" id="Path" fill="#000000" fill-rule="nonzero" opacity="0.1"></path>
                        <path d="M249.695997,165.054441 L247.513063,189.430943 C246.943442,195.824534 246.362796,202.244328 245.245604,208.555566 C244.878106,210.730436 244.407709,212.894075 243.871163,215.038997 C242.379124,220.99462 240.214564,226.815483 239.516319,232.920839 C239.494269,233.096775 239.475894,233.295171 239.457519,233.456133 C239.314195,234.803729 239.189246,236.166297 238.722524,237.424053 C238.355027,238.35614 237.836856,239.205874 237.458333,240.12673 C236.723338,241.968444 236.605739,244.00481 236.513865,246 C233.86479,244.476729 230.963716,243.461692 227.95485,243.005344 C226.48486,242.784488 224.886247,242.631012 223.912379,241.508016 C222.809886,240.287693 222.93851,238.419776 223.122259,236.780202 C223.700455,231.689286 224.276201,226.600866 224.849497,221.514942 C225.040608,219.326497 225.409366,217.157938 225.951989,215.031511 C226.150438,214.324023 226.389311,213.627766 226.631859,212.931508 C226.966282,211.973218 227.30438,211.014928 227.557953,210.030435 C227.909646,208.448685 228.152783,206.843911 228.285598,205.227755 C228.877269,200.106892 229.590214,194.99726 230.214959,189.880141 L230.248034,189.610622 C231.185152,181.854462 231.898097,174.060869 231.692299,166.24856 C231.662899,165.091874 231.615124,163.935188 231.541625,162.774759 C231.438726,161.094008 231.288052,160.203097 232.644117,159.151224 C234.154532,157.990795 236.142693,157.178495 237.86993,156.418601 C238.799699,156.006835 249.038177,152.300948 249.26235,153.116992 C249.737659,154.850349 249.984819,156.640337 249.997345,158.439994 C250.018068,160.648808 249.917462,162.857074 249.695997,165.054441 L249.695997,165.054441 Z" id="Path" fill="#605D82" fill-rule="nonzero"></path>
                        <path d="M246,208.011696 C245.625616,210.194229 245.146404,212.365491 244.599803,214.517971 C243.079803,220.494579 240.87468,226.335952 240.16335,232.462819 C240.140887,232.639375 240.122167,232.83847 240.103448,233 C235.453596,226.335952 231.537537,219.168531 227,212.433109 C227.34069,211.471442 227.685123,210.509775 227.943448,209.521813 C228.315707,207.925519 228.575918,206.304991 228.722167,204.672159 C229.324926,199.533254 230.051232,194.405618 230.687685,189.270469 L230.721379,189 C230.984089,190.089748 231.360553,191.148674 231.844532,192.159225 C234.89202,198.372492 242.132611,201.512934 245.674286,207.459489 C245.791593,207.644811 245.900164,207.82888 246,208.011696 Z" id="Path" fill="#000000" fill-rule="nonzero" opacity="0.1"></path>
                        <path d="M207.020888,154.165766 C207.175315,159.132642 207.97382,164.058315 208.772324,168.965259 L210.418297,179.078807 C211.318498,184.62253 212.26013,190.27488 214.896701,195.238011 C216.870362,198.953803 219.710325,202.122715 222.282865,205.452694 C228.603101,213.640923 233.352695,222.919167 239.345243,231.347124 C241.089147,233.796851 243.578823,236.448848 246.550614,235.935679 C248.501677,235.602306 249.917892,233.984138 251.447103,232.740547 C253.255037,231.272209 255.432091,230.197176 256.855839,228.354263 C258.279587,226.51135 258.55831,223.454811 256.629847,222.143795 C255.970705,221.69805 255.168434,221.529491 254.422661,221.244813 C251.435803,220.121086 249.499807,217.214377 248.271918,214.277702 C247.04403,211.341027 246.29449,208.190844 244.65605,205.460186 C241.092913,199.53065 233.804679,196.399196 230.738724,190.199965 C229.021186,186.731393 228.855459,182.708448 228.727397,178.861553 L228.392176,169.006462 C228.354511,167.927684 228.328145,166.807702 228.768829,165.822567 C229.940219,163.200536 233.480757,162.953316 236.350853,162.619944 C239.605711,162.242 242.758857,161.253099 245.642881,159.705744 C247.296387,158.817999 248.908462,157.68678 249.786063,156.038646 C250.5921,154.540342 250.70133,152.77609 250.795493,151.075515 L251.789857,133.211992 C251.876487,131.676231 251.951818,130.084284 251.413204,128.645912 C250.045954,125.027509 245.450788,123.84385 241.567496,124.016155 C234.343292,124.33829 227.676535,127.428541 220.851584,129.518674 C219.160412,130.035589 217.461707,130.500063 215.717804,130.848418 C214.211192,131.151825 212.327928,131.028215 210.88158,131.515164 C208.290208,132.38418 208.354239,138.025292 207.988886,140.362646 C207.235043,144.923708 206.910971,149.544795 207.020888,154.165766 L207.020888,154.165766 Z" id="Path" fill="#605D82" fill-rule="nonzero"></path>
                        <path d="M246.441504,236.515249 C247.07939,237.153953 247.286986,238.087731 247.453062,238.969217 C248.37567,243.861251 248.85567,248.824946 248.887361,253.801346 C248.846038,254.265638 248.938981,254.731986 249.155348,255.145986 C249.336316,255.391317 249.579899,255.584667 249.861174,255.706253 C251.706889,256.576534 253.847014,255.362623 255.386997,254.029188 C258.236722,251.560279 260.648608,248.2435 260.81091,244.497182 C260.852429,243.533524 260.74297,242.558659 260.912821,241.606206 C261.161936,240.194334 261.996094,238.965482 262.728341,237.732895 C263.981211,235.631929 264.993967,233.399539 265.747916,231.076926 C266.027227,230.20291 266.21595,229.104787 265.521448,228.495964 C265.278241,228.304697 265.000189,228.161415 264.702388,228.073896 L256.36081,225.011104 C255.636112,224.745911 253.839465,229.313953 253.55638,229.814458 C252.858103,231.03584 252.1636,231.726835 250.763272,232.010704 C249.362944,232.294572 247.634237,231.88371 246.298075,232.589646 C244.033393,233.781147 245.161959,235.241575 246.441504,236.515249 Z" id="Path" fill="#535070" fill-rule="nonzero"></path>
                        <path d="M233.332672,239.427771 C233.180491,239.121705 232.968124,238.850101 232.708512,238.62951 C232.329139,238.38581 231.89711,238.23797 231.449047,238.198524 C229.888649,237.928689 228.038461,237.752547 226.957328,238.925579 C225.946783,240.023656 226.1214,241.811311 225.278041,243.048054 C225.010544,243.422824 224.646451,243.760118 224.416106,244.172365 C224.12979,244.803412 224.002181,245.49595 224.044583,246.18863 C224,248.096212 223.955417,250.011289 224.089166,251.915123 C224.196907,253.511645 224.460689,255.186869 225.452657,256.438603 C227.042778,258.447373 229.91094,258.735946 232.452161,258.863368 L234.514117,258.972051 C235.081083,259.038989 235.655663,258.985369 236.200834,258.814648 C236.883521,258.497963 237.409229,257.914901 237.657206,257.199387 C238.730909,254.508535 237.033047,251.611559 235.98535,248.913212 C234.777899,245.806364 234.993382,242.362224 233.332672,239.427771 Z" id="Path" fill="#535070" fill-rule="nonzero"></path>
                        <path d="M216.134565,41.1470374 C216.107922,40.8854923 216.147877,40.621665 216.251015,40.3781029 C216.555286,39.8642822 217.35165,40.0187877 217.952679,40.1481412 C220.368067,40.7302318 222.914929,40.2020385 225.405444,40.3385782 C227.89596,40.475118 230.69826,41.6644513 231.197866,44 C233.004714,42.7768734 234.561825,41.2472563 235.791984,39.4870012 C236.483168,38.4988845 237.084198,37.3670416 236.990287,36.1813015 C236.855055,34.4709612 235.356238,33.1917992 233.98514,32.1066673 L229.853062,28.8728306 C229.308721,28.3952388 228.680526,28.0132968 227.997384,27.7445809 C227.04325,27.4319767 225.998961,27.5828891 224.992237,27.5828891 C221.98709,27.5828891 218.764069,26.2713886 216.085732,27.5828891 C214.958802,28.1326413 214.121117,29.0776403 213.309727,29.9974871 L209.617153,34.1799159 C209.337643,34.4465233 209.133431,34.7766149 209.023636,35.1392875 C208.918456,35.649515 209.192676,36.1525563 209.290343,36.666377 C209.463139,37.6005965 209.042418,38.5994927 209.365471,39.4977807 C209.902642,40.9853456 211.795884,41.1973415 212.952866,42.0525117 C213.381099,42.368709 214.057257,43.4502478 214.571889,43.4358752 C215.47719,43.4179094 216.10827,41.8369226 216.134565,41.1470374 Z" id="Path" fill="#3F3D56" fill-rule="nonzero"></path>
                        <circle id="Oval" fill="#FFC0C6" fill-rule="nonzero" cx="223" cy="42" r="12"></circle>
                        <path d="M225.187576,67.7664896 C224.373522,65.4075543 222.147474,63.8518338 219.680941,63.9180624 C219.33614,63.9846875 218.979351,63.9385313 218.662158,63.786267 C218.482355,63.6472404 218.338243,63.4664187 218.242003,63.2590852 C217.531943,61.9608927 216.95986,60.590082 216.535355,59.1696606 C216.349445,58.540808 216.092891,57.7989879 215.464517,57.6370678 C214.958844,57.5052723 214.442016,57.8366438 214.10366,58.2395613 C213.803754,58.6719236 213.478445,59.0856294 213.129495,59.4784385 C211.642221,60.8114554 209.03949,59.5951716 207.481569,60.8189865 C207.225014,61.0185625 207.013078,61.2746222 206.737932,61.4591359 C206.470238,61.6243446 206.181173,61.7510762 205.879031,61.8356943 C202.854824,62.8320978 199.890177,64.0051612 197,65.3489844 C198.041092,71.6902284 199.104494,78.1519711 201.543625,84.0827664 C202.703699,86.9069546 204.016219,89.6746591 204.945766,92.5854557 C207.005641,99.0359017 207.094878,105.938218 207.120905,112.720035 C207.120905,117.359235 207.120905,122.09634 205.63363,126.487011 C205.298994,127.481126 204.889993,128.467709 204.797038,129.499479 C204.704084,130.531249 205.008975,131.69858 205.845567,132.316136 C206.32987,132.639652 206.885336,132.837513 207.462978,132.89227 C210.032246,133.268829 212.620104,132.583492 215.148471,131.98853 C221.926726,130.399453 228.842554,129.488182 235.739791,128.599504 L247.303353,127.09327 C248.132909,127.034519 248.944655,126.821336 249.697865,126.464418 C251.813514,125.293321 252.014296,122.069981 250.698058,120.021503 C250.069684,119.038685 249.181037,118.23285 248.649336,117.193549 C248.117636,116.154248 248.076736,114.693201 248.987692,113.973975 C250.846785,112.505397 250.289057,109.782879 250.378293,107.40303 C250.626173,100.745477 250.592709,94.0929447 250.277902,87.4454332 C250.183254,86.0668902 250.160914,84.6842315 250.210975,83.3032904 C250.341112,80.961097 250.913712,78.6678561 251.486313,76.3896776 L255,62.381704 C254.081608,60.9131261 252.322905,59.9792612 250.660876,59.5575158 C248.998846,59.1357703 247.262453,59.0115061 245.622732,58.495621 C242.276364,57.4412574 239.272069,54.7676925 235.765818,55.0162211 C235.499918,55.0210146 235.238356,55.0853099 234.999872,55.2045003 C234.211616,55.660136 234.334316,56.8124048 234.28598,57.7312074 C234.174434,59.7683885 232.694596,61.466667 231.06603,62.6603572 C229.437464,63.8540475 227.570934,64.7201319 226.072505,66.0795078 C225.545762,66.4816785 225.221772,67.0993177 225.187576,67.7664896 Z" id="Path" fill="#3F3D56" fill-rule="nonzero"></path>
                        <path d="M178.309255,81.5054446 C177.52303,82.0267595 176.687243,82.4658469 175.814591,82.8160371 C174.985548,83.1504112 174.09998,83.4156044 173.421673,83.9997981 C173.085832,84.2969747 172.803924,84.6521454 172.588862,85.0490409 C171.770958,86.5292093 171.807352,88.3459903 172.683849,89.7908521 C173.560347,91.2357139 175.138142,92.0798404 176.801905,91.9940284 C177.890966,91.9363777 178.919732,91.4867022 179.918352,91.0447136 L188.291682,87.3281652 C189.708591,86.7016942 191.238551,85.971452 191.909322,84.5494015 C191.986188,84.416263 192.015482,84.2600863 191.992226,84.1074128 C191.927375,83.9398957 191.803819,83.8029231 191.645536,83.7230748 C189.758622,82.471001 188.108129,80.8826952 186.773026,79.0341513 C186.430104,78.5575721 186.019351,77.4353052 185.521926,77.1470517 C183.750789,76.1439295 179.729933,80.5676598 178.309255,81.5054446 Z" id="Path" fill="#FFC0C6" fill-rule="nonzero"></path>
                        <path d="M267.589469,78 L270.61503,81.534296 C271.265211,82.2894874 271.915393,83.0446789 272.506467,83.8602856 C273.961017,85.9078037 275.127435,88.1537166 275.971639,90.5324021 C276.629209,92.2957741 277.175953,94.1762008 276.946911,96.0490756 C276.793427,97.0092607 276.539534,97.9498289 276.189598,98.8546118 C275.635318,100.594029 274.947279,102.285901 274.131921,103.914395 C273.451042,105.150071 272.681784,106.332647 271.830426,107.452466 C269.486969,110.626353 266.922695,113.623421 264.157545,116.420365 C263.123166,117.466305 262.67986,119.16171 262.240249,120.573918 C261.409051,123.183104 259.432646,125.218345 257.522738,127.144083 C256.908445,127.80786 256.228808,128.405104 255.494615,128.926335 C254.395039,129.651553 253.108769,130.024937 251.800402,129.998707 C251.229506,130.002047 250.664328,129.882393 250.1417,129.647543 C248.833949,129.013182 248.16899,127.468816 248.032304,125.996192 C247.911592,124.658079 248.130437,123.310756 248.667709,122.084301 C250.403989,118.153529 254.862905,116.450573 258.014069,113.580845 C259.861175,111.900544 261.276059,109.786008 262.672471,107.697904 C263.61828,106.392708 264.408274,104.976776 265.025685,103.480159 C265.727586,101.558197 265.454214,99.2850709 266.071148,97.336677 C266.329743,96.5097424 266.80999,95.7658788 267.072279,94.9464961 C267.334569,94.1271134 267.42323,93.1566923 266.931899,92.4505883 C266.56375,91.9992009 266.093249,91.6466186 265.561346,91.423528 C263.548,90.3813638 261.29453,89.037123 260.910332,86.7602208 C260.756456,85.4993084 261.078822,84.2258769 261.81172,83.1994931 C262.54064,82.1862059 263.393557,81.2725396 264.349644,80.4808039 C265.225173,79.6727491 266.706552,78.7778472 267.589469,78 Z" id="Path" fill="#FFC0C6" fill-rule="nonzero"></path>
                        <path d="M176.713293,86.0876937 C176.153571,84.9987042 175.450032,83.8873382 174.31504,83.3465729 C173.198682,82.8844757 171.933136,82.8844757 170.816778,83.3465729 C169.716909,83.8028285 168.686558,84.3999968 167.753856,85.121775 L165.009664,87.0648008 C164.387607,87.4565049 163.837311,87.9441729 163.381029,88.5080848 C162.945838,89.1922689 162.65773,89.9530868 162.533673,90.7457344 C162.144977,92.5619601 161.830133,94.4303976 162.10222,96.2689997 C162.537559,99.2525326 164.403299,101.833289 166.455612,104.100774 C167.738308,105.510493 169.324187,106.93513 171.275439,106.99853 C172.118909,107.024636 173.055666,106.703906 173.405492,105.969211 C173.527464,105.677302 173.592039,105.366246 173.595953,105.051775 C173.805849,101.740053 172.569796,98.5066494 171.131622,95.4895517 C170.742926,94.6690802 170.323135,93.8187733 170.354231,92.919984 C170.342303,92.7673867 170.3833,92.6152876 170.470839,92.4873718 C170.594226,92.3633076 170.759531,92.285327 170.937274,92.2673362 C172.907961,91.8943946 176.305162,93.3637846 177.685032,91.2641233 C178.579032,89.8767805 177.350754,87.3221305 176.713293,86.0876937 Z" id="Path" fill="#FFC0C6" fill-rule="nonzero"></path>
                        <path d="M215.128009,37.1470374 C215.104447,36.8852546 215.145631,36.6218427 215.248231,36.3781029 C215.552543,35.860689 216.349014,36.0187877 216.950124,36.1481412 C219.365835,36.7302318 221.913039,36.2020385 224.403889,36.3385782 C226.894739,36.475118 229.693657,37.6644513 230.197087,40 C232.002416,38.7749038 233.559392,37.2456246 234.791822,35.4870012 C235.483099,34.4952913 236.084209,33.3634485 235.990285,32.1777084 C235.855036,30.4673681 234.35226,29.188206 232.984735,28.1066673 L228.852103,24.8728306 C228.309057,24.3952948 227.682018,24.0133342 226.999933,23.7445809 C226.041914,23.4319767 225.001242,23.5828891 223.994382,23.5828891 C220.988832,23.5828891 217.765379,22.2713886 215.086683,23.5828891 C213.959601,24.1326413 213.121804,25.0776403 212.310305,25.9974871 L208.613478,30.1799159 C208.335556,30.4471173 208.132673,30.7771062 208.023639,31.1392875 C207.918445,31.649515 208.192701,32.1525563 208.290382,32.666377 C208.463201,33.6005965 208.042424,34.5994927 208.365521,35.4941875 C208.902763,36.9853456 210.796259,37.1973415 211.953396,38.0525117 C212.381687,38.368709 213.057936,39.4502478 213.572637,39.4358752 C214.463031,39.4179094 215.094196,37.8369226 215.128009,37.1470374 Z" id="Path" fill="#3F3D56" fill-rule="nonzero"></path>
                        <path d="M191.200617,69.9582258 C190.733717,70.2699099 190.323076,70.6626757 189.987035,71.1189798 C189.564121,71.7806474 189.47586,72.6313628 189.111786,73.3119352 C188.332152,74.8016326 186.504424,75.3347476 185.368071,76.5559969 C185.183844,76.7229384 185.055217,76.9451097 185.000319,77.1911978 C184.993326,77.5237564 185.101507,77.8480483 185.305553,78.1061896 L190.799767,86.9838782 C192.638527,87.1502404 194.381671,85.9705816 196.213076,86.1293818 C196.893417,86.1860962 197.595823,86.4280774 198.250421,86.2201248 C198.718279,86.0058422 199.157116,85.7300505 199.555941,85.399657 C200.659196,84.6888369 202.100784,84.6056558 203.016486,83.6717593 C203.932189,82.7378627 204.009417,81.3653751 203.998384,80.0911924 C204.01488,78.9853235 203.905029,77.8812877 203.671085,76.8017592 C202.862031,73.3988973 200.32822,70.7749126 198.739531,67.7577084 C197.963575,66.2869158 197.544338,65.4286385 195.907841,66.4381542 C194.271345,67.4476699 192.748852,68.7936908 191.200617,69.9582258 Z" id="Path" fill="#3F3D56" fill-rule="nonzero"></path>
                        <path d="M257.817882,64.966332 C258.892792,65.6479736 259.862228,66.4764256 260.696675,67.4264665 C261.565672,68.5219367 262.059507,69.8679069 262.897879,70.9895488 C263.736251,72.1111906 264.81197,72.9187728 265.730733,73.9207728 C267.128019,75.4387281 268.07358,77.2856984 269,79.1214522 C266.732128,82.0033171 264.260755,84.7268213 261.603954,87.2720497 C261.307605,87.6124205 260.916714,87.861737 260.478468,87.9899004 C259.874959,88.0532428 259.279318,87.8157712 258.893601,87.3580422 C258.480158,86.9392959 258.189216,86.415863 257.794913,85.9784227 C256.865967,85.0427169 255.627717,84.4585774 254.299783,84.3296092 C252.982899,84.204326 251.657664,84.1855681 250.337616,84.2735271 C250.047871,84.3070776 249.754343,84.2590822 249.491588,84.1351913 C249.296112,84.004065 249.138022,83.8265069 249.032206,83.619236 C247.500933,81.0469374 247.979456,77.8166088 248.526886,74.8779072 L249.778701,68.1480561 C249.9614,66.8631615 250.31265,65.6065722 250.823795,64.4092499 C251.298489,63.4184663 252.355067,61.7360035 253.664305,62.035108 C254.973543,62.3342125 256.711538,64.1886603 257.817882,64.966332 Z" id="Path" fill="#3F3D56" fill-rule="nonzero"></path>
                        <polygon id="Path" fill="#A0B92C" fill-rule="nonzero" points="151 114.689142 125.231985 120 124.644733 119.943461 102 117.640456 102 88.7228562 129.720534 84 149.829237 86.3633127 149.836718 86.4914669 149.836718 86.5517747"></polygon>
                        <polygon id="Path" fill="#000000" fill-rule="nonzero" opacity="0.1" points="151 115.611249 125.579336 121 125 120.942632 125 90.8627672 149.852399 87"></polygon>
                        <polygon id="Path" fill="#000000" fill-rule="nonzero" opacity="0.05" points="151 86.4308797 150.992494 86.438061 125.722027 90 103 88.4991023 130.815154 84 150.992494 86.2513465 151 86.3734291"></polygon>
                        <polygon id="Path" fill="#3F3D56" fill-rule="nonzero" points="165 86.6859296 139.231985 92 138.644733 91.9396985 116 89.6369347 116 60.7223618 143.720534 56 163.829237 58.3630653 163.836718 58.491206 163.836718 58.5515075"></polygon>
                        <polygon id="Path" fill="#000000" fill-rule="nonzero" opacity="0.1" points="165 85.6080306 139.579336 91 139 90.9388145 139 60.8623327 163.852399 57"></polygon>
                        <polygon id="Path" fill="#000000" fill-rule="nonzero" opacity="0.05" points="164 58.4308797 163.992494 58.438061 138.722027 62 116 60.4991023 143.815154 56 163.992494 58.2513465 164 58.3734291"></polygon>
                    </g>
                </g>
            </g>
        </g>
    </g>
</svg>