<?xml version="1.0" encoding="UTF-8"?>
<svg width="256px" height="256px" viewBox="0 0 256 256" xmlns="http://www.w3.org/2000/svg" xmlns:xlink="http://www.w3.org/1999/xlink" version="1.1">
 <!-- Generated by Pixelmator Pro 2.3 -->
 <path id="ô€š" d="M50.917 180.417 L116.5 217.583 C118.833 218.917 121.125 219.583 123.375 219.583 125.625 219.583 127.944 218.917 130.333 217.583 L195.833 180.417 C199.667 178.194 202.569 175.681 204.542 172.875 206.514 170.069 207.5 165.694 207.5 159.75 L207.5 93.75 C207.5 89.417 206.681 85.833 205.042 83 203.403 80.167 200.833 77.722 197.333 75.667 L138.333 42.167 C133.333 39.278 128.361 37.833 123.417 37.833 118.472 37.833 113.472 39.278 108.417 42.167 L49.5 75.667 C45.944 77.722 43.347 80.167 41.708 83 40.069 85.833 39.25 89.417 39.25 93.75 L39.25 159.75 C39.25 165.694 40.25 170.069 42.25 172.875 44.25 175.681 47.139 178.194 50.917 180.417 Z M58.417 169.417 C55.972 168.028 54.278 166.569 53.333 165.042 52.389 163.514 51.917 161.611 51.917 159.333 L51.917 96.417 116.833 133.5 116.833 202.667 Z M188.417 169.417 L129.917 202.667 129.917 133.5 194.833 96.417 194.833 159.333 C194.833 161.611 194.361 163.514 193.417 165.042 192.472 166.569 190.806 168.028 188.417 169.417 Z M123.417 121.833 L59.083 85.417 84.833 70.667 149.167 107.25 Z M162.583 99.667 L98 63.167 114 54.083 C120.333 50.472 126.611 50.472 132.833 54.083 L187.75 85.417 Z" fill="#000000" fill-opacity="1" stroke="none"/>
</svg>
