<?xml version="1.0" encoding="UTF-8"?>
<svg width="256px" height="256px" viewBox="0 0 256 256" xmlns="http://www.w3.org/2000/svg" xmlns:xlink="http://www.w3.org/1999/xlink" version="1.1">
 <!-- Generated by Pixelmator Pro 2.3 -->
 <g id="New-Group-copy">
  <path id="map-pin-solid" d="M113.656 210.27 L113.656 139.956 C118.145 140.776 122.764 140.819 127.469 140.819 132.174 140.819 136.792 140.776 141.281 139.956 L141.281 210.27 C141.281 217.91 135.109 224.083 127.469 224.083 119.829 224.083 113.656 217.91 113.656 210.27 Z" fill="#1c1c1c" fill-opacity="1" stroke="none"/>
  <path id="map-pin-solid-copy" d="M189.625 80.156 C189.625 114.472 161.784 142.313 127.469 142.313 93.14 142.313 65.313 114.472 65.313 80.156 65.313 45.828 93.14 18 127.469 18 161.784 18 189.625 45.828 189.625 80.156 Z M134.375 45.625 C134.375 41.809 131.267 38.719 127.469 38.719 104.203 38.719 86.031 57.271 86.031 80.156 86.031 83.955 89.122 87.063 92.938 87.063 96.736 87.063 99.844 83.955 99.844 80.156 99.844 64.919 112.232 52.531 127.469 52.531 131.267 52.531 134.375 49.441 134.375 45.625 Z M127.469 239" fill="#c7e637" fill-opacity="1" stroke="#000000" stroke-width="2.984" stroke-opacity="1" stroke-linejoin="round" stroke-linecap="round"/>
 </g>
</svg>
