<?xml version="1.0" encoding="UTF-8"?>
<svg width="256px" height="256px" viewBox="0 0 256 256" xmlns="http://www.w3.org/2000/svg" xmlns:xlink="http://www.w3.org/1999/xlink" version="1.1">
 <!-- Generated by Pixelmator Pro 2.3 -->
 <path id="􀆊" d="M173.309 129.421 C173.309 128.376 173.103 127.399 172.69 126.491 172.278 125.584 171.686 124.745 170.916 123.975 L105.561 59.939 C104.075 58.509 102.26 57.794 100.114 57.794 98.739 57.794 97.474 58.124 96.318 58.784 95.163 59.444 94.255 60.338 93.595 61.466 92.935 62.594 92.605 63.873 92.605 65.303 92.605 67.339 93.32 69.127 94.75 70.667 L154.825 129.421 94.75 188.175 C93.32 189.715 92.605 191.503 92.605 193.539 92.605 194.969 92.935 196.248 93.595 197.376 94.255 198.504 95.163 199.397 96.318 200.058 97.474 200.718 98.739 201.048 100.114 201.048 102.26 201.048 104.075 200.305 105.561 198.82 L170.916 134.867 C171.686 134.097 172.278 133.258 172.69 132.35 173.103 131.443 173.309 130.466 173.309 129.421 Z" fill="#000000" fill-opacity="1" stroke="none"/>
</svg>
