<?xml version="1.0" encoding="UTF-8"?>
<svg width="1126px" height="940px" viewBox="0 0 1126 940" xmlns="http://www.w3.org/2000/svg" xmlns:xlink="http://www.w3.org/1999/xlink" version="1.1">
 <!-- Generated by Pixelmator Pro 2.3 -->
 <g id="undraw_new_ideas_jdea">
  <g id="Artboard">
   <g id="Second-Row">
    <g id="Enroll-user-done-screen">
     <g id="undraw_new_ideas_jdea-1">
      <path id="Path" d="M1068.624 301.91 C1068.624 341.162 1059.33 373.473 1043.207 401.151 1037.886 410.268 1031.845 418.945 1025.143 427.1 965.873 499.612 855.68 539.299 756.086 603.585 462.103 793.341 430.259 489.277 443.537 301.91 448.893 226.307 478.327 157.054 525.089 104.029 534.909 92.877 545.518 82.445 556.832 72.813 609.92 27.589 678.507 0.223 756.086 0.223 889.186 0.223 1002.85 80.525 1047.916 193.684 1061.617 228.119 1068.644 264.847 1068.624 301.91 Z" fill="#a0b92c" fill-opacity="1" stroke="none"/>
      <path id="Path-1" d="M821.191 70.15 L525.347 104.217 C535.11 93.609 545.657 83.686 556.905 74.523 Z" fill="#d0cde1" fill-opacity="1" stroke="none"/>
      <path id="Path-2" d="M1038.143 399.649 C1032.901 409.243 1026.949 418.374 1020.345 426.955 L769.194 394.682 Z" fill="#d0cde1" fill-opacity="1" stroke="none"/>
      <path id="Path-3" d="M1050.694 224.347 L622.169 168.764 1040.379 193.49 C1044.396 203.573 1047.84 213.875 1050.694 224.347 Z" fill="#d0cde1" fill-opacity="1" stroke="none"/>
      <path id="Path-4" d="M469.764 81.804 C469.764 82.577 469.742 83.339 469.675 84.09 468.746 96.822 460.194 107.722 448.048 111.655 435.901 115.587 422.583 111.767 414.368 101.995 406.153 92.223 404.679 78.447 410.641 67.158 411.315 65.865 412.087 64.626 412.949 63.449 420.635 52.79 434.151 48.052 446.81 51.58 459.469 55.107 468.587 66.152 469.652 79.249 469.731 80.089 469.764 80.941 469.764 81.804 Z" fill="#a0b92c" fill-opacity="1" stroke="none"/>
      <path id="Path-5" d="M473.35 81.591 C473.35 82.573 473.328 83.54 473.262 84.494 L426.732 77.322 473.239 78.346 C473.317 79.413 473.35 80.495 473.35 81.591 Z" fill="#d0cde1" fill-opacity="1" stroke="none"/>
      <path id="Path-6" d="M455.42 97.045 L412.108 98.838 C410.879 98.366 409.773 97.859 408.803 97.321 Z" fill="#d0cde1" fill-opacity="1" stroke="none"/>
      <path id="Path-7" d="M442.869 62.978 L408.803 64.771 C409.448 64.229 410.187 63.71 411.012 63.217 Z" fill="#d0cde1" fill-opacity="1" stroke="none"/>
      <path id="Path-8" d="M896.424 641.582 C896.062 642.265 895.684 642.928 895.273 643.56 888.484 654.372 875.82 659.992 863.247 657.772 850.675 655.552 840.702 645.934 838.026 633.45 835.351 620.966 840.507 608.105 851.065 600.927 852.267 600.102 853.53 599.368 854.843 598.733 866.629 592.92 880.789 595.07 890.317 604.121 899.846 613.172 902.722 627.203 897.523 639.273 897.198 640.052 896.828 640.82 896.424 641.582 Z" fill="#a0b92c" fill-opacity="1" stroke="none"/>
      <path id="Path-9" d="M898.932 643.601 C898.553 644.326 898.158 645.03 897.727 645.701 L857.051 617.013 900.083 641.148 C899.743 641.975 899.356 642.791 898.932 643.601 Z" fill="#d0cde1" fill-opacity="1" stroke="none"/>
      <path id="Path-10" d="M880.36 651.08 L838.21 635.106 C837.751 633.288 837.456 631.433 837.328 629.564 Z" fill="#d0cde1" fill-opacity="1" stroke="none"/>
      <path id="Path-11" d="M883.946 613.427 L851.672 601.168 C852.832 600.383 854.051 599.686 855.318 599.083 Z" fill="#d0cde1" fill-opacity="1" stroke="none"/>
      <path id="Path-12" d="M1117.087 106.513 C1117.627 107.067 1118.143 107.628 1118.619 108.213 1126.846 117.976 1128.335 131.751 1122.384 143.046 1116.433 154.342 1104.23 160.906 1091.524 159.645 1078.818 158.385 1068.142 149.552 1064.528 137.307 1064.108 135.911 1063.794 134.484 1063.59 133.04 1061.65 120.043 1068.018 107.214 1079.545 100.901 1091.073 94.588 1105.314 96.13 1115.223 104.763 1115.866 105.309 1116.485 105.896 1117.087 106.513 Z" fill="#a0b92c" fill-opacity="1" stroke="none"/>
      <path id="Path-13" d="M1113.78 105.971 C1114.295 106.526 1114.788 107.088 1115.242 107.674 L1079.382 136.49 1112.001 104.217 C1112.615 104.765 1113.205 105.352 1113.78 105.971 Z" fill="#d0cde1" fill-opacity="1" stroke="none"/>
      <path id="Path-14" d="M1118.828 125.732 L1091.912 159.799 C1090.105 159.676 1088.312 159.391 1086.554 158.947 Z" fill="#d0cde1" fill-opacity="1" stroke="none"/>
      <path id="Path-15" d="M1086.554 106.01 L1064.178 134.697 C1063.76 133.262 1063.448 131.796 1063.245 130.312 Z" fill="#d0cde1" fill-opacity="1" stroke="none"/>
      <path id="Path-16" d="M532.121 676.182 C532.121 676.182 600.653 679.149 600.653 696.956 600.653 714.762 523.554 696.956 523.554 696.956 Z" fill="#a0616a" fill-opacity="1" stroke="none"/>
      <path id="Path-17" d="M431.38 939.752 L303.889 931.168 298.222 862.497 269.891 922.584 145.232 905.416 C148.066 796.688 193.396 690.821 196.229 676.515 199.062 662.208 205.834 603.094 205.834 603.094 218.214 576.57 283.093 574.081 333.948 576.485 355.027 577.457 373.726 579.289 385.256 580.605 392.877 581.463 397.382 582.093 397.382 582.093 417.696 603.238 430.785 632.05 438.831 664.24 467.843 780.207 431.38 939.752 431.38 939.752 Z" fill="#2f2e41" fill-opacity="1" stroke="none"/>
      <path id="Oval" d="M356.806 208.21 C356.806 246.83 325.498 278.137 286.879 278.137 248.26 278.137 216.952 246.83 216.952 208.21 216.952 169.591 248.26 138.283 286.879 138.283 325.498 138.283 356.806 169.591 356.806 208.21 Z" fill="#a0616a" fill-opacity="1" stroke="none"/>
      <path id="Path-18" d="M242.221 224.347 C242.221 224.347 222.186 314.038 190.702 340.077 159.219 366.116 313.774 340.077 313.774 340.077 313.774 340.077 279.428 282.212 305.188 256.173 330.947 230.134 242.221 224.347 242.221 224.347 Z" fill="#a0616a" fill-opacity="1" stroke="none"/>
      <path id="Path-19" d="M385.494 589.949 L338.325 595.177 206.372 609.841 C206.372 609.841 205.746 608.164 204.637 605.123 195.056 579.008 148.911 451.926 143.821 413.762 138.135 371.136 197.842 319.985 197.842 319.985 197.842 319.985 254.706 308.618 271.765 308.618 288.825 308.618 357.062 334.193 357.062 334.193 L382.508 562.981 384.698 582.787 Z" fill="#d0cde1" fill-opacity="1" stroke="none"/>
      <path id="Path-20" d="M435.697 663.631 L340.274 607.474 C340.274 607.474 338.599 602.004 335.762 592.772 334.343 588.157 332.613 582.573 330.655 576.247 319.645 540.747 301.174 482.168 286.362 439.374 263.663 373.844 374.323 556.189 374.323 556.189 L379.856 560.492 382.041 580.35 C389.674 581.205 394.186 581.832 394.186 581.832 414.53 602.887 427.639 631.578 435.697 663.631 Z" fill="#000000" fill-opacity="1" stroke="none"/>
      <path id="Path-21" d="M313.759 338.536 C313.759 338.536 285.674 375.453 308.142 440.768 330.61 506.084 361.503 608.316 361.503 608.316 L524.395 704.869 546.863 676.471 395.205 557.2 C395.205 557.2 389.588 341.375 361.503 332.856 333.418 324.337 313.759 338.536 313.759 338.536 Z" fill="#d0cde1" fill-opacity="1" stroke="none"/>
      <path id="Path-22" d="M166.748 587.212 C166.748 587.212 207.239 671.74 224.592 662.996 241.945 654.252 181.209 566.809 181.209 566.809 Z" fill="#a0616a" fill-opacity="1" stroke="none"/>
      <path id="Path-23" d="M168.65 360.615 L15.587 485.527 C15.587 485.527 -42.173 525.271 64.683 553.66 171.539 582.049 180.202 599.083 180.202 599.083 180.202 599.083 191.754 562.177 206.194 567.855 L82.011 508.238 183.09 448.621 Z" fill="#d0cde1" fill-opacity="1" stroke="none"/>
      <path id="Path-24" d="M103.826 270.092 C111.686 266.215 129.042 258.389 143.826 248.961 142.789 218.29 146.581 190.447 157.679 175.688 163.909 161.598 176.99 147.49 187.236 136.38 212.397 109.098 268.033 93.869 277.901 107.5 352.535 108.968 360.392 167.246 360.392 167.246 360.003 191.622 334.571 192.394 312.293 191.506 314.288 208.147 308.972 225.438 293.576 233.107 264.135 247.771 255.303 266.834 270.023 280.032 284.744 293.23 311.241 328.424 275.912 337.222 240.583 346.02 236.167 363.617 246.471 370.95 256.775 378.281 222.918 357.752 222.918 357.752 222.918 357.752 217.03 392.946 186.117 384.147 183.347 383.359 180.578 381.338 177.856 378.317 169.507 387.455 162.059 392.858 156.446 392.889 124.297 393.058 128.152 357.586 128.152 357.586 128.152 357.586 89.992 368.262 101.9 363.969 113.807 359.676 114.317 341.544 82.678 323.583 51.038 305.621 86.079 278.847 103.826 270.092 Z" fill="#2f2e41" fill-opacity="1" stroke="none"/>
      <path id="Path-25" d="M506.829 359.656 L506.314 359.588 507.571 364.385 C508.76 371.079 510.487 377.665 512.734 384.079 L549.624 524.796 C552.031 533.974 559.631 540.847 568.977 542.298 L644.209 553.977 C654.178 555.524 664.035 550.588 668.797 541.664 L740.291 407.667 C742.525 403.954 744.567 400.128 746.407 396.204 L748.835 391.655 748.456 391.605 C769.232 342.288 756.908 285.192 717.658 248.921 678.407 212.65 620.686 205.018 573.412 229.848 526.137 254.678 499.494 306.622 506.829 359.656 Z" fill="#3f3d56" fill-opacity="1" stroke="none"/>
      <path id="Path-26" d="M645.964 563.223 C644.643 563.223 643.324 563.122 642.018 562.92 L563.62 550.825 C553.444 549.257 545.169 541.821 542.551 531.89 L504.108 386.167 C501.759 379.496 499.953 372.647 498.709 365.686 L497.737 359.311 C492.434 318.02 506.902 276.645 536.803 247.596 566.704 218.546 608.559 205.2 649.815 211.56 L649.476 213.742 C608.663 207.47 567.278 220.802 537.859 249.699 508.44 278.595 494.448 319.656 500.122 360.443 L500.869 365.212 C502.104 372.114 503.895 378.905 506.223 385.521 L544.692 531.329 C547.086 540.409 554.653 547.21 563.958 548.644 L642.356 560.738 C652.28 562.259 662.087 557.379 666.834 548.557 L668.787 549.599 C664.273 557.982 655.506 563.216 645.964 563.223 Z" fill="#d0cde1" fill-opacity="1" stroke="none"/>
      <path id="Rectangle" d="M616.799 522.316 L664.717 391.481 667.418 392.47 619.5 523.305 Z" fill="#d0cde1" fill-opacity="1" stroke="none"/>
      <path id="Rectangle-1" d="M583.605 379.501 L586.479 379.375 592.595 518.574 589.721 518.701 Z" fill="#d0cde1" fill-opacity="1" stroke="none"/>
      <path id="Path-27" d="M638.586 631.32 L538.506 615.598 C536.956 615.345 535.899 613.87 536.139 612.295 536.379 610.721 537.826 609.638 539.378 609.873 L639.459 625.595 C640.471 625.747 641.325 626.439 641.696 627.407 642.068 628.375 641.901 629.471 641.259 630.279 640.616 631.088 639.597 631.485 638.586 631.32 Z" fill="#3f3d56" fill-opacity="1" stroke="none"/>
      <path id="Path-28" d="M640.38 609.804 L540.33 594.086 C539.319 593.933 538.465 593.242 538.093 592.274 537.721 591.306 537.888 590.211 538.531 589.402 539.173 588.594 540.193 588.197 541.202 588.362 L641.252 604.08 C642.264 604.233 643.118 604.924 643.49 605.892 643.861 606.859 643.694 607.955 643.052 608.763 642.41 609.572 641.39 609.969 640.38 609.804 Z" fill="#3f3d56" fill-opacity="1" stroke="none"/>
      <path id="Path-29" d="M642.204 588.293 L542.092 572.568 C540.543 572.315 539.485 570.839 539.725 569.264 539.965 567.689 541.413 566.606 542.965 566.841 L643.076 582.566 C644.626 582.819 645.684 584.295 645.444 585.87 645.204 587.445 643.756 588.527 642.204 588.293 Z" fill="#3f3d56" fill-opacity="1" stroke="none"/>
      <path id="Path-30" d="M582.423 643.256 C603.159 646.464 621.756 637.508 623.962 623.251 L548.871 611.634 C546.665 625.89 561.687 640.048 582.423 643.256 Z" fill="#3f3d56" fill-opacity="1" stroke="none"/>
      <path id="Path-31" d="M623.995 364.729 C619.566 364.037 615.901 360.499 613.892 358.128 613.233 357.35 612.592 356.544 611.949 355.736 609.609 352.792 607.4 350.013 604.323 348.563 597.533 345.362 589.531 349.834 582.604 354.632 L580.93 352.166 C588.546 346.889 597.428 342.014 605.575 345.853 609.275 347.597 611.807 350.782 614.255 353.862 614.879 354.647 615.501 355.429 616.139 356.183 618.228 358.648 622.395 362.643 626.859 361.722 628.74 361.168 630.49 360.232 632.001 358.971 633.152 358.103 634.369 357.327 635.64 356.651 640.91 354.097 647.183 354.992 651.547 358.923 652.308 359.651 653.028 360.421 653.706 361.229 655.037 362.763 656.293 364.21 657.929 364.736 660.348 365.518 662.904 364.121 665.612 362.645 668.405 361.122 671.293 359.546 674.568 359.935 674.674 359.947 674.782 359.962 674.887 359.979 680.716 360.89 683.403 367.404 684.924 372.265 L682.101 373.166 C680.036 366.557 677.519 363.271 674.222 362.905 671.875 362.626 669.516 363.913 667.018 365.276 663.886 366.985 660.645 368.751 657.031 367.585 654.612 366.808 653.02 364.975 651.481 363.202 650.875 362.477 650.23 361.785 649.55 361.129 646.077 358.056 641.133 357.35 636.953 359.33 635.821 359.939 634.736 360.635 633.709 361.412 631.873 362.925 629.741 364.029 627.453 364.651 626.314 364.886 625.143 364.912 623.995 364.729 Z" fill="#d0cde1" fill-opacity="1" stroke="none"/>
     </g>
    </g>
   </g>
  </g>
 </g>
</svg>
