<?xml version="1.0" encoding="UTF-8"?>
<svg width="256px" height="256px" viewBox="0 0 256 256" xmlns="http://www.w3.org/2000/svg" xmlns:xlink="http://www.w3.org/1999/xlink" version="1.1">
 <!-- Generated by Pixelmator Pro 2.3 -->
 <path id="􀎟" d="M144.536 193.74 L102.634 193.74 102.634 140.064 C102.634 138.169 103.216 136.666 104.38 135.557 105.544 134.447 107.046 133.892 108.887 133.892 L138.364 133.892 C140.259 133.892 141.761 134.447 142.871 135.557 143.981 136.666 144.536 138.169 144.536 140.064 Z M52.043 188.868 C52.043 194.552 53.654 198.964 56.875 202.104 60.096 205.244 64.576 206.814 70.314 206.814 L177.099 206.814 C182.783 206.814 187.236 205.244 190.457 202.104 193.678 198.964 195.289 194.552 195.289 188.868 L195.289 124.553 128.538 68.603 C125.29 65.842 122.042 65.842 118.794 68.603 L52.043 124.553 Z M26.707 116.433 C26.707 118.111 27.33 119.613 28.575 120.94 29.82 122.266 31.525 122.929 33.691 122.929 34.828 122.929 35.87 122.659 36.817 122.117 37.765 121.576 38.671 120.98 39.538 120.331 L120.824 52.119 C121.744 51.307 122.705 50.901 123.707 50.901 124.708 50.901 125.669 51.307 126.589 52.119 L207.875 120.331 C208.687 120.98 209.567 121.576 210.515 122.117 211.462 122.659 212.504 122.929 213.641 122.929 215.536 122.929 217.16 122.374 218.513 121.265 219.867 120.155 220.543 118.625 220.543 116.677 220.543 114.403 219.704 112.562 218.026 111.155 L133.492 40.1 C130.46 37.556 127.198 36.284 123.707 36.284 120.215 36.284 116.953 37.556 113.921 40.1 L29.306 111.155 C27.573 112.562 26.707 114.322 26.707 116.433 Z M174.906 79.81 L195.289 97.025 195.289 59.508 C195.289 57.722 194.761 56.301 193.705 55.245 192.649 54.189 191.228 53.662 189.442 53.662 L180.753 53.662 C179.021 53.662 177.613 54.189 176.53 55.245 175.448 56.301 174.906 57.722 174.906 59.508 Z" fill="#000000" fill-opacity="1" stroke="none"/>
</svg>
