<?xml version="1.0" encoding="UTF-8"?>
<svg width="377px" height="296px" viewBox="0 0 377 296" version="1.1" xmlns="http://www.w3.org/2000/svg" xmlns:xlink="http://www.w3.org/1999/xlink">
    <title>undraw_mobile_login_re_9ntv</title>
    <g id="Page-1" stroke="none" stroke-width="1" fill="none" fill-rule="evenodd">
        <g id="Artboard" transform="translate(-785.000000, -777.000000)" fill-rule="nonzero">
            <g id="First-Row" transform="translate(248.000000, 529.000000)">
                <g id="Not-Registered-screen" transform="translate(530.000000, 0.000000)">
                    <g id="undraw_mobile_login_re_9ntv" transform="translate(7.000000, 248.000000)">
                        <path d="M343.208004,269.861237 C335.934189,277.568176 327.599609,284.222667 318.449922,289.628573 C318.240084,289.756229 318.026698,289.876099 317.812567,290 L303,277.025619 C303.155607,276.882646 303.327925,276.722058 303.513453,276.545661 C314.550346,266.174183 369.342139,193.658706 372.993258,176 C372.741296,177.471177 376.287743,235.163755 343.208004,269.861237 Z" id="b10fb2cf-c586-4c5f-9fbf-e678f5ffa3db-41" fill="#F0F0F0"></path>
                        <path d="M320.890791,292.815941 C320.612393,292.881927 320.329148,292.943706 320.045109,293 L309,283.285447 C309.215858,283.210711 309.468123,283.121741 309.756632,283.023068 C314.495564,281.355538 328.610026,276.3216 342.656322,270.588082 C357.749148,264.424716 372.769622,257.460747 376,253 C375.307033,254.036462 353.96127,285.467207 320.890791,292.815941 Z" id="a32c10c7-75df-4179-a648-6a8d2a687209-42" fill="#F0F0F0"></path>
                        <path d="M343,76.9642803 L341.424245,76.9642803 L341.424245,33.9154897 C341.424253,27.3074939 338.792011,20.9701415 334.106583,16.2975799 C329.421155,11.6250183 323.066347,9 316.440146,9 L224.984157,9 C218.35796,9 212.003149,11.624985 207.317711,16.297531 C202.632272,20.970077 200,27.3074178 200,33.9154099 L200,270.08451 C200,276.692506 202.632233,283.029858 207.317662,287.70242 C212.00309,292.374982 218.357898,295 224.984098,295 L316.440039,295 C323.066237,295 329.421051,292.375025 334.106494,287.702482 C338.791937,283.029939 341.424201,276.692599 341.424218,270.084606 L341.424218,107.607148 L343,107.607148 L343,76.9642803 Z" id="Path" fill="#3F3D56"></path>
                        <path d="M336,34.6006711 L336,270.399329 C336,275.333698 334.036992,280.065877 330.542949,283.554376 C327.048905,287.042875 322.310203,289 317.369767,289 L225.62368,289 C220.684282,289 215.94708,287.04079 212.454385,283.55241 C208.96169,280.064031 207,275.332661 207,270.399329 L207,34.6006711 C207,29.6673394 208.96169,24.9359692 212.454385,21.4475899 C215.94708,17.9592105 220.684282,16 225.62368,16 L236.7575,16 C235.647706,18.7255068 235.967852,21.8238089 237.611569,24.2654941 C239.255286,26.7071794 242.007265,28.1724152 244.95316,28.1743757 L297.260284,28.1743757 C300.208054,28.1771649 302.96347,26.712981 304.608276,24.2697707 C306.253083,21.8265604 306.571067,18.7254879 305.456259,16 L317.369767,16 C322.310203,16 327.048905,17.9571254 330.542949,21.4456245 C334.036992,24.9341235 336,29.6663021 336,34.6006711 L336,34.6006711 Z" id="Path" fill="#FFFFFF"></path>
                        <path d="M306.68975,157 L226.31025,157 C223.378851,156.996759 221.003307,154.668444 221,151.795324 L221,149.204676 C221.003307,146.331556 223.378851,144.003241 226.31025,144 L306.68975,144 C309.621149,144.003241 311.996693,146.331556 312,149.204676 L312,151.795324 C311.996693,154.668444 309.621149,156.996759 306.68975,157 Z" id="Path" fill="#F0F0F0"></path>
                        <path d="M306.68975,180 L226.31025,180 C223.378851,179.996759 221.003307,177.668444 221,174.795324 L221,172.204676 C221.003307,169.331556 223.378851,167.003241 226.31025,167 L306.68975,167 C309.621149,167.003241 311.996693,169.331556 312,172.204676 L312,174.795324 C311.996693,177.668444 309.621149,179.996759 306.68975,180 L306.68975,180 Z" id="Path" fill="#F0F0F0"></path>
                        <path d="M311.395669,152 L230.604331,152 C227.510608,151.996436 225.00353,149.465021 225,146.341266 L225,143.658734 C225.00353,140.534979 227.510608,138.003564 230.604331,138 L311.395669,138 C314.489392,138.003564 316.99647,140.534979 317,143.658734 L317,146.341266 C316.99647,149.465021 314.489392,151.996436 311.395669,152 Z M230.604331,139.077854 C228.099863,139.080679 226.070289,141.129955 226.067492,143.658734 L226.067492,146.341266 C226.070289,148.870045 228.099863,150.919321 230.604331,150.922146 L311.395669,150.922146 C313.900137,150.919321 315.929711,148.870045 315.932508,146.341266 L315.932508,143.658734 C315.929711,141.129955 313.900137,139.080679 311.395669,139.077854 L230.604331,139.077854 Z" id="Shape" fill="#3F3D56"></path>
                        <path d="M311.395669,175 L230.604331,175 C227.510608,174.996436 225.00353,172.465021 225,169.341266 L225,166.658734 C225.00353,163.534979 227.510608,161.003564 230.604331,161 L311.395669,161 C314.489392,161.003564 316.99647,163.534979 317,166.658734 L317,169.341266 C316.99647,172.465021 314.489392,174.996436 311.395669,175 L311.395669,175 Z M230.604331,162.077854 C228.099863,162.080679 226.070289,164.129955 226.067492,166.658734 L226.067492,169.341266 C226.070289,171.870045 228.099863,173.919321 230.604331,173.922146 L311.395669,173.922146 C313.900137,173.919321 315.929711,171.870045 315.932508,169.341266 L315.932508,166.658734 C315.929711,164.129955 313.900137,162.080679 311.395669,162.077854 L230.604331,162.077854 Z" id="Shape" fill="#3F3D56"></path>
                        <path d="M336,35.4181176 L336,86.204229 C319.509836,90.5069471 301.940055,86.9815922 288.433082,76.6599855 C274.926109,66.3383787 267.009376,50.3877366 267,33.4765849 C267,31.9871811 267.060343,30.5132835 267.181029,29.0548921 L297.370084,29.0548921 C300.309498,29.0576539 303.057105,27.60784 304.69725,25.1886082 C306.337394,22.7693765 306.654477,19.698739 305.542829,17 L317.42257,17 C322.349004,16.9982247 327.074275,18.9379175 330.558416,22.3921792 C334.042556,25.8464409 336,30.5321762 336,35.4181176 L336,35.4181176 Z" id="Path" fill="#F0F0F0"></path>
                        <path d="M253,285.808886 C253,286.885955 252.959057,287.949675 252.870522,289 L224.881886,289 C219.874007,289 215.071126,287.048115 211.530007,283.572776 C207.988888,280.097438 206,275.383755 206,270.468866 L206,245.341463 C217.868449,243.826563 229.827115,247.398057 238.823995,255.144455 C247.820875,262.890852 252.98557,274.062731 253,285.808886 L253,285.808886 Z" id="Path" fill="#A0B92C"></path>
                        <path d="M31.149547,240.729479 C32.7733444,241.436979 34.6688336,240.709019 35.3869225,239.102122 L60.3898055,182.965785 C61.5600863,180.338683 61.0175786,177.271891 59.0152722,175.195559 C57.0129658,173.119226 53.9452178,172.442291 51.2426235,173.48043 L51.2425592,173.48043 C49.715734,174.058075 48.4380874,175.141915 47.6269869,176.547554 C47.4979624,176.769941 47.3809551,176.998961 47.2764593,177.233645 L22.2735764,233.370013 C21.9294257,234.142538 21.9091871,235.018862 22.2173136,235.80617 C22.52544,236.593478 23.1366862,237.227263 23.9165597,237.568074 L31.149547,240.729479 Z" id="Path" fill="#A0B92C"></path>
                        <path d="M59,207 L34,201.574762 L40.1877556,185.590007 C42.3660923,177.516307 50.2577466,172.207591 58.7591443,173.097035 L59,173.123107 L59,207 Z" id="Path" fill="#2F2E41"></path>
                        <path d="M108.0408,242 C106.557483,241.997514 105.214445,241.13005 104.612651,239.78577 L79.655299,183.701123 C78.0071725,179.995782 79.5684664,175.659377 83.2105474,173.826625 C86.8526284,171.993873 91.3043078,173.304456 93.3475407,176.810974 L93.3475407,176.810714 C93.4858515,177.049233 93.611253,177.294887 93.7232125,177.546631 L118.680597,233.63131 C119.514947,235.506385 118.658325,237.697084 116.767261,238.524419 L109.302683,241.789845 L109.298898,241.781565 C108.895407,241.925891 108.469743,242 108.0408,242 L108.0408,242 Z" id="Path" fill="#A0B92C"></path>
                        <path d="M74.1390674,223 C72.4062104,223.001972 71.0019347,224.433356 71,226.199664 L71,291.800336 C71.0019375,293.566643 72.4062115,294.998025 74.1390674,295 L81.8609326,295 C83.5937885,294.998025 84.9980625,293.566643 85,291.800336 L85,226.199664 C84.9980653,224.433356 83.5937896,223.001972 81.8609326,223 L74.1390674,223 Z" id="Path" fill="#A0B92C"></path>
                        <path d="M58.1390416,223 C56.4061988,223.001972 55.0019347,224.433356 55,226.199664 L55,291.800336 C55.0019375,293.566643 56.4062,294.998025 58.1390416,295 L65.8609584,295 C67.5938,294.998025 68.9980625,293.566643 69,291.800336 L69,226.199664 C68.9980653,224.433356 67.5938012,223.001972 65.8609584,223 L58.1390416,223 Z" id="Path" fill="#A0B92C"></path>
                        <circle id="Oval" fill="#A0B92C" cx="70" cy="127" r="27"></circle>
                        <path d="M79.0280942,138 C80.6979422,137.951472 82.7761564,137.890804 84.3772083,136.666644 C85.3422493,135.898535 85.9338432,134.723465 85.9936005,133.456041 C86.0523028,132.55401 85.7046422,131.67514 85.0539142,131.080557 C84.2176997,130.340951 82.9966015,130.167472 81.680679,130.572253 L83.0440818,120.143529 L82.0432368,120 L80.4404119,132.260308 L81.2761971,131.858884 C82.2451697,131.3937 83.5752756,131.156974 84.4018173,131.888057 C84.8132186,132.275473 85.0285114,132.841515 84.9840626,133.418879 C84.9344871,134.361839 84.49547,135.235587 83.7812797,135.812703 C82.5353402,136.765271 80.8788119,136.888154 79,136.943138 L79.0280942,138 Z" id="Path" fill="#2F2E41"></path>
                        <rect id="Rectangle" fill="#2F2E41" x="89" y="122" width="5" height="1"></rect>
                        <rect id="Rectangle" fill="#2F2E41" x="71" y="122" width="5" height="1"></rect>
                        <path d="M96.9700723,242.377186 L87.0819557,171.13668 C86.8626526,169.556965 85.4951528,168.379687 83.8795656,168.379747 L76.4158422,168.379747 C76.446936,168.204169 76.4631259,168.026337 76.4642431,167.848101 L76.4642431,165.189873 C76.4641985,163.428173 75.0171575,162 73.2321283,162 L66.7678987,162 C64.9828682,162 63.5358255,163.428172 63.5357838,165.189873 L63.5357838,167.848101 C63.5368993,168.026337 63.5530873,168.204169 63.5841794,168.379747 L56.1204344,168.379747 C54.5048789,168.37977 53.1374269,169.557008 52.9180443,171.13668 L43.0299277,242.377186 C42.9032023,243.29016 43.1827158,244.212614 43.7964984,244.907033 C44.410281,245.601452 45.2983557,246 46.2320593,246 L93.7679246,246 C94.701631,246 95.58971,245.601458 96.2034963,244.907039 C96.8172825,244.21262 97.096798,243.290163 96.9700723,242.377186 L96.9700723,242.377186 Z" id="Path" fill="#2F2E41"></path>
                        <path d="M82,207 L82,173.122739 L82.2408514,173.096667 C90.753146,172.207967 98.6516639,177.530535 100.821217,185.617404 L107,201.574721 L82,207 Z" id="Path" fill="#2F2E41"></path>
                        <path d="M68.5369024,155.406138 L49.6892958,148.133578 C46.6073208,146.94436 43.5081201,145.791345 40.4424626,144.56118 C39.1292767,144.106275 37.9196273,143.397523 36.8832206,142.475767 C35.9809017,141.526164 35.3659264,140.343071 35.1087583,139.062047 C34.4550608,136.315264 34.5732528,133.312187 34.6198757,130.509096 C34.6560458,127.442633 34.9098875,124.382532 35.3795085,121.351603 C36.2025798,115.655959 38.1354891,110.174651 41.0699261,105.214823 C46.3555863,96.5933205 55.4624067,90.106788 65.9377031,90.6244696 C70.7873548,90.8641276 75.6649022,92.5941274 79.2681008,95.8903607 C79.6439591,96.3369059 80.0656808,96.7432262 80.52641,97.1027161 C80.8466642,97.222115 81.1951424,97.245372 81.5285766,97.1695994 C81.9682754,97.1414764 82.4083374,97.1200106 82.8487628,97.1052019 C84.3769583,97.0411183 85.9078681,97.1049548 87.4252974,97.296036 C90.1906132,97.5930276 92.8115263,98.6749145 94.9751147,100.412526 C96.7757737,101.952393 98.2409202,104.126222 98.3916884,106.542004 C98.5391977,108.789648 97.6282935,110.97793 95.9262773,112.464708 C93.6776736,114.34869 90.4694387,113.686497 87.772153,113.544433 L77.8909745,113.024011 L72.8845064,112.760334 C71.8536586,112.706039 71.8566613,114.29967 72.8845064,114.353805 L86.1911653,115.05464 C88.3295379,115.167246 90.5334049,115.443277 92.6735033,115.315805 C94.3179004,115.24177 95.8880458,114.613824 97.1258991,113.535165 C99.4255397,111.435067 100.447238,108.288927 99.8169657,105.248504 C99.1309271,101.988501 96.6903448,99.2917471 93.8292753,97.6874244 C89.9363109,95.5044751 85.2869194,95.2953214 80.9309163,95.6180365 L81.4976247,95.851395 C76.5702006,90.5939174 69.0225419,88.3741217 61.9368371,89.1509443 C54.455442,89.9711411 47.8013859,94.1203648 43.0205037,99.7940199 C37.6901121,106.119787 34.7853691,114.007555 33.6561143,122.118461 C33.0684559,126.497618 32.8749855,130.920165 33.0780039,135.333505 C33.0696446,137.279878 33.4046049,139.212638 34.0676734,141.044012 C34.8242111,142.826369 36.1920722,144.284245 37.9280403,145.158418 C39.9182718,146.113569 41.9643633,146.949136 44.0552839,147.660614 L50.9991486,150.339967 L64.6388621,155.603006 L68.1107891,156.94269 C69.0729903,157.313969 69.4898122,155.773826 68.5369024,155.406138 Z" id="Path" fill="#2F2E41"></path>
                        <path d="M39,101 C34.581722,101 31,97.418278 31,93 C31,88.581722 34.581722,85 39,85 C43.418278,85 47,88.581722 47,93 C46.9950394,97.4162216 43.4162216,100.995039 39,101 Z M39,86.5483871 C35.4368726,86.5483871 32.5483871,89.4368726 32.5483871,93 C32.5483871,96.5631274 35.4368726,99.4516129 39,99.4516129 C42.5631274,99.4516129 45.4516129,96.5631274 45.4516129,93 C45.447608,89.4385328 42.5614672,86.552392 39,86.5483871 Z" id="Shape" fill="#2F2E41"></path>
                        <polygon id="Rectangle" fill="#F0F0F0" transform="translate(161.292219, 154.251722) rotate(37.409780) translate(-161.292219, -154.251722) " points="150.046726 143.006228 172.537713 143.006228 172.537713 165.497215 150.046726 165.497215"></polygon>
                        <path d="M76.1510044,30.5602593 C81.8500842,30.5557089 87.2145952,33.2870118 90.6134598,37.9237163 L101,24.1590504 L69.835454,0 L46,31.5875214 L59.4318254,42 C62.1816255,35.0876737 68.7977119,30.5607582 76.1510044,30.5602593 L76.1510044,30.5602593 Z" id="Path" fill="#F0F0F0"></path>
                        <path d="M376.467514,296 L0.532485876,296 C0.238402047,296 0,295.776142 0,295.5 C0,295.223858 0.238402047,295 0.532485876,295 L376.467514,295 C376.761598,295 377,295.223858 377,295.5 C377,295.776142 376.761598,296 376.467514,296 Z" id="Path" fill="#3F3D56"></path>
                        <path d="M284.665916,207 L246.334084,207 C243.389528,206.996759 241.003322,204.668444 241,201.795324 L241,199.204676 C241.003322,196.331556 243.389528,194.003241 246.334084,194 L284.665916,194 C287.610472,194.003241 289.996678,196.331556 290,199.204676 L290,201.795324 C289.996678,204.668444 287.610472,206.996759 284.665916,207 L284.665916,207 Z" id="Path" fill="#A0B92C"></path>
                        <path d="M289.346468,203 L250.653532,203 C247.532648,202.996436 245.003561,200.465021 245,197.341266 L245,194.658734 C245.003561,191.534979 247.532648,189.003564 250.653532,189 L289.346468,189 C292.467352,189.003564 294.996439,191.534979 295,194.658734 L295,197.341266 C294.996439,200.465021 292.467352,202.996436 289.346468,203 Z M250.653532,190.077854 C248.127077,190.080679 246.079685,192.129955 246.076863,194.658734 L246.076863,197.341266 C246.079685,199.870045 248.127077,201.919321 250.653532,201.922146 L289.346468,201.922146 C291.872923,201.919321 293.920315,199.870045 293.923137,197.341266 L293.923137,194.658734 C293.920315,192.129955 291.872923,190.080679 289.346468,190.077854 L250.653532,190.077854 Z" id="Shape" fill="#3F3D56"></path>
                    </g>
                </g>
            </g>
        </g>
    </g>
</svg>