<?xml version="1.0" encoding="UTF-8"?>
<svg width="256px" height="256px" viewBox="0 0 256 256" xmlns="http://www.w3.org/2000/svg" xmlns:xlink="http://www.w3.org/1999/xlink" version="1.1">
 <!-- Generated by Pixelmator Pro 2.3 -->
 <path id="Shape" d="M216.376 239 C215.271 238.983 211.593 237.862 208.203 236.509 204.813 235.155 198.809 232.41 194.861 230.409 190.913 228.407 184.092 224.592 179.704 221.931 175.315 219.27 167.847 214.519 163.107 211.372 158.368 208.225 150.726 202.651 146.125 198.984 141.524 195.317 132.86 187.473 126.871 181.553 120.882 175.633 112.817 167.025 108.948 162.424 105.08 157.823 99.218 150.294 95.921 145.694 92.624 141.093 87.514 133.488 84.565 128.794 81.617 124.1 76.211 114.591 72.551 107.662 68.288 99.589 66.105 96.17 66.476 98.145 66.794 99.84 69.038 106.576 71.463 113.114 73.887 119.652 78.385 130.152 81.459 136.448 84.532 142.744 89.74 152.356 93.032 157.808 96.323 163.259 102.58 172.534 106.935 178.417 111.289 184.3 119.555 194.008 125.303 199.99 135.504 210.606 135.721 210.915 134.403 212.926 133.66 214.059 131.168 216.646 128.864 218.674 126.559 220.702 122.269 223.508 119.33 224.91 116.391 226.311 111.212 228.168 107.822 229.036 104.176 229.97 98.781 230.58 94.614 230.531 89.479 230.47 85.688 229.811 80.629 228.102 76.811 226.811 71.066 224.046 67.861 221.956 64.656 219.866 59.599 215.599 56.623 212.475 53.647 209.351 49.684 204.43 47.818 201.541 45.951 198.652 42.737 192.657 40.676 188.218 38.614 183.78 35.92 176.361 34.688 171.733 33.456 167.104 31.867 160.244 31.157 156.487 30.447 152.73 29.612 141.731 29.301 132.045 28.949 121.077 29.123 109.885 29.762 102.373 30.327 95.739 31.805 84.248 33.047 76.838 34.288 69.427 36.512 58.213 37.988 51.917 39.463 45.621 42.018 35.715 43.665 29.904 45.312 24.092 46.833 18.856 47.043 18.268 47.266 17.647 49.569 19.335 52.529 22.288 55.336 25.088 60.405 28.998 63.796 30.977 67.186 32.957 73.525 35.959 77.884 37.649 82.243 39.339 94.526 43.574 105.18 47.061 115.835 50.547 129.218 55.508 134.92 58.085 140.622 60.662 149.267 65.42 154.13 68.658 158.994 71.895 166.261 77.774 170.279 81.722 174.296 85.67 179.927 92.084 182.791 95.976 185.655 99.868 189.64 106.208 191.647 110.064 193.653 113.921 196.218 120.214 197.346 124.049 198.902 129.339 199.397 133.182 199.397 139.974 199.397 146.837 198.937 150.355 197.423 155.054 196.338 158.424 194.068 163.477 192.379 166.281 190.69 169.086 187.725 173.272 185.789 175.583 183.854 177.895 180.142 181.429 177.54 183.436 174.938 185.443 170.669 188.272 168.052 189.721 165.436 191.171 161.711 192.788 159.773 193.316 157.836 193.843 155.901 194.611 155.472 195.022 155.035 195.442 158.679 198.38 163.794 201.732 168.8 205.011 177.412 209.985 182.932 212.785 188.453 215.585 196.088 218.861 199.899 220.065 203.71 221.269 210.109 222.509 214.119 222.82 218.129 223.131 222.32 223.955 223.432 224.651 224.544 225.346 225.9 226.895 226.446 228.093 227.236 229.827 227.136 230.905 225.956 233.378 225.003 235.377 223.388 236.94 221.43 237.758 219.755 238.457 217.481 239.016 216.376 239 Z" fill="#ffffff" fill-opacity="1" stroke="none"/>
</svg>
