<?xml version="1.0" encoding="UTF-8"?>
<svg width="256px" height="256px" viewBox="0 0 256 256" xmlns="http://www.w3.org/2000/svg" xmlns:xlink="http://www.w3.org/1999/xlink" version="1.1">
 <!-- Generated by Pixelmator Pro 2.3 -->
 <path id="􀻶" d="M70.55 194.464 L135.491 194.464 C141.809 194.464 146.548 192.863 149.708 189.663 152.867 186.463 154.447 181.663 154.447 175.263 L154.447 134.904 109.257 134.904 C107.627 134.904 106.22 134.302 105.038 133.1 103.856 131.897 103.265 130.481 103.265 128.85 103.265 127.178 103.856 125.742 105.038 124.539 106.22 123.336 107.627 122.735 109.257 122.735 L154.447 122.735 154.447 82.498 C154.447 76.139 152.867 71.359 149.708 68.159 146.548 64.959 141.809 63.359 135.491 63.359 L70.55 63.359 C64.231 63.359 59.492 64.959 56.332 68.159 53.173 71.359 51.593 76.139 51.593 82.498 L51.593 175.263 C51.593 181.663 53.173 186.463 56.332 189.663 59.492 192.863 64.231 194.464 70.55 194.464 Z M149.677 128.85 C149.677 130.154 150.136 131.286 151.053 132.244 151.97 133.202 153.081 133.681 154.386 133.681 L172.18 133.681 181.353 133.314 177.011 137.472 167.166 146.706 C166.188 147.562 165.698 148.662 165.698 150.008 165.698 151.271 166.096 152.331 166.891 153.188 167.686 154.044 168.715 154.472 169.979 154.472 171.161 154.472 172.241 154.003 173.22 153.065 L193.155 132.397 C193.766 131.785 194.184 131.194 194.408 130.623 194.632 130.053 194.745 129.461 194.745 128.85 194.745 128.238 194.632 127.647 194.408 127.077 194.184 126.506 193.766 125.915 193.155 125.303 L173.22 104.635 C172.241 103.656 171.161 103.167 169.979 103.167 168.715 103.167 167.686 103.585 166.891 104.421 166.096 105.256 165.698 106.306 165.698 107.57 165.698 108.956 166.188 110.077 167.166 110.933 L177.011 120.228 181.353 124.386 172.18 123.958 154.386 123.958 C153.081 123.958 151.97 124.447 151.053 125.426 150.136 126.404 149.677 127.545 149.677 128.85 Z" fill="#000000" fill-opacity="1" stroke="none"/>
</svg>
