<?xml version="1.0" encoding="UTF-8"?>
<svg width="256px" height="256px" viewBox="0 0 256 256" xmlns="http://www.w3.org/2000/svg" xmlns:xlink="http://www.w3.org/1999/xlink" version="1.1">
 <!-- Generated by Pixelmator Pro 2.3 -->
 <path id="arrow-right-from-bracket-solid" d="M86.002 192.764 L60.001 192.764 C52.823 192.764 47.001 186.942 47.001 179.763 L47.001 75.76 C47.001 68.581 52.823 62.76 60.001 62.76 L86.002 62.76 C93.181 62.76 99.002 56.938 99.002 49.759 99.002 42.58 93.193 36.759 86.002 36.759 L60.001 36.759 C38.461 36.759 21 54.22 21 75.76 L21 179.763 C21 201.303 38.461 218.764 60.001 218.764 L86.002 218.764 C93.181 218.764 99.002 212.943 99.002 205.764 99.002 198.585 93.193 192.764 86.002 192.764 Z M225.188 118.58 L173.186 66.578 C168.104 61.496 159.877 61.504 154.803 66.578 149.724 71.657 149.724 79.884 154.803 84.962 L184.643 114.761 99.002 114.761 C91.812 114.761 86.002 120.571 86.002 127.762 86.002 134.952 91.816 140.762 99.002 140.762 L184.643 140.762 154.831 170.574 C149.753 175.652 149.753 183.879 154.831 188.957 159.909 194.035 168.136 194.035 173.215 188.957 L225.216 136.955 C230.266 131.865 230.266 123.658 225.188 118.58 Z" fill="#000000" fill-opacity="1" stroke="none"/>
</svg>
