<?xml version="1.0" encoding="UTF-8"?>
<svg width="256px" height="256px" viewBox="0 0 256 256" xmlns="http://www.w3.org/2000/svg" xmlns:xlink="http://www.w3.org/1999/xlink" version="1.1">
 <!-- Generated by Pixelmator Pro 2.3 -->
 <path id="􀙋" d="M30.768 203.821 C30.768 207.095 31.661 209.625 33.446 211.411 35.232 213.196 37.732 214.089 40.946 214.089 43.149 214.089 45.649 213.315 48.446 211.768 L85.946 191.5 85.946 43.554 C85.173 43.911 84.339 44.313 83.446 44.759 82.554 45.205 81.72 45.667 80.946 46.143 L38.625 70.429 C35.946 71.917 33.967 73.747 32.688 75.92 31.408 78.092 30.768 80.667 30.768 83.643 Z M98.179 189.804 L143.179 215.071 C143.893 215.429 144.592 215.756 145.277 216.054 145.961 216.351 146.631 216.589 147.286 216.768 L147.286 71.054 103.179 44.089 C102.405 43.613 101.586 43.196 100.723 42.839 99.86 42.482 99.012 42.214 98.179 42.036 Z M159.429 216.5 C159.905 216.381 160.366 216.217 160.813 216.009 161.259 215.801 161.69 215.577 162.107 215.339 L208.625 188.911 C211.304 187.423 213.283 185.592 214.563 183.42 215.842 181.247 216.482 178.673 216.482 175.696 L216.482 55.429 C216.482 52.155 215.589 49.625 213.804 47.839 212.018 46.054 209.518 45.161 206.304 45.161 204.101 45.161 201.601 45.935 198.804 47.482 L159.429 69.357 Z" fill="#000000" fill-opacity="1" stroke="none"/>
</svg>
