<?xml version="1.0" encoding="UTF-8"?>
<svg width="1200px" height="1200px" viewBox="0 0 1200 1200" xmlns="http://www.w3.org/2000/svg" xmlns:xlink="http://www.w3.org/1999/xlink" version="1.1">
 <!-- Generated by Pixelmator Pro 2.3 -->
 <g id="noPudoYet">
  <path id="Path" d="M486.358 636.433 C325.275 598.164 225.359 435.98 263.628 274.896 301.897 113.813 464.082 13.897 625.165 52.166 720.116 74.827 798.176 142.138 834.555 232.724 L831.327 234.021 C795.37 144.482 718.214 77.948 624.361 55.549 465.145 17.724 304.837 116.484 267.012 275.7 229.186 434.917 327.946 595.224 487.162 633.05 577.007 654.704 671.806 632.986 743.263 574.377 L745.457 577.073 C673.164 636.369 577.254 658.342 486.358 636.433 Z" fill="#e6e6e6" fill-opacity="1" stroke="none"/>
  <path id="Path-1" d="M1028.701 466.09 L788.031 466.09 C774.983 466.09 764.367 451.342 764.367 433.215 L764.367 185.95 C764.367 167.823 774.983 153.075 788.031 153.075 L1081.152 153.075 C1094.2 153.075 1104.816 167.823 1104.816 185.95 L1104.816 360.345 C1104.816 418.654 1070.671 466.09 1028.701 466.09 Z" fill="#f2f2f2" fill-opacity="1" stroke="none"/>
  <path id="Path-2" d="M592.781 1003.528 L611.974 1003.528 630.627 859.173 587.156 859.173 Z" fill="#a0616a" fill-opacity="1" stroke="none"/>
  <path id="Path-3" d="M586.518 990.384 L617.181 988.554 617.181 1001.691 646.332 1021.824 C649.288 1023.864 650.573 1027.59 649.504 1031.018 648.435 1034.447 645.261 1036.783 641.669 1036.782 L605.165 1036.782 598.873 1023.788 596.416 1036.782 582.652 1036.782 Z" fill="#2f2e41" fill-opacity="1" stroke="none"/>
  <path id="Path-4" d="M307.795 957.746 L325.305 965.604 401.425 841.537 361.766 823.741 Z" fill="#a0616a" fill-opacity="1" stroke="none"/>
  <path id="Path-5" d="M307.462 943.189 L336.186 954.073 330.807 966.059 349.16 996.362 C351.021 999.434 350.668 1003.359 348.289 1006.05 345.911 1008.74 342.058 1009.571 338.782 1008.101 L305.477 993.154 305.057 978.723 297.495 989.573 284.938 983.937 Z" fill="#2f2e41" fill-opacity="1" stroke="none"/>
  <path id="Path-6" d="M445.884 544.203 L534.662 532.166 C534.662 532.166 648.793 796.117 644.015 931.095 L571.589 940.03 C571.589 940.03 572.141 884.681 576.158 880.447 580.176 876.213 585.132 881.598 580.176 869.488 575.22 857.379 571.243 854.319 577.196 848.414 583.15 842.51 512.717 739.237 512.717 739.237 512.717 739.237 401.891 878.633 395.943 882.598 389.995 886.563 383.238 887.438 387.112 897.409 390.987 907.38 384.044 926.486 384.044 926.486 384.044 926.486 340.369 919.861 322.526 876.245 322.526 876.245 394.676 744.805 401.226 742.623 407.775 740.442 410.749 751.346 407.775 740.442 404.801 729.538 398.854 733.503 404.801 729.538 408.807 726.98 413.142 724.98 417.688 723.59 L440.766 662.577 C422.974 621.769 424.113 582.271 445.884 544.203 Z" fill="#2f2e41" fill-opacity="1" stroke="none"/>
  <path id="Path-7" d="M445.033 474.357 L448.292 504.58 446.374 544.213 534.158 533.783 542.407 474.357 531.898 474.46 Z" fill="#ffb6b6" fill-opacity="1" stroke="none"/>
  <path id="Path-8" d="M519.703 376.735 L486.665 350.653 469.323 349.645 443.589 366.13 437.288 398.276 422.386 434.475 444.244 532.166 C444.244 532.166 446.294 539.176 440.922 540.018 435.549 540.86 436.194 551.193 436.194 551.193 436.194 551.193 437.288 560.148 432.071 560.937 426.855 561.726 412.945 561.726 425.116 577.375 437.288 593.025 535.869 533.713 535.869 533.713 L547.542 460.468 C547.542 460.468 574.659 424.046 545.456 403.186 Z" fill="#a0b92c" fill-opacity="1" stroke="none"/>
  <path id="Path-9" d="M375.478 598.537 C372.531 594.86 371.364 590.066 372.292 585.446 373.219 580.826 376.146 576.854 380.283 574.598 L421.839 435.136 447.824 448.219 402.569 581.891 C405.971 589.255 403.328 598 396.417 602.247 389.505 606.494 380.51 604.9 375.478 598.537 Z" fill="#a0616a" fill-opacity="1" stroke="none"/>
  <path id="Path-10" d="M449.557 364.84 C449.557 364.84 442.129 360.892 437.048 377.975 432.981 391.651 399.976 473.111 399.555 492.916 393.967 494.1 389.891 498.918 389.65 504.624 L430.458 510.093 C437.589 504.078 439.46 495.955 436.701 493.544 L445.561 469.345 482.526 392.351 454.977 367.598 Z" fill="#a0b92c" fill-opacity="1" stroke="none"/>
  <path id="Path-11" d="M667.608 552.696 C668.674 548.106 667.653 543.279 664.819 539.514 661.985 535.75 657.629 533.433 652.923 533.189 L557.594 424.316 537.372 448.445 635.983 549.402 C636.099 557.513 642.264 564.256 650.332 565.096 658.4 565.937 665.822 560.609 667.607 552.696 Z" fill="#a0616a" fill-opacity="1" stroke="none"/>
  <path id="Path-12" d="M499.753 374.015 C499.753 374.015 504.743 367.243 516.711 380.449 526.293 391.021 591.279 450.198 600.224 467.873 605.773 466.525 611.532 469.106 614.217 474.147 L579.787 496.725 C570.757 494.386 565.557 487.87 567.002 484.503 L548.548 466.515 481.923 413.078 496.058 378.846 Z" fill="#a0b92c" fill-opacity="1" stroke="none"/>
  <path id="Path-13" d="M516.666 351.954 C520.491 346.459 487.436 333.47 481.037 335.939 467.909 341.034 452.399 351.919 440.331 353.467 440.562 348.678 440.135 343.881 439.062 339.208 437.758 343.956 436.471 348.72 435.167 353.484 423.778 351.867 404.807 332.775 409.467 288.73 411.397 270.595 424.699 251.311 468.17 244.164 508.302 237.592 518.091 267.378 521.847 286.835 530.402 331.019 526.177 351.276 516.666 351.954 Z" fill="#2f2e41" fill-opacity="1" stroke="none"/>
  <path id="Path-14" d="M515.266 300.044 C515.266 319.904 499.166 336.004 479.306 336.004 459.446 336.004 443.346 319.904 443.346 300.044 443.346 280.183 459.446 264.083 479.306 264.083 499.166 264.083 515.266 280.183 515.266 300.044 Z" fill="#a0616a" fill-opacity="1" stroke="none"/>
  <path id="Path-15" d="M527.707 287.212 L510.481 289.844 C502.884 285.086 499.991 278.026 499.63 269.727 L501.362 291.238 493.129 292.496 C487.756 288.911 485.354 285.028 486.799 280.761 L487.81 293.309 C465.865 301.216 444.593 307.047 426.634 302.658 424.765 290.431 427.83 277.962 435.155 267.994 442.48 258.027 453.464 251.378 465.692 249.509 L474.558 248.154 C486.785 246.285 499.254 249.351 509.222 256.675 519.189 264 525.838 274.985 527.707 287.212 Z" fill="#2f2e41" fill-opacity="1" stroke="none"/>
  <path id="Path-16" d="M211.634 1003.567 C209.586 1003.661 207.698 1002.465 206.907 1000.574 206.116 998.682 206.591 996.498 208.097 995.106 L208.431 993.776 C208.387 993.67 208.343 993.563 208.298 993.457 206.238 988.592 201.46 985.439 196.177 985.459 190.895 985.478 186.14 988.667 184.117 993.547 180.162 1003.072 175.126 1012.614 173.887 1022.685 173.34 1027.137 173.571 1031.65 174.567 1036.023 165.278 1015.76 160.455 993.737 160.423 971.446 160.422 965.852 160.732 960.262 161.354 954.703 161.868 950.146 162.582 945.622 163.494 941.13 168.473 916.755 179.163 893.909 194.685 874.468 202.198 870.369 208.274 864.065 212.094 856.406 213.478 853.653 214.456 850.714 214.998 847.681 214.15 847.792 211.802 834.885 212.442 834.093 211.261 832.301 209.147 831.41 207.857 829.661 201.441 820.963 192.603 822.482 187.989 834.301 178.132 839.276 178.036 847.526 184.085 855.461 187.932 860.51 188.461 867.34 191.837 872.745 191.49 873.19 191.129 873.62 190.781 874.065 184.432 882.229 178.898 890.997 174.259 900.241 175.387 889.885 174.04 879.409 170.33 869.675 166.569 860.603 159.521 852.963 153.314 845.12 145.858 835.7 130.569 839.811 129.256 851.752 129.243 851.868 129.231 851.984 129.218 852.099 130.14 852.619 131.043 853.171 131.926 853.755 134.196 855.272 135.303 858.027 134.712 860.693 134.122 863.359 131.955 865.389 129.256 865.805 L129.121 865.826 C129.45 869.149 130.03 872.442 130.858 875.677 122.895 906.472 140.086 917.688 164.633 918.191 165.175 918.469 165.703 918.747 166.245 919.011 161.584 932.22 158.66 945.979 157.548 959.942 156.918 968.18 156.955 976.455 157.659 984.687 L157.617 984.395 C155.839 975.241 150.956 966.982 143.793 961.012 133.154 952.273 118.124 949.054 106.647 942.03 104.157 940.431 100.964 940.423 98.466 942.01 95.968 943.597 94.618 946.489 95.007 949.423 95.022 949.526 95.038 949.628 95.054 949.73 96.765 950.427 98.431 951.23 100.042 952.134 100.964 952.654 101.866 953.206 102.749 953.79 105.02 955.307 106.126 958.062 105.535 960.728 104.945 963.394 102.778 965.424 100.079 965.84 L99.944 965.86 C99.847 965.874 99.764 965.888 99.667 965.902 102.59 972.882 106.693 979.307 111.796 984.895 116.775 1011.777 138.16 1014.328 161.035 1006.499 L161.049 1006.499 C163.559 1017.406 167.195 1028.022 171.9 1038.177 L210.663 1038.177 C210.802 1037.746 210.927 1037.302 211.052 1036.871 207.464 1037.096 203.862 1036.882 200.326 1036.232 203.202 1032.703 206.078 1029.146 208.954 1025.617 209.018 1025.551 209.079 1025.482 209.135 1025.409 210.594 1023.603 212.066 1021.81 213.525 1020.004 L213.526 1020.002 C213.604 1014.466 212.968 1008.942 211.636 1003.568 Z" fill="#f2f2f2" fill-opacity="1" stroke="none"/>
  <path id="Path-17" d="M96.388 1041.466 L1099.255 1042 C1099.996 1042.002 1100.682 1041.608 1101.053 1040.967 1101.424 1040.325 1101.424 1039.534 1101.053 1038.893 1100.682 1038.251 1099.996 1037.857 1099.255 1037.859 L96.388 1037.325 C95.249 1037.331 94.328 1038.256 94.328 1039.395 94.328 1040.534 95.249 1041.46 96.388 1041.466 Z" fill="#cacaca" fill-opacity="1" stroke="none"/>
  <path id="Path-18" d="M993.348 559.552 L668.3 559.552 C655.237 559.537 644.651 548.951 644.636 535.889 L644.636 233.815 C644.651 220.753 655.237 210.167 668.299 210.151 L993.348 210.151 C1006.41 210.167 1016.996 220.752 1017.011 233.815 L1017.011 535.889 C1016.996 548.951 1006.411 559.537 993.348 559.552 Z" fill="#e6e6e6" fill-opacity="1" stroke="none"/>
  <path id="Path-19" d="M924.935 543.591 L684.265 543.591 C671.202 543.576 660.617 532.99 660.601 519.927 L660.601 249.789 C660.616 236.727 671.202 226.141 684.265 226.125 L977.386 226.125 C990.449 226.141 1001.035 236.726 1001.05 249.789 L1001.05 467.475 C1001.004 509.491 966.955 543.542 924.937 543.591 Z" fill="#ffffff" fill-opacity="1" stroke="none"/>
  <path id="Path-20" d="M797.03 316.26 C797.03 335.48 781.456 351.054 762.244 351.054 743.033 351.054 727.459 335.48 727.459 316.269 727.459 297.057 743.033 281.484 762.244 281.484 771.464 281.471 780.319 285.131 786.846 291.655 793.373 298.179 797.037 307.031 797.03 316.26 Z" fill="#a0b92c" fill-opacity="1" stroke="none"/>
  <path id="Path-21" d="M829.735 389.934 L829.735 392.041 C829.735 396.909 825.788 400.856 820.92 400.856 L736.402 400.856 C731.534 400.856 727.587 396.909 727.587 392.041 L727.587 387.828 C727.587 382.959 731.534 379.013 736.402 379.013 L820.92 379.013 C825.788 379.013 829.735 382.959 829.735 387.828 Z" fill="#3f3d56" fill-opacity="1" stroke="none"/>
  <path id="Path-22" d="M933.777 433.621 L933.777 435.727 C933.777 440.596 929.83 444.542 924.962 444.542 L736.689 444.542 C731.821 444.542 727.874 440.596 727.874 435.727 L727.874 431.514 C727.874 426.646 731.821 422.699 736.689 422.699 L924.962 422.699 C929.83 422.699 933.777 426.646 933.777 431.514 Z" fill="#3f3d56" fill-opacity="1" stroke="none"/>
  <path id="Path-23" d="M933.777 477.307 L933.777 479.413 C933.777 484.282 929.83 488.228 924.962 488.228 L736.689 488.228 C731.821 488.228 727.874 484.282 727.874 479.413 L727.874 475.2 C727.874 470.332 731.821 466.385 736.689 466.385 L924.962 466.385 C929.83 466.385 933.777 470.332 933.777 475.2 Z" fill="#3f3d56" fill-opacity="1" stroke="none"/>
  <path id="Path-24" d="M775.183 309.129 C775.183 315.852 769.734 321.301 763.011 321.301 756.289 321.301 750.84 315.852 750.84 309.129 750.84 302.407 756.289 296.958 763.011 296.958 769.734 296.958 775.183 302.407 775.183 309.129 Z" fill="#ffffff" fill-opacity="1" stroke="none"/>
  <path id="Path-25" d="M776.059 325.65 L749.977 325.65 C746.617 325.653 743.895 328.376 743.891 331.736 744.262 336.948 745.077 342.119 746.326 347.194 756.959 352.673 769.663 352.299 779.955 346.203 781.071 341.447 781.804 336.609 782.145 331.736 782.142 328.376 779.419 325.653 776.059 325.65 Z" fill="#ffffff" fill-opacity="1" stroke="none"/>
  <path id="Path-26" d="M961.836 284.913 C952.54 284.913 944.159 279.314 940.601 270.725 937.044 262.137 939.01 252.251 945.584 245.677 952.157 239.104 962.043 237.138 970.631 240.695 979.22 244.253 984.82 252.634 984.819 261.93 984.819 274.623 974.529 284.913 961.836 284.913 Z" fill="#e6e6e6" fill-opacity="1" stroke="none"/>
  <path id="Path-27" d="M969.851 266.739 L965.042 261.93 969.851 257.12 C970.424 256.547 970.648 255.713 970.438 254.93 970.229 254.148 969.617 253.537 968.835 253.327 968.053 253.117 967.218 253.341 966.645 253.914 L961.836 258.723 957.026 253.914 C956.453 253.341 955.618 253.117 954.836 253.327 954.053 253.537 953.442 254.148 953.233 254.93 953.023 255.713 953.247 256.547 953.819 257.12 L958.629 261.93 953.819 266.739 C953.247 267.312 953.023 268.147 953.233 268.929 953.442 269.712 954.053 270.323 954.836 270.532 955.618 270.742 956.453 270.518 957.026 269.946 L961.835 265.136 966.645 269.945 C967.218 270.518 968.052 270.742 968.835 270.532 969.617 270.323 970.228 269.711 970.438 268.929 970.648 268.147 970.424 267.312 969.851 266.739 Z" fill="#ffffff" fill-opacity="1" stroke="none"/>
 </g>
</svg>
