<?xml version="1.0" encoding="UTF-8"?>
<svg width="256px" height="256px" viewBox="0 0 256 256" xmlns="http://www.w3.org/2000/svg" xmlns:xlink="http://www.w3.org/1999/xlink" version="1.1">
 <!-- Generated by Pixelmator Pro 2.3 -->
 <path id="ô€›" d="M129.5 217.5 C129.778 217.444 130.056 217.347 130.333 217.208 130.611 217.069 130.889 216.917 131.167 216.75 L196.417 179.583 C200.306 177.361 203.264 174.819 205.292 171.958 207.319 169.097 208.333 164.639 208.333 158.583 L208.333 93.667 C208.333 91.111 208.111 89 207.667 87.333 L129.5 132 Z M118.083 217.5 L118.083 132 39.917 87.333 C39.472 89 39.25 91.111 39.25 93.667 L39.25 158.583 C39.25 164.639 40.278 169.097 42.333 171.958 44.389 174.819 47.333 177.361 51.167 179.583 L116.5 216.75 C116.778 216.917 117.042 217.069 117.292 217.208 117.542 217.347 117.806 217.444 118.083 217.5 Z M123.833 122 L159.417 101.833 80.5 56.75 49.917 74.167 C48.028 75.222 46.472 76.306 45.25 77.417 Z M171 95.25 L202.333 77.417 C201.111 76.306 199.583 75.222 197.75 74.167 L138.917 40.667 C133.75 37.667 128.722 36.167 123.833 36.167 118.889 36.167 113.833 37.667 108.667 40.667 L91.75 50.25 Z" fill="#000000" fill-opacity="1" stroke="none"/>
</svg>
