<?xml version="1.0" encoding="UTF-8"?>
<svg width="256px" height="256px" viewBox="0 0 256 256" xmlns="http://www.w3.org/2000/svg" xmlns:xlink="http://www.w3.org/1999/xlink" version="1.1">
 <!-- Generated by Pixelmator Pro 2.3 -->
 <path id="box-heart-solid" d="M117.661 36 L117.661 88.714 32 88.714 52.892 46.926 C56.24 40.229 63.085 36 70.576 36 Z M177.911 36 C185.407 36 192.243 40.229 195.62 46.926 L216.5 88.714 130.839 88.714 130.839 36 Z M32 101.893 L216.5 101.893 216.5 194.143 C216.5 208.68 204.68 220.5 190.143 220.5 L58.357 220.5 C43.799 220.5 32 208.68 32 194.143 Z M128.904 196.078 L160.738 164.244 C169.181 155.801 169.181 142.129 160.738 133.645 152.296 125.202 138.582 125.202 130.139 133.645 L124.25 139.534 118.361 133.645 C109.918 125.202 96.204 125.202 87.762 133.645 79.319 142.129 79.319 155.801 87.762 164.244 L119.596 196.078 C122.15 198.632 126.35 198.632 128.904 196.078 Z" fill="#000000" fill-opacity="1" stroke="none"/>
</svg>
