<?xml version="1.0" encoding="UTF-8"?>
<svg width="256px" height="256px" viewBox="0 0 256 256" xmlns="http://www.w3.org/2000/svg" xmlns:xlink="http://www.w3.org/1999/xlink" version="1.1">
 <!-- Generated by Pixelmator Pro 2.3 -->
 <path id="􀌾" d="M180.078 235.042 C169.648 235.042 158.616 232.926 146.982 228.696 135.349 224.465 123.479 218.284 111.371 210.151 99.263 202.018 87.337 192.118 75.594 180.448 63.851 168.705 53.914 156.76 45.781 144.616 37.649 132.472 31.485 120.565 27.291 108.895 23.097 97.225 21 86.175 21 75.745 21 66.263 22.387 58.168 25.158 51.458 27.93 44.747 32.415 38.62 38.615 33.077 39.053 32.712 39.508 32.329 39.982 31.928 40.457 31.527 40.912 31.106 41.35 30.669 48.716 24.104 55.864 20.896 62.793 21.042 66.732 21.115 70.525 22.301 74.172 24.598 77.819 26.896 81.357 30.487 84.785 35.374 L106.885 67.212 C110.24 72.098 111.954 77.258 112.027 82.692 112.1 88.126 109.839 93.14 105.244 97.735 L96.928 106.161 C95.688 107.401 94.995 108.585 94.85 109.715 94.704 110.846 94.995 112.032 95.725 113.272 97.183 115.606 99.025 118.14 101.25 120.876 103.475 123.611 105.918 126.437 108.58 129.354 111.242 132.272 113.995 135.152 116.84 137.997 119.539 140.695 122.53 143.523 125.813 146.477 129.095 149.431 132.248 152.148 135.275 154.628 138.302 157.107 140.8 158.968 142.77 160.208 144.009 161.01 145.196 161.338 146.326 161.192 147.457 161.046 148.641 160.354 149.881 159.114 L158.307 150.688 C162.902 146.166 167.916 143.941 173.35 144.014 178.784 144.087 183.943 145.802 188.83 149.157 L220.668 171.256 C225.555 174.612 229.164 178.132 231.498 181.815 233.832 185.498 235 189.31 235 193.249 235 196.677 234.217 200.195 232.648 203.805 231.08 207.416 228.655 211.045 225.373 214.692 224.935 215.13 224.514 215.585 224.113 216.059 223.712 216.533 223.293 216.989 222.855 217.426 217.312 223.699 211.185 228.203 204.475 230.938 197.764 233.673 189.633 235.042 180.078 235.042 Z" fill="#000000" fill-opacity="1" stroke="none"/>
</svg>
