<?xml version="1.0" encoding="UTF-8"?>
<svg width="256px" height="256px" viewBox="0 0 256 256" xmlns="http://www.w3.org/2000/svg" xmlns:xlink="http://www.w3.org/1999/xlink" version="1.1">
 <!-- Generated by Pixelmator Pro 2.3 -->
 <path id="􀌾" d="M180.078 235.042 C189.633 235.042 197.765 233.674 204.475 230.939 211.186 228.204 217.313 223.7 222.856 217.427 223.293 216.989 223.713 216.534 224.114 216.059 224.515 215.585 224.935 215.13 225.372 214.692 228.654 211.045 231.08 207.416 232.648 203.806 234.216 200.195 235 196.676 235 193.248 235 189.309 233.833 185.499 231.499 181.815 229.165 178.132 225.555 174.613 220.668 171.257 L188.83 149.157 C183.943 145.802 178.783 144.088 173.349 144.015 167.915 143.942 162.901 146.167 158.306 150.689 L149.881 159.113 C148.641 160.353 147.456 161.046 146.326 161.192 145.195 161.338 144.01 161.01 142.77 160.207 140.801 158.967 138.303 157.107 135.276 154.627 132.249 152.148 129.094 149.431 125.812 146.477 122.53 143.523 119.539 140.696 116.84 137.998 113.996 135.153 111.243 132.272 108.58 129.354 105.918 126.437 103.475 123.611 101.25 120.875 99.025 118.14 97.184 115.606 95.725 113.272 94.996 112.032 94.704 110.846 94.85 109.716 94.996 108.585 95.688 107.4 96.928 106.16 L105.243 97.736 C109.838 93.141 112.1 88.126 112.027 82.692 111.954 77.259 110.24 72.098 106.884 67.211 L84.784 35.374 C81.356 30.487 77.819 26.895 74.172 24.597 70.525 22.3 66.732 21.115 62.793 21.042 55.864 20.896 48.716 24.105 41.35 30.669 40.912 31.107 40.456 31.526 39.982 31.928 39.508 32.329 39.052 32.712 38.615 33.076 32.415 38.62 27.929 44.746 25.157 51.457 22.386 58.167 21 66.263 21 75.745 21 86.175 23.097 97.225 27.291 108.895 31.485 120.566 37.648 132.473 45.781 144.617 53.913 156.761 63.851 168.704 75.594 180.448 87.337 192.118 99.262 202.019 111.37 210.152 123.478 218.284 135.348 224.466 146.982 228.696 158.616 232.926 169.648 235.042 180.078 235.042 Z M180.187 218.193 C170.924 218.412 160.968 216.37 150.319 212.066 139.67 207.763 129.021 201.873 118.372 194.397 107.723 186.921 97.658 178.478 88.176 169.069 78.694 159.587 70.106 149.394 62.411 138.49 54.716 127.586 48.644 116.718 44.194 105.887 39.745 95.055 37.593 85.008 37.739 75.745 37.885 69.691 39.016 64.13 41.131 59.061 43.246 53.991 46.455 49.597 50.759 45.877 51.123 45.512 51.47 45.202 51.798 44.947 52.126 44.692 52.473 44.418 52.837 44.126 54.442 42.741 56.101 41.665 57.815 40.899 59.529 40.133 61.189 39.75 62.793 39.75 66.294 39.75 68.993 41.245 70.89 44.236 L92.115 76.073 C93.282 77.824 93.847 79.611 93.81 81.434 93.774 83.258 92.917 85.008 91.239 86.686 L81.611 96.314 C77.819 100.033 75.922 104.063 75.922 108.403 75.922 112.743 77.308 116.736 80.08 120.383 83.216 124.614 87.191 129.464 92.005 134.934 96.819 140.405 101.341 145.218 105.572 149.376 108.343 152.148 111.534 155.193 115.145 158.511 118.755 161.83 122.366 165.039 125.976 168.139 129.586 171.239 132.814 173.847 135.658 175.962 139.305 178.661 143.28 180.028 147.584 180.065 151.887 180.101 155.935 178.223 159.728 174.43 L169.356 164.802 C171.033 163.052 172.784 162.177 174.607 162.177 176.431 162.177 178.218 162.724 179.968 163.818 L211.806 185.043 C213.41 186.137 214.559 187.377 215.252 188.762 215.945 190.148 216.291 191.643 216.291 193.248 216.291 196.53 214.833 199.849 211.915 203.204 211.623 203.569 211.35 203.915 211.095 204.244 210.839 204.572 210.529 204.918 210.165 205.283 206.445 209.586 202.032 212.796 196.926 214.911 191.821 217.026 186.241 218.12 180.187 218.193 Z" fill="#000000" fill-opacity="1" stroke="none"/>
</svg>
