<?xml version="1.0" encoding="UTF-8"?>
<svg width="256px" height="256px" viewBox="0 0 256 256" xmlns="http://www.w3.org/2000/svg" xmlns:xlink="http://www.w3.org/1999/xlink" version="1.1">
 <!-- Generated by Pixelmator Pro 2.3 -->
 <defs>
  <path id="􀎫" d="M102.191 85.4 C102.191 88.92 102.921 92.181 104.381 95.182 105.842 98.183 107.852 100.743 110.413 102.864 112.973 104.984 115.874 106.445 119.115 107.245 L119.115 145.234 C119.115 149.675 119.295 153.596 119.655 156.996 120.015 160.397 120.475 163.258 121.035 165.578 121.595 167.899 122.195 169.649 122.836 170.83 123.476 172.01 124.096 172.6 124.696 172.6 125.296 172.6 125.926 172.01 126.586 170.83 127.247 169.649 127.847 167.899 128.387 165.578 128.927 163.258 129.377 160.397 129.737 156.996 130.097 153.596 130.277 149.675 130.277 145.234 L130.277 107.245 C133.518 106.445 136.419 104.984 138.979 102.864 141.54 100.743 143.56 98.183 145.041 95.182 146.521 92.181 147.261 88.92 147.261 85.4 147.261 81.239 146.251 77.448 144.231 74.027 142.21 70.606 139.499 67.875 136.099 65.835 132.698 63.794 128.897 62.774 124.696 62.774 120.535 62.774 116.754 63.794 113.353 65.835 109.952 67.875 107.242 70.606 105.221 74.027 103.201 77.448 102.191 81.239 102.191 85.4 Z M118.274 86.6 C116.234 86.6 114.444 85.83 112.903 84.289 111.363 82.749 110.593 80.939 110.593 78.858 110.593 76.778 111.363 74.977 112.903 73.457 114.444 71.936 116.234 71.176 118.274 71.176 120.395 71.176 122.215 71.936 123.736 73.457 125.256 74.977 126.016 76.778 126.016 78.858 126.016 80.939 125.256 82.749 123.736 84.289 122.215 85.83 120.395 86.6 118.274 86.6 Z M124.756 194.565 C133.798 194.565 141.85 193.855 148.912 192.435 155.973 191.014 161.945 189.094 166.826 186.673 171.707 184.253 175.408 181.512 177.929 178.452 180.449 175.391 181.709 172.2 181.709 168.879 181.709 165.719 180.819 162.808 179.039 160.147 177.258 157.487 174.868 155.116 171.867 153.036 168.866 150.955 165.536 149.185 161.875 147.724 158.214 146.264 154.493 145.144 150.712 144.363 146.931 143.583 143.38 143.193 140.06 143.193 L140.06 151.955 C142.98 151.995 146.131 152.405 149.512 153.186 152.893 153.966 156.103 155.036 159.144 156.396 162.185 157.757 164.685 159.377 166.646 161.257 168.606 163.138 169.587 165.198 169.587 167.439 169.587 170.04 168.466 172.41 166.226 174.551 163.985 176.691 160.855 178.552 156.834 180.132 152.813 181.712 148.072 182.933 142.61 183.793 137.149 184.653 131.198 185.083 124.756 185.083 118.274 185.083 112.303 184.653 106.842 183.793 101.38 182.933 96.639 181.722 92.618 180.162 88.597 178.602 85.477 176.741 83.256 174.581 81.036 172.42 79.925 170.04 79.925 167.439 79.925 165.198 80.896 163.138 82.836 161.257 84.777 159.377 87.267 157.757 90.308 156.396 93.349 155.036 96.569 153.966 99.97 153.186 103.371 152.405 106.512 151.995 109.392 151.955 L109.392 143.193 C106.112 143.193 102.581 143.583 98.8 144.363 95.019 145.144 91.298 146.264 87.637 147.724 83.976 149.185 80.646 150.955 77.645 153.036 74.644 155.116 72.244 157.487 70.443 160.147 68.643 162.808 67.743 165.719 67.743 168.879 67.743 172.2 69.013 175.391 71.553 178.452 74.094 181.512 77.805 184.253 82.686 186.673 87.567 189.094 93.539 191.014 100.6 192.435 107.662 193.855 115.714 194.565 124.756 194.565 Z"/>
 </defs>
 <use id="􀎫-1" xlink:href="#􀎫" fill="#000000" fill-opacity="1" stroke="none"/>
 <use id="􀎫-2" xlink:href="#􀎫" fill="#000000" fill-opacity="1" stroke="none"/>
</svg>
