<?xml version="1.0" encoding="UTF-8"?>
<svg width="256px" height="256px" viewBox="0 0 256 256" xmlns="http://www.w3.org/2000/svg" xmlns:xlink="http://www.w3.org/1999/xlink" version="1.1">
 <!-- Generated by Pixelmator Pro 2.3 -->
 <path id="􀈂" d="M67.529 231.498 L179.467 231.498 C189.681 231.498 197.342 228.961 202.45 223.886 207.557 218.811 210.11 211.264 210.11 201.245 L210.11 103.848 C210.11 93.829 207.557 86.282 202.45 81.207 197.342 76.132 189.681 73.595 179.467 73.595 L152.239 73.595 152.239 89.307 179.174 89.307 C183.989 89.307 187.729 90.609 190.397 93.211 193.065 95.813 194.398 99.652 194.398 104.727 L194.398 200.366 C194.398 205.441 193.065 209.28 190.397 211.882 187.729 214.485 183.989 215.786 179.174 215.786 L67.725 215.786 C62.845 215.786 59.104 214.485 56.502 211.882 53.899 209.28 52.598 205.441 52.598 200.366 L52.598 104.727 C52.598 99.652 53.899 95.813 56.502 93.211 59.104 90.609 62.845 89.307 67.725 89.307 L94.757 89.307 94.757 73.595 67.529 73.595 C57.315 73.595 49.654 76.116 44.547 81.158 39.439 86.201 36.886 93.764 36.886 103.848 L36.886 201.245 C36.886 211.329 39.439 218.892 44.547 223.935 49.654 228.977 57.315 231.498 67.529 231.498 Z M123.449 155.084 C125.596 155.084 127.434 154.336 128.963 152.839 130.492 151.343 131.257 149.554 131.257 147.472 L131.257 47.245 130.671 32.607 137.21 39.536 152.044 55.346 C153.41 56.907 155.167 57.688 157.314 57.688 159.33 57.688 161.022 57.037 162.388 55.736 163.755 54.435 164.438 52.776 164.438 50.759 164.438 48.937 163.657 47.245 162.096 45.684 L129.11 13.869 C128.134 12.893 127.207 12.21 126.328 11.82 125.45 11.429 124.49 11.234 123.449 11.234 122.473 11.234 121.546 11.429 120.668 11.82 119.79 12.21 118.83 12.893 117.789 13.869 L84.803 45.684 C83.307 47.245 82.559 48.937 82.559 50.759 82.559 52.776 83.209 54.435 84.51 55.736 85.812 57.037 87.503 57.688 89.585 57.688 91.797 57.688 93.586 56.907 94.953 55.346 L109.689 39.536 116.325 32.607 115.74 47.245 115.74 147.472 C115.74 149.554 116.504 151.343 118.033 152.839 119.562 154.336 121.367 155.084 123.449 155.084 Z" fill="#000000" fill-opacity="1" stroke="none"/>
</svg>
