<?xml version="1.0" encoding="UTF-8"?>
<svg width="335px" height="288px" viewBox="0 0 335 288" version="1.1" xmlns="http://www.w3.org/2000/svg" xmlns:xlink="http://www.w3.org/1999/xlink">
    <title>undraw_typing_re_d4sq</title>
    <g id="Page-1" stroke="none" stroke-width="1" fill="none" fill-rule="evenodd">
        <g id="Artboard" transform="translate(-1335.000000, -807.000000)" fill-rule="nonzero">
            <g id="First-Row" transform="translate(248.000000, 529.000000)">
                <g id="Phone-Number-Registration" transform="translate(1060.000000, 0.000000)">
                    <g id="undraw_typing_re_d4sq" transform="translate(27.000000, 278.000000)">
                        <path d="M258.173271,201 C256.717058,200.997766 255.511819,199.869145 255.416606,198.41858 L255.006018,192.160474 C254.906143,190.638349 256.061241,189.32359 257.586023,189.223857 L306.701113,186.012956 C308.808374,185.873506 310.829948,186.867503 312.003614,188.620167 C313.177279,190.372831 313.324528,192.617592 312.38984,194.508074 C311.455152,196.398557 309.580688,197.64723 307.473205,197.783289 L258.358265,200.993984 C258.296421,200.997926 258.234757,201 258.173271,201 Z" id="Path" fill="#A0B92C"></path>
                        <path d="M268.097229,202 C266.619269,201.99742 265.406765,200.779345 265.349862,199.240012 L265.001921,189.537841 C264.974675,188.778049 265.238142,188.038098 265.734357,187.48079 C266.230571,186.923482 266.918879,186.594476 267.647842,186.566158 L307.79884,185.002034 C309.316837,184.942972 310.593377,186.177669 310.650138,187.75987 L310.998079,197.46204 C311.025325,198.221832 310.761858,198.961783 310.265643,199.519091 C309.769429,200.076399 309.081121,200.405405 308.352158,200.433723 L268.20116,201.997848 C268.166446,201.999353 268.131633,202 268.097229,202 Z" id="Path" fill="#2F2E41"></path>
                        <path d="M315.190177,288 L308.809819,288 C307.258726,287.998267 306.001755,286.758317 306,285.228229 L306,232.771771 C306.001755,231.241683 307.258726,230.001733 308.809819,230 L315.190177,230 C316.741272,230.001731 317.998245,231.241682 318,232.771771 L318,285.228229 C317.998245,286.758318 316.741272,287.998269 315.190177,288 L315.190177,288 Z" id="Path" fill="#2F2E41"></path>
                        <path d="M300.190177,288 L293.809819,288 C292.258726,287.998267 291.001755,286.758317 291,285.228229 L291,232.771771 C291.001755,231.241683 292.258726,230.001733 293.809819,230 L300.190177,230 C301.741272,230.001731 302.998245,231.241682 303,232.771771 L303,285.228229 C302.998245,286.758318 301.741272,287.998269 300.190177,288 L300.190177,288 Z" id="Path" fill="#2F2E41"></path>
                        <circle id="Oval" fill="#A0B92C" cx="305" cy="154" r="22"></circle>
                        <path d="M293.64595,161.43804 C293.009647,161.203907 292.425488,160.819922 291.932754,160.311905 C291.271935,159.577671 290.934434,158.554098 291.010586,157.515147 C291.052555,156.773846 291.401626,156.097154 291.954105,155.686084 C292.661508,155.17794 293.607637,155.176437 294.570946,155.651829 L294.534483,147.004139 L295.310177,147 L295.353089,157.166273 L294.755377,156.745245 C294.062272,156.257848 293.07244,155.914773 292.373026,156.417298 C292.02268,156.686421 291.804451,157.123108 291.782861,157.59825 C291.729938,158.371896 291.980218,159.133047 292.468534,159.683523 C293.325118,160.599794 294.574851,160.886329 296,161.142373 L295.877055,162 C295.119856,161.887683 294.373169,161.699611 293.64595,161.43804 Z" id="Path" fill="#2F2E41"></path>
                        <polygon id="Rectangle" fill="#2F2E41" transform="translate(287.987859, 147.144425) rotate(-82.476651) translate(-287.987859, -147.144425) " points="287.561127 144.845833 288.41459 144.845833 288.41459 149.443017 287.561127 149.443017"></polygon>
                        <polygon id="Rectangle" fill="#2F2E41" transform="translate(302.373203, 149.042690) rotate(-82.476800) translate(-302.373203, -149.042690) " points="301.946471 146.744094 302.799936 146.744094 302.799936 151.341285 301.946471 151.341285"></polygon>
                        <path d="M319.380389,247 L286.614342,247 C284.944606,246.997899 283.490552,245.863865 283.087525,244.249392 C282.990024,243.818922 282.973818,243.374127 283.039737,242.937747 C283.039737,242.937747 289.440043,207.127056 292.606177,189.928451 C293.558626,184.755422 298.084323,180.998932 303.362881,181 L303.362913,181 C316.417315,181 327,191.544181 327,204.551087 L327,239.408116 C327,241.421611 326.197226,243.352638 324.768271,244.776394 C323.339316,246.200149 321.401236,247 319.380389,247 L319.380389,247 Z" id="Path" fill="#2F2E41"></path>
                        <path d="M312.615801,242.466727 C312.124154,243.443116 311.100715,244.042427 310.001444,243.997654 L303.672255,243.733081 C302.933012,243.702223 302.236411,243.38128 301.735721,242.840868 C301.235032,242.300456 300.971275,241.584851 301.002485,240.851505 L303.091253,191.660819 C303.180823,189.551419 304.397982,187.649658 306.284237,186.671911 C308.170493,185.694163 310.439278,185.788972 312.235963,186.920623 C314.032648,188.052275 315.084274,190.048845 314.994703,192.158244 L312.906171,241.348931 C312.89012,241.737703 312.791154,242.11868 312.615801,242.466727 Z" id="Path" fill="#A0B92C"></path>
                        <path d="M317.003731,228.479361 C316.514944,229.447736 315.49745,230.042112 314.404583,229.99767 L303.656661,229.549561 C302.127039,229.484007 300.939664,228.205501 301.002374,226.691559 L302.707669,186.629407 C302.738564,185.902042 303.060188,185.216621 303.601775,184.723958 C304.143362,184.231295 304.860538,183.971754 305.595503,184.002442 L316.343243,184.450461 C317.078196,184.481073 317.770754,184.799392 318.268539,185.335382 C318.766324,185.871371 319.028553,186.581118 318.99753,187.308463 L317.292421,227.370725 C317.276359,227.756296 317.177971,228.134131 317.003731,228.479361 L317.003731,228.479361 Z" id="Path" fill="#2F2E41"></path>
                        <path d="M303.949549,139.80149 C299.305942,141.685661 292.289414,143.688506 289.227984,138.094651 C288.019446,135.781693 287.83592,133.045691 288.724174,130.583829 C289.648757,127.944711 291.615722,125.770479 293.857167,124.234067 C298.055868,121.356086 303.368373,120.572616 308.258186,121.68495 C310.716969,122.235736 313.050026,123.267401 315.130529,124.723862 C317.495943,126.392277 319.161326,128.644438 320.835295,131.001523 C322.546626,133.411192 324.484492,135.841567 327.29693,136.897255 C329.596418,137.760403 332.479725,137.319772 334.106539,135.311366 C334.486341,134.842337 334.777748,134.304503 334.965798,133.725481 C335.209925,132.987334 334.075457,132.670478 333.832819,133.404096 C332.977931,135.988949 329.831125,136.568229 327.609271,135.731501 C324.676153,134.626932 322.823452,131.75728 321.064417,129.279829 C319.382769,126.911368 317.523491,124.826263 315.094658,123.255272 C312.911333,121.853443 310.493409,120.882174 307.964512,120.391125 C302.873681,119.39468 297.391016,120.277803 293.076684,123.320737 C290.69924,124.92273 288.8364,127.213594 287.723353,129.904098 C286.735207,132.449813 286.760348,135.29338 287.793341,137.820177 C288.846908,140.376683 291.06008,142.232433 293.706221,142.778141 C296.550994,143.371296 299.506549,142.688877 302.206835,141.748353 C302.898695,141.507371 303.582452,141.242939 304.261886,140.967256 C304.95722,140.685117 304.654319,139.515519 303.949538,139.801498 L303.949549,139.80149 Z" id="Path" fill="#2F2E41"></path>
                        <path d="M19.0435411,0 L167.956459,0 C178.469028,0.0118812335 186.988189,8.56282695 187,19.1145912 L187,100.885433 C186.988187,111.437192 178.469023,119.98813 167.956459,120 L19.0435411,120 C8.53097698,119.98813 0.0118130878,111.437192 0,100.885433 L0,19.1145912 C0.0118108866,8.56282695 8.53097224,0.0118812335 19.0435411,0 Z" id="Path" fill="#F2F2F2"></path>
                        <path d="M18.5584302,6 L167.441372,6 C174.926107,6.00842324 180.991595,12.0980467 181,19.6125794 L181,101.38744 C180.991586,108.901966 174.9261,114.991579 167.441372,115 L18.5584302,115 C11.0737696,114.991494 5.0083897,108.901899 5,101.38744 L5,19.6125794 C5.00837881,12.0981133 11.0737619,6.00850645 18.5584302,6 Z" id="Path" fill="#FFFFFF"></path>
                        <path d="M19.4259859,149 C18.9711982,148.998708 18.5211381,148.908199 18.1016032,148.733659 C16.8199608,148.221616 15.9856186,146.980287 16,145.607187 L16,117.271039 L54,116 L21.811443,148.000159 C21.1827198,148.637076 20.3236167,148.997161 19.4259859,149 L19.4259859,149 Z" id="Path" fill="#F2F2F2"></path>
                        <rect id="Rectangle" fill="#F2F2F2" x="29" y="26" width="129" height="16" rx="8"></rect>
                        <rect id="Rectangle" fill="#F2F2F2" x="29" y="52" width="129" height="16" rx="8"></rect>
                        <rect id="Rectangle" fill="#F2F2F2" x="29" y="78" width="129" height="16" rx="8"></rect>
                        <path d="M253.956459,41 L105.043541,41 C94.5309722,41.0118812 86.0118109,49.5628269 86,60.1145912 L86,141.885433 C86.0118131,152.437192 94.530977,160.98813 105.043541,161 L253.956459,161 C264.469023,160.98813 272.988187,152.437192 273,141.885433 L273,60.1145912 C272.988189,49.5628269 264.469028,41.0118812 253.956459,41 Z" id="Path" fill="#E6E6E6"></path>
                        <path d="M254.441566,47 L105.558628,47 C98.0738931,47.0084232 92.0084051,53.0980467 92,60.6125794 L92,142.38744 C92.0084138,149.901966 98.0739,155.991579 105.558628,156 L254.441566,156 C261.926227,155.991494 267.991608,149.901899 268,142.38744 L268,60.6125794 C267.991619,53.0981126 261.926235,47.0085064 254.441566,47 L254.441566,47 Z" id="Path" fill="#FFFFFF"></path>
                        <path d="M243.188554,190.000159 L211,158 L249,159.271039 L249,187.607187 C249.01438,188.980287 248.180039,190.221615 246.898397,190.733659 C246.478861,190.908198 246.028799,190.998708 245.57401,191 C244.67638,190.997161 243.817277,190.637076 243.188554,190.000159 L243.188554,190.000159 Z" id="Path" fill="#E6E6E6"></path>
                        <circle id="Oval" fill="#A0B92C" cx="147.5" cy="101.5" r="10.5"></circle>
                        <circle id="Oval" fill="#A0B92C" cx="179.5" cy="101.5" r="10.5"></circle>
                        <circle id="Oval" fill="#A0B92C" cx="212.5" cy="101.5" r="10.5"></circle>
                    </g>
                </g>
            </g>
        </g>
    </g>
</svg>