<?xml version="1.0" encoding="UTF-8"?>
<svg width="1200px" height="1200px" viewBox="0 0 1200 1200" xmlns="http://www.w3.org/2000/svg" xmlns:xlink="http://www.w3.org/1999/xlink" version="1.1">
 <!-- Generated by Pixelmator Pro 2.3 -->
 <g id="screen2bis">
  <path id="Rectangle-copy" d="M503.93 571.94 L545.328 603.602 513.666 645 472.268 613.338 Z" fill="#f0f0f0" fill-opacity="1" stroke="none"/>
  <path id="Rectangle-copy-1" d="M608.961 685.94 L620.328 694.634 611.634 706 600.268 697.307 Z" fill="#f0f0f0" fill-opacity="1" stroke="none"/>
  <path id="Rectangle-copy-2" d="M694.654 599.94 L720 619.326 700.615 644.672 675.268 625.287 Z" fill="#f0f0f0" fill-opacity="1" stroke="none"/>
  <path id="Rectangle-copy-5" d="M448.64 855.913 L471.329 873.286 453.956 895.975 431.267 878.602 Z" fill="#f0f0f0" fill-opacity="1" stroke="none"/>
  <path id="Rectangle-copy-4" d="M508.961 929.94 L520.328 938.634 511.634 950 500.268 941.307 Z" fill="#f0f0f0" fill-opacity="1" stroke="none"/>
  <path id="Rectangle-copy-3" d="M553.208 871.323 L567.1 881.96 556.463 895.852 542.571 885.215 Z" fill="#f0f0f0" fill-opacity="1" stroke="none"/>
  <path id="Rectangle-copy-8" d="M750.24 734.94 L720.268 757.864 743.191 787.836 773.164 764.912 Z" fill="#f0f0f0" fill-opacity="1" stroke="none"/>
  <path id="Rectangle-copy-7" d="M669.17 849.477 L660.94 855.771 667.234 864 675.464 857.706 Z" fill="#f0f0f0" fill-opacity="1" stroke="none"/>
  <path id="Rectangle-copy-6" d="M585.592 772.212 L567.241 786.248 581.276 804.599 599.627 790.563 Z" fill="#f0f0f0" fill-opacity="1" stroke="none"/>
  <path id="Path-copy" d="M1161.411 1041.971 L39.589 1041.971 C38.711 1041.971 38 1041.303 38 1040.479 38 1039.655 38.711 1038.987 39.589 1038.987 L1161.411 1038.987 C1162.289 1038.987 1163 1039.655 1163 1040.479 1163 1041.303 1162.289 1041.971 1161.411 1041.971 Z" fill="#3f3d56" fill-opacity="1" stroke="none"/>
  <g id="undraw_typing_re_d4sq">
   <path id="Path" d="M317.328 159 L589.426 159 C608.634 159.022 624.201 174.646 624.222 193.927 L624.222 343.34 C624.201 362.621 608.634 378.245 589.426 378.267 L317.328 378.267 C298.119 378.245 282.553 362.621 282.531 343.34 L282.531 193.927 C282.553 174.646 298.119 159.022 317.328 159 Z" fill="#f2f2f2" fill-opacity="1" stroke="none"/>
   <path id="Path-1" d="M316.442 169.963 L588.484 169.963 C602.161 169.979 613.244 181.106 613.259 194.837 L613.259 344.258 C613.244 357.988 602.161 369.116 588.484 369.131 L316.442 369.131 C302.766 369.115 291.683 357.988 291.667 344.258 L291.667 194.837 C291.683 181.106 302.766 169.979 316.442 169.963 Z" fill="#ffffff" fill-opacity="1" stroke="none"/>
   <path id="Path-2" d="M318.027 431.257 C317.196 431.254 316.374 431.089 315.607 430.77 313.265 429.834 311.741 427.566 311.767 425.057 L311.767 373.281 381.201 370.958 322.386 429.43 C321.237 430.593 319.667 431.251 318.027 431.257 Z" fill="#f2f2f2" fill-opacity="1" stroke="none"/>
   <path id="Rectangle" d="M571.233 221.126 L571.233 221.126 C571.233 229.199 564.688 235.743 556.615 235.743 L350.139 235.743 C342.065 235.743 335.521 229.199 335.521 221.126 L335.521 221.126 C335.521 213.052 342.065 206.508 350.139 206.508 L556.615 206.508 C564.688 206.508 571.233 213.052 571.233 221.126 Z" fill="#f2f2f2" fill-opacity="1" stroke="none"/>
   <path id="Rectangle-1" d="M571.233 268.634 L571.233 268.634 C571.233 276.707 564.688 283.251 556.615 283.251 L350.139 283.251 C342.065 283.251 335.521 276.707 335.521 268.634 L335.521 268.634 C335.521 260.56 342.065 254.016 350.139 254.016 L556.615 254.016 C564.688 254.016 571.233 260.56 571.233 268.634 Z" fill="#f2f2f2" fill-opacity="1" stroke="none"/>
   <path id="Rectangle-2" d="M571.233 316.141 L571.233 316.141 C571.233 324.215 564.688 330.759 556.615 330.759 L350.139 330.759 C342.065 330.759 335.521 324.215 335.521 316.141 L335.521 316.141 C335.521 308.068 342.065 301.524 350.139 301.524 L556.615 301.524 C564.688 301.524 571.233 308.068 571.233 316.141 Z" fill="#f2f2f2" fill-opacity="1" stroke="none"/>
   <path id="Path-3" d="M746.567 233.916 L474.469 233.916 C455.261 233.938 439.694 249.562 439.673 268.843 L439.673 418.257 C439.694 437.537 455.261 453.162 474.469 453.183 L746.567 453.183 C765.776 453.162 781.342 437.537 781.364 418.257 L781.364 268.843 C781.342 249.562 765.776 233.938 746.567 233.916 Z" fill="#e6e6e6" fill-opacity="1" stroke="none"/>
   <path id="Path-4" d="M747.453 244.88 L475.411 244.88 C461.734 244.895 450.651 256.022 450.636 269.753 L450.636 419.174 C450.651 432.905 461.734 444.032 475.411 444.047 L747.453 444.047 C761.129 444.032 772.212 432.905 772.228 419.174 L772.228 269.753 C772.212 256.022 761.13 244.895 747.453 244.88 Z" fill="#ffffff" fill-opacity="1" stroke="none"/>
   <path id="Path-5" d="M726.892 506.173 L668.076 447.702 737.51 450.024 737.51 501.801 C737.537 504.31 736.012 506.578 733.67 507.513 732.904 507.832 732.081 507.998 731.25 508 729.61 507.995 728.04 507.337 726.892 506.173 Z" fill="#e6e6e6" fill-opacity="1" stroke="none"/>
  </g>
  <g id="undraw_key_points_re_u903">
   <path id="Path-6" d="M993.764 370.092 C993.746 370.155 993.727 370.211 993.709 370.274 993.666 370.395 993.632 370.519 993.606 370.644 993.38 371.45 993.256 372.28 993.238 373.117 993.228 373.473 993.237 373.83 993.266 374.186 993.3 374.643 993.365 375.096 993.461 375.544 993.563 376.042 993.703 376.532 993.881 377.008 993.961 377.234 994.052 377.456 994.155 377.673 995.495 380.676 998.165 382.877 1001.369 383.618 L1001.377 383.617 C1001.532 383.657 1001.688 383.689 1001.847 383.713 1002.727 383.873 1003.625 383.919 1004.517 383.849 L1004.533 383.848 C1006.709 383.683 1008.779 382.838 1010.448 381.432 1011.471 380.584 1011.583 379.687 1012.86 380.085 1016.933 381.354 1019.655 374.641 1017.619 370.964 1017.621 370.825 1017.616 370.687 1017.603 370.549 1017.407 367.98 1013.541 367.326 1011.286 365.963 L1011.275 366.008 C1011.059 366.824 1010.348 367.414 1009.506 367.474 1008.663 367.535 1007.876 367.053 1007.545 366.275 1007.133 365.282 1006.759 364.276 1006.423 363.255 1002.101 360.142 990.554 365.006 993.764 370.092 Z" fill="#2f2e41" fill-opacity="1" stroke="none"/>
   <path id="Path-7" d="M966.665 393.399 C966.077 394.771 947.934 394.624 947.103 395.845 940.696 405.271 963.791 445.38 957.384 454.818 L956.492 455.882 C958.582 454.919 960.59 453.786 962.495 452.495 962.666 448.632 962.837 444.756 963.021 440.892 964.94 443.347 966.488 446.07 967.618 448.974 969.109 447.923 970.333 445.973 976.727 442.14 979.315 439.296 982.299 436.84 985.587 434.846 Z" fill="#2f2e41" fill-opacity="1" stroke="none"/>
   <path id="Path-8" d="M979.84 470.656 C975.778 468.01 970.689 467.486 966.173 469.25 961.657 471.013 958.269 474.846 957.075 479.545 L929.504 551.384 882.112 524.478 C881.685 518.134 877.22 512.786 871.053 511.235 864.887 509.683 858.423 512.28 855.044 517.667 851.665 523.054 852.14 530.004 856.221 534.88 860.303 539.756 867.06 541.449 872.958 539.072 882.938 549.723 926.206 593.396 944.119 576.332 959.175 561.989 980.904 506.401 986.134 487.205 987.853 480.907 985.31 474.22 979.84 470.656 Z" fill="#a0616a" fill-opacity="1" stroke="none"/>
   <path id="Path-9" d="M619.949 371.098 C619.949 375.018 616.771 378.195 612.852 378.195 608.932 378.195 605.755 375.018 605.755 371.098 605.755 367.179 608.932 364.001 612.852 364.001 616.771 364.001 619.949 367.179 619.949 371.098 Z" fill="#a0b92c" fill-opacity="1" stroke="none"/>
   <path id="Path-10" d="M632.341 306.019 C630.176 302.409 625.162 302.087 620.954 302.181 616.613 302.088 612.28 302.573 608.067 303.625 603.912 304.86 599.953 307.389 597.947 311.231 595.482 315.955 596.347 321.68 597.671 326.841 600.222 336.767 604.223 346.263 609.546 355.022 L612.624 357.125 C625.346 345.52 632.846 329.272 633.424 312.061 633.641 309.985 633.266 307.89 632.341 306.019 Z" fill="#a0b92c" fill-opacity="1" stroke="none"/>
   <path id="Path-11" d="M567.274 372.437 C567.274 375.323 564.935 377.662 562.049 377.662 559.162 377.662 556.823 375.323 556.823 372.437 556.823 369.551 559.162 367.211 562.049 367.211 564.935 367.211 567.274 369.551 567.274 372.437 Z" fill="#e6e6e6" fill-opacity="1" stroke="none"/>
   <path id="Path-12" d="M568.293 322.806 C566.282 320.448 562.602 320.823 559.557 321.403 556.394 321.862 553.306 322.742 550.374 324.017 547.418 325.322 545.105 327.753 543.949 330.771 542.733 334.501 544.057 338.554 545.646 342.14 548.704 349.039 552.764 355.449 557.694 361.163 L560.185 362.317 C568.014 352.343 571.486 339.631 569.814 327.062 569.72 325.528 569.192 324.052 568.293 322.806 Z" fill="#e6e6e6" fill-opacity="1" stroke="none"/>
   <path id="Path-copy-1" d="M669.274 372.437 C669.274 375.323 666.935 377.662 664.049 377.662 661.162 377.662 658.823 375.323 658.823 372.437 658.823 369.551 661.162 367.211 664.049 367.211 666.935 367.211 669.274 369.551 669.274 372.437 Z" fill="#e6e6e6" fill-opacity="1" stroke="none"/>
   <path id="Path-copy-1" d="M670.293 322.806 C668.282 320.448 664.602 320.823 661.557 321.403 658.394 321.862 655.306 322.742 652.374 324.017 649.418 325.322 647.105 327.753 645.949 330.771 644.733 334.501 646.057 338.554 647.646 342.14 650.704 349.039 654.764 355.449 659.694 361.163 L662.185 362.317 C670.014 352.343 673.486 339.631 671.814 327.062 671.72 325.528 671.192 324.052 670.293 322.806 Z" fill="#e6e6e6" fill-opacity="1" stroke="none"/>
   <path id="Path-13" d="M993.776 1012.681 L979.744 1012.68 973.067 958.553 993.779 958.553 Z" fill="#a0616a" fill-opacity="1" stroke="none"/>
   <path id="Path-14" d="M951.421 1033.386 C951.435 1036.658 954.08 1039.308 957.352 1039.329 L983.769 1039.329 984.587 1037.633 988.324 1029.922 989.771 1037.633 990.092 1039.329 1000.056 1039.329 999.913 1037.621 997.256 1005.759 993.781 1005.546 978.763 1004.656 975.074 1004.431 975.074 1013.944 C972.275 1016.921 950.306 1028.179 951.421 1033.386 Z" fill="#2f2e41" fill-opacity="1" stroke="none"/>
   <path id="Path-15" d="M938.978 1001.793 L925.736 1006.437 901.524 957.569 921.069 950.716 Z" fill="#a0616a" fill-opacity="1" stroke="none"/>
   <path id="Path-16" d="M905.861 1035.349 C906.957 1038.432 910.331 1040.058 913.425 1038.995 L938.353 1030.253 938.564 1028.381 939.539 1019.869 943.456 1026.666 944.32 1028.16 953.722 1024.863 953.023 1023.298 939.971 994.111 936.621 995.06 922.155 999.19 918.599 1000.198 921.748 1009.175 C920.091 1012.911 903.086 1030.804 905.861 1035.349 Z" fill="#2f2e41" fill-opacity="1" stroke="none"/>
   <path id="Path-17" d="M928.069 579.342 L936.769 618.667 1000.391 624.422 1006.238 590.18 Z" fill="#a0616a" fill-opacity="1" stroke="none"/>
   <path id="Path-18" d="M1004.639 606.972 L933.045 605.777 931.505 626.677 876.219 792.866 866.396 833.726 894.554 985.439 942.237 985.409 C942.237 985.409 941.248 945.55 939.345 943.899 937.441 942.247 933.469 943.923 936.414 935.412 939.36 926.9 941.533 924.151 938.049 920.73 934.564 917.309 930.35 920.179 932.937 912.03 935.523 903.88 956.624 792.618 956.624 792.618 L956.624 992.096 1005.685 992.096 C1005.685 992.096 1015.956 982.713 1011.229 977.826 1006.501 972.94 1002.664 971.981 1006.501 965.267 1010.337 958.552 1018.663 960.244 1011.623 951.725 1006.029 944.957 1019.41 758.311 1025.146 681.875 1026.696 661.218 1020.101 640.775 1006.773 624.917 Z" fill="#2f2e41" fill-opacity="1" stroke="none"/>
   <path id="Path-19" d="M967.777 451.598 L999.445 449.967 1014.153 473.208 C1014.153 473.208 1041.828 477.835 1039.91 510.446 1037.992 543.058 1006.238 571.674 1006.238 571.674 L1007.595 567.021 1005.238 573.757 1005.54 577.539 1008.756 581.545 1009.087 585.687 1006.238 592.241 1010.113 598.517 928.648 590.624 925.669 579.772 930.014 573.945 927.587 566.344 931.236 559.033 933.139 557.447 C933.139 557.447 912.321 526.171 936.219 502.615 L945.811 486.309 956.543 473.216 Z" fill="#a0b92c" fill-opacity="1" stroke="none"/>
   <path id="Path-20" d="M1005.688 407.849 C1005.688 424.434 992.244 437.878 975.659 437.878 959.074 437.878 945.629 424.434 945.629 407.849 945.629 391.264 959.074 377.819 975.659 377.819 992.244 377.819 1005.688 391.264 1005.688 407.849 Z" fill="#a0616a" fill-opacity="1" stroke="none"/>
   <path id="Path-21" d="M998.466 451.109 C996.021 449.065 994.319 446.272 993.625 443.161 993.069 446.938 993.214 450.784 994.053 454.508 992.426 455.73 990.849 456.892 989.358 457.943 988.228 455.039 986.679 452.316 984.76 449.862 984.577 453.725 984.406 457.601 984.235 461.465 982.329 462.755 980.322 463.888 978.231 464.851 L979.124 463.788 C985.531 454.349 968.951 436.975 975.358 427.548 977.155 424.907 969.037 404.036 962.85 403.095 957.348 402.263 957.581 403.853 952.25 405.014 951.696 402.706 950.837 400.481 949.695 398.4 949.999 400.719 949.929 403.072 949.487 405.369 947.592 405.442 946.101 404.235 944.083 403.926 931.208 401.958 932.516 388.032 936.099 383.618 939.693 379.216 951.626 377.896 957.128 376.466 957.63 375.976 958.767 376.282 959.268 375.817 969.812 366.168 983.914 364.57 996.605 368.847 997.745 369.24 998.853 369.722 999.918 370.289 1010.69 375.933 1019.908 383.702 1019.239 395.845 1018.926 401.532 1017.635 402.417 1019.239 405.626 1019.633 406.413 1016.183 413.827 1021.991 414.617 1027.798 415.407 1025.179 419.89 1026.575 421.52 1031.984 427.835 1012.602 446.252 998.466 451.109 Z" fill="#2f2e41" fill-opacity="1" stroke="none"/>
   <path id="Path-22" d="M1042.252 593.381 L1041.07 501.306 C1040.942 493.19 1034.326 486.678 1026.209 486.678 1022.13 486.678 1018.231 488.354 1015.424 491.314 1012.618 494.273 1011.151 498.256 1011.367 502.329 L1015.527 597.935 1015.606 656.135 C1010.583 658.265 1007.43 663.31 1007.718 668.759 1008.005 674.207 1011.672 678.893 1016.891 680.483 1022.11 682.072 1027.766 680.225 1031.042 675.862 1034.318 671.499 1034.512 665.552 1031.53 660.984 Z" fill="#a0616a" fill-opacity="1" stroke="none"/>
  </g>
 </g>
</svg>
