<?xml version="1.0" encoding="UTF-8"?>
<svg width="351px" height="289px" viewBox="0 0 351 289" version="1.1" xmlns="http://www.w3.org/2000/svg" xmlns:xlink="http://www.w3.org/1999/xlink">
    <title>undraw_directions_re_kjxs</title>
    <g id="Page-1" stroke="none" stroke-width="1" fill="none" fill-rule="evenodd">
        <g id="Artboard" transform="translate(-267.000000, -1799.000000)" fill-rule="nonzero">
            <g id="Second-Row" transform="translate(248.000000, 1521.000000)">
                <g id="undraw_directions_re_kjxs" transform="translate(19.000000, 278.000000)">
                    <path d="M321.244449,262.427354 C317.538651,274.577607 323.290036,287 323.290036,287 C323.290036,287 335.049717,279.722953 338.75554,267.572651 C342.461363,255.422349 336.709954,243 336.709954,243 C336.709954,243 324.950258,250.277081 321.244449,262.427354 Z" id="Path" fill="#F2F2F2"></path>
                    <path d="M326.157828,263.313948 C329.202445,275.740355 323.012764,288 323.012764,288 C323.012764,288 311.886788,280.112464 308.842172,267.686057 C305.797555,255.25965 311.987236,243 311.987236,243 C311.987236,243 323.113231,250.887516 326.157828,263.313948 Z" id="Path" fill="#F2F2F2"></path>
                    <path d="M28.2444494,263.427354 C24.5386511,275.577607 30.2900356,288 30.2900356,288 C30.2900356,288 42.0497174,280.722953 45.7555403,268.572651 C49.4613633,256.422349 43.7099541,244 43.7099541,244 C43.7099541,244 31.9502575,251.277081 28.2444494,263.427354 Z" id="Path" fill="#E6E6E6"></path>
                    <path d="M34.1578283,263.313948 C37.2024446,275.740355 31.0127641,288 31.0127641,288 C31.0127641,288 19.8867881,280.112464 16.8421717,267.686057 C13.7975554,255.25965 19.9872359,243 19.9872359,243 C19.9872359,243 31.1132312,250.887516 34.1578283,263.313948 Z" id="Path" fill="#E6E6E6"></path>
                    <circle id="Oval" fill="#A0B92C" cx="162.5" cy="123.5" r="25.5"></circle>
                    <path d="M160.955973,288 L154.044027,288 C152.363663,287.997986 151.001943,286.587029 151,284.845905 L151,225.154095 C151.001943,223.412971 152.363663,222.002014 154.044027,222 L160.955973,222 C162.636337,222.002014 163.998057,223.412971 164,225.154095 L164,284.845905 C163.998059,286.58703 162.636338,287.997989 160.955973,288 Z" id="Path" fill="#A0B92C"></path>
                    <path d="M181.59466,192.293022 L178.346458,185.931629 C177.558559,184.384186 178.159823,182.484781 179.690542,181.685644 L232.200229,154.349828 C233.732775,153.554266 235.613896,154.161376 236.405338,155.706977 L239.653535,162.068375 C240.441446,163.615817 239.840179,165.51523 238.309451,166.31436 L185.79976,193.650171 C184.267217,194.445735 182.386096,193.838624 181.59466,192.293022 L181.59466,192.293022 Z" id="Path" fill="#A0B92C"></path>
                    <path d="M199.677407,256.24939 L193.832746,260.413104 C192.410723,261.42366 190.436046,261.09672 189.41848,259.682249 L154.589053,211.148729 C153.574783,209.731909 153.902925,207.764453 155.322591,206.750612 L161.167252,202.586898 C162.589273,201.57634 164.563951,201.903279 165.581517,203.317748 L200.410945,251.851268 C201.425218,253.268089 201.097076,255.235549 199.677407,256.24939 L199.677407,256.24939 Z" id="Path" fill="#A0B92C"></path>
                    <path d="M181.539125,287.505613 L175.093645,284.303918 C173.528545,283.526479 172.648918,282.104774 173.132899,281.134833 L189.744613,247.843503 C190.228594,246.873566 191.895775,246.716945 193.460875,247.494383 L199.906355,250.696079 C201.471455,251.473517 202.351082,252.895227 201.867101,253.865164 L185.255387,287.156494 C184.771406,288.126435 183.104225,288.283057 181.539125,287.505613 Z" id="Path" fill="#A0B92C"></path>
                    <path d="M181.028115,134 L181,133.001377 C182.879372,132.949693 184.536292,132.833154 185.781303,131.934003 C186.495521,131.388865 186.934553,130.563595 186.984147,129.67296 C187.028489,129.127824 186.813175,128.59342 186.401838,128.227687 C185.575606,127.537234 184.245741,127.760556 183.276203,128.20038 L182.440353,128.579253 L184.043246,117 L185.044096,117.135553 L183.680692,126.985275 C184.997985,126.602503 186.218094,126.766826 187.053948,127.465079 C187.704525,128.026526 188.052169,128.856342 187.993634,129.708082 C187.933939,130.905176 187.342311,132.015056 186.377174,132.740521 C184.777488,133.896143 182.698612,133.953669 181.028115,134 Z" id="Path" fill="#2F2E41"></path>
                    <rect id="Rectangle" fill="#2F2E41" x="174" y="118" width="5" height="1"></rect>
                    <path d="M204,211.732957 C204,232.709968 184.100747,230.964468 163.113924,230.964468 C142.127101,230.964468 128,232.709968 128,211.732957 C128,190.755946 142.127106,155 163.113924,155 C184.100742,155 204,190.755951 204,211.732957 Z" id="Path" fill="#CCCCCC"></path>
                    <path d="M177.988379,96.0079093 C177.031947,90.2039463 173.420775,85.2145788 168.774489,81.8464187 C164.219537,78.6029026 158.77421,76.907999 153.216463,77.0038527 C142.455084,77.1243908 131.932874,83.2607578 126.163329,92.4686959 C119.77147,102.669813 119.645343,115.99117 123.966395,127.020658 C125.071061,129.861846 126.471568,132.574351 128.143933,135.111727 C129.998792,137.90988 132.24587,140.378347 134.431384,142.905545 C138.504415,147.615353 143.174039,154.165344 140.444697,160.736963 C139.436595,163.164242 137.309923,165.371121 134.603536,165.544946 C132.318921,165.691684 129.785878,164.579253 128.772829,162.392792 C127.637973,159.943414 129.209235,157.04445 131.530647,156.041948 C133.965445,154.990475 136.495995,156.541641 137.395399,158.927469 C137.842253,160.025932 137.857449,161.257206 137.437845,162.366753 C137.252003,162.717031 137.364547,163.154009 137.6953,163.366381 C138.03787,163.567483 138.475597,163.450633 138.67717,163.104272 C139.666211,160.587168 139.02621,157.709743 137.068552,155.871976 C135.064683,153.917616 131.967388,153.722663 129.742322,155.410841 C127.466926,157.102832 126.263808,160.131496 127.416887,162.864453 C128.415263,165.230725 130.830895,166.659793 133.270387,166.961487 C136.00767,167.236051 138.68583,166.028791 140.3261,163.780916 C142.125299,161.382363 142.940552,158.36682 142.600329,155.368758 C141.801697,147.890149 135.933031,142.777175 131.527446,137.304155 C127.60978,132.399993 124.848887,126.646517 123.457028,120.486058 C122.032676,114.430986 122.085768,108.112999 123.61167,102.083625 C125.091609,96.3667768 128.133401,91.1943253 132.384126,87.1663978 C136.463916,83.3171438 141.446385,80.5991813 146.854038,79.272986 C152.200482,77.9179219 157.826651,78.2664865 162.972253,80.2715765 C168.365678,82.4498934 173.152134,86.7599915 175.433051,92.2482573 C175.981134,93.5796976 176.374248,94.971879 176.604368,96.3963813 C176.756857,97.321739 178.140208,96.9292778 177.988379,96.0079239 L177.988379,96.0079093 Z" id="Path" fill="#2F2E41"></path>
                    <path d="M178.271652,96.5606826 C180.744037,94.1910753 184.774386,93.8493984 187.75343,95.4544825 C190.834812,97.1146959 192.071342,100.690312 191.280994,103.999057 C190.87528,105.847217 189.801853,107.482996 188.264296,108.596154 C187.487597,109.134008 188.226998,110.411562 189.011714,109.86816 C192.344931,107.559952 193.748511,103.11168 192.610887,99.2637123 C191.423077,95.2460057 187.478198,92.8475055 183.358302,93.0075362 C181.07323,93.067827 178.890179,93.9616827 177.224529,95.5190251 C176.536917,96.1780429 177.58487,97.2189393 178.271652,96.5606826 L178.271652,96.5606826 Z" id="Path" fill="#2F2E41"></path>
                    <path d="M156.544651,184.354678 L160.581268,178.391378 C161.564277,176.942766 163.532638,176.56435 164.981391,177.545456 L214.610662,211.238738 C216.05715,212.223191 216.435011,214.194442 215.455344,215.645322 L211.418732,221.608622 C210.435723,223.057234 208.467362,223.43565 207.01861,222.454544 L157.389313,188.761242 C155.942847,187.776783 155.564996,185.80555 156.544651,184.354678 Z" id="Path" fill="#A0B92C"></path>
                    <polygon id="Path" fill="#3A3768" points="246.4995 158.5 246.4995 158.5 246.5005 158.5"></polygon>
                    <path d="M248.978634,153.344705 C249.109757,151.624706 248.634296,149.913361 247.636867,148.515234 L235.057693,139.42078 C234.575616,139.072249 233.976628,138.932033 233.392511,139.030982 C232.808394,139.129931 232.287,139.459937 231.94304,139.948397 L230.134672,142.516093 C230.128008,142.509195 230.128272,142.498491 230.120319,142.492782 C230.044631,142.438094 229.939526,142.455873 229.885477,142.532506 L229.144351,143.584897 C229.118413,143.621711 229.107974,143.667459 229.115333,143.712073 C229.122691,143.756686 229.147244,143.796509 229.183587,143.822778 C229.19154,143.828726 229.201489,143.824917 229.21,143.828965 L228.410999,144.96366 C228.40614,144.957591 228.400876,144.951868 228.395242,144.946531 C228.355071,144.917469 228.305146,144.905778 228.256462,144.914033 C228.207779,144.922287 228.16433,144.949809 228.135685,144.990538 L226.720288,147.000162 C226.691631,147.040845 226.680101,147.091398 226.688236,147.140695 C226.696371,147.189993 226.723504,147.233995 226.763664,147.263021 C226.770482,147.266728 226.77753,147.269982 226.784764,147.272765 L226.210233,148.088463 C226.206093,148.084897 226.203833,148.079898 226.199284,148.076571 C226.119599,148.019026 226.008968,148.037761 225.952085,148.118434 L224.510977,150.164695 C224.45413,150.24543 224.472629,150.357569 224.552301,150.415184 C224.556849,150.418278 224.56222,150.418989 224.566947,150.421844 L211.021369,169.655289 C210.890238,171.37529 211.3657,173.086639 212.363135,174.484765 L224.942309,183.579219 C225.42438,183.927751 226.023364,184.067967 226.607476,183.969018 C227.191588,183.870069 227.712976,183.540062 228.056929,183.051601 L242.633767,162.353761 C242.648926,162.375939 242.667141,162.395805 242.687857,162.412754 C242.752747,162.458979 242.83311,162.47718 242.911251,162.46335 C242.989392,162.449519 243.058904,162.404792 243.104484,162.339014 L245.605808,158.78746 C245.652359,158.722386 245.67149,158.641241 245.65899,158.561876 C245.646491,158.482511 245.603387,158.411428 245.539159,158.364264 C245.51663,158.349861 245.492179,158.338807 245.466553,158.331438 L248.978634,153.344705 Z" id="Path" fill="#3A3768"></path>
                    <path d="M247.306551,148.786996 L245.415058,147.429058 L245.252163,147.655377 C244.833024,148.232068 244.032166,148.372268 243.44215,147.972242 L237.396699,143.654003 C236.799704,143.226344 236.661974,142.395719 237.08897,141.798159 L237.251866,141.571834 L235.441838,140.304425 C234.720167,139.783958 233.71335,139.947228 233.193016,140.669105 L233.188375,140.675599 L212.300761,169.961863 C211.783895,170.687512 211.949635,171.694453 212.671793,172.216032 L224.56362,180.698632 C225.286979,181.216754 226.293266,181.050191 226.811224,180.326604 L226.817078,180.318395 L247.704692,151.041195 C248.218009,150.314311 248.045068,149.308797 247.318416,148.795314 L247.306551,148.786996 Z" id="Path" fill="#F2F2F2"></path>
                    <path d="M239.378225,144.056901 L240.899711,145.445063 C240.951366,145.492187 240.986263,145.563619 240.996725,145.643644 C241.007187,145.723668 240.992356,145.805729 240.955497,145.871772 L240.955497,145.871772 C240.91864,145.937817 240.862774,145.982435 240.800188,145.995812 C240.737602,146.009189 240.673424,145.990228 240.621772,145.943101 L239.100286,144.554939 C239.048633,144.507813 239.013737,144.436381 239.003275,144.356358 C238.992813,144.276334 239.007642,144.194274 239.0445,144.12823 L239.0445,144.12823 C239.081356,144.062184 239.137222,144.017565 239.199808,144.004188 C239.262394,143.990811 239.326573,144.009773 239.378225,144.056901 L239.378225,144.056901 Z" id="Path" fill="#E6E8EC"></path>
                    <circle id="Oval" fill="#E6E8EC" cx="242.5" cy="146.5" r="1"></circle>
                    <path d="M235.5,0 C217.550745,0 203,14.4683697 203,32.3160083 L203,32.3160083 C203,50.1621622 237.052238,116 237.052238,116 C237.052238,116 268,50.1718087 268,32.3208316 C268.001286,23.7500933 264.578422,15.5298819 258.4844,9.46855017 C252.390377,3.40721844 244.124386,0.00127911921 235.50485,0 L235.5,0 Z M235.5,53.8664449 C226.096734,53.8664449 218.47388,46.2867467 218.47388,36.9367152 C218.47388,27.5866836 226.096734,20.0069854 235.5,20.0069854 C244.903266,20.0069854 252.526119,27.5866836 252.526119,36.9367152 L252.526119,36.9367152 C252.526119,46.2867467 244.903266,53.8664449 235.5,53.8664449 L235.5,53.8664449 Z" id="Shape" fill="#A0B92C"></path>
                    <rect id="Rectangle" fill="#3F3D56" x="0" y="288" width="351" height="1"></rect>
                </g>
            </g>
        </g>
    </g>
</svg>