<?xml version="1.0" encoding="UTF-8"?>
<svg width="1200px" height="1200px" viewBox="0 0 1200 1200" xmlns="http://www.w3.org/2000/svg" xmlns:xlink="http://www.w3.org/1999/xlink" version="1.1">
 <!-- Generated by Pixelmator Pro 2.3 -->
 <g id="screen3">
  <g id="undraw_gone_shopping_re_2lau">
   <path id="Path" d="M632.388 487.88 L587.158 411.203 C583.191 404.432 585.389 395.731 592.097 391.657 595.467 389.611 599.53 389.039 603.335 390.076 607.139 391.113 610.35 393.668 612.215 397.142 L656.757 478.231 685.899 526.363 C691.118 525.602 696.256 528.189 698.753 532.836 701.249 537.482 700.571 543.194 697.056 547.127 693.541 551.06 687.94 552.372 683.044 550.411 678.148 548.449 675.002 543.633 675.174 538.361 Z" fill="#a0616a" fill-opacity="1" stroke="none"/>
   <path id="Path-1" d="M589.329 430.984 C587.472 430.546 586.138 428.921 586.067 427.016 586.004 425.872 585.585 424.777 584.869 423.884 584.728 423.713 584.577 423.551 584.415 423.4 582.393 421.597 581.38 418.921 581.7 416.231 582.282 411.878 580.71 406.83 578.781 402.661 576.672 398.099 574.283 393.583 573.326 388.649 571.947 381.531 574.042 373.097 582.815 370.986 586.56 370.146 590.48 370.622 593.914 372.335 601.143 375.82 605.559 382.755 609.72 389.429 609.72 389.429 619.661 399.773 626.593 404.801 624.783 405.502 625.004 408.387 626.506 409.618 628.008 410.848 630.093 410.966 632.01 411.273 634.426 411.66 637.172 412.766 637.025 415.772 636.913 417.224 636.2 418.564 635.058 419.467 624.564 428.14 612.39 434.55 599.301 438.292 596.393 439.122 593.133 439.785 590.46 438.372 587.787 436.959 586.747 432.558 589.328 430.984 Z" fill="#a0b92c" fill-opacity="1" stroke="none"/>
   <path id="Path-2" d="M520.351 564.055 L612.581 562.637 615.419 541.353 606.905 493.109 534.54 493.109 Z" fill="#a0616a" fill-opacity="1" stroke="none"/>
   <path id="Path-3" d="M644.165 1010.771 L659.827 1010.771 667.28 950.363 644.165 950.363 Z" fill="#a0616a" fill-opacity="1" stroke="none"/>
   <path id="Path-4" d="M635.899 1037.907 L647.13 1037.907 649.135 1027.303 654.27 1037.907 684.059 1037.907 C686.989 1037.907 689.58 1036.002 690.452 1033.204 691.324 1030.406 690.275 1027.366 687.864 1025.701 L664.075 1009.271 664.075 998.551 639.054 1000.045 Z" fill="#2f2e41" fill-opacity="1" stroke="none"/>
   <path id="Path-5" d="M432.349 959.929 L445.196 968.887 485.862 923.598 466.901 910.377 Z" fill="#a0616a" fill-opacity="1" stroke="none"/>
   <path id="Path-6" d="M410.047 977.46 L419.26 983.884 426.97 976.333 425.117 987.968 449.552 1005.006 C451.956 1006.682 455.171 1006.601 457.486 1004.804 459.802 1003.008 460.681 999.915 459.655 997.169 L449.538 970.087 455.67 961.293 434.291 948.207 Z" fill="#2f2e41" fill-opacity="1" stroke="none"/>
   <path id="Path-7" d="M1147.947 648.189 C1147.947 653.54 1152.285 657.877 1157.635 657.877 1162.985 657.877 1167.322 653.54 1167.322 648.189 1167.322 642.839 1162.985 638.502 1157.635 638.502 1152.285 638.502 1147.947 642.839 1147.947 648.189 Z" fill="#ffffff" fill-opacity="1" stroke="none"/>
   <path id="Path-8" d="M1015.568 700.024 C1015.568 705.375 1019.906 709.712 1025.256 709.712 1030.606 709.712 1034.943 705.375 1034.943 700.024 1034.943 694.674 1030.606 690.337 1025.256 690.337 1019.906 690.337 1015.568 694.674 1015.568 700.024 Z" fill="#ffffff" fill-opacity="1" stroke="none"/>
   <path id="Path-9" d="M522.115 545.095 L618.431 538.606 C618.431 538.606 640.748 590.158 640.391 596.972 640.033 603.785 630.824 601.733 640.395 611.982 649.966 622.232 649.966 608.042 649.966 622.232 649.966 636.421 688.661 951.423 671.634 954.261 641.836 958.517 643.255 952.842 643.255 952.842 L596.497 806.347 C596.497 806.347 512.075 929.767 485.754 923.044 459.433 916.321 464.47 907.436 464.47 907.436 L520.865 792.964 C520.865 792.964 529.272 792.949 528.088 783.503 526.903 774.057 534.078 775.655 534.078 775.655 534.078 775.655 544.854 772.296 540.845 766.791 536.836 761.287 547.477 758.102 547.477 758.102 L516.418 639.214 C516.418 639.214 494.299 587.859 522.115 545.095 Z" fill="#2f2e41" fill-opacity="1" stroke="none"/>
   <path id="Path-10" d="M530.611 348.445 L563.762 350.124 574.828 368.768 C574.828 368.768 606.363 371.081 606.363 396.622 606.363 422.163 627.887 411.048 617.835 443.565 607.782 476.082 605.491 482.35 614.441 487.02 623.39 491.69 636.02 490.685 624.739 498.282 613.458 505.879 609.201 508.717 612.039 511.555 614.877 514.393 559.438 492.066 527.562 506.067 527.562 506.067 518.645 499.317 520.646 493.375 522.646 487.433 523.736 489.731 520.353 484.325 516.971 478.92 481.069 384.902 481.069 384.902 481.069 384.902 488.357 371.351 504.083 371.926 519.808 372.5 530.611 348.445 530.611 348.445 Z" fill="#a0b92c" fill-opacity="1" stroke="none"/>
   <path id="Path-11" d="M414.298 664.205 L472.912 696.014 517.919 613.081 C526.694 596.895 520.691 576.661 504.509 567.88 488.326 559.099 468.089 565.095 459.303 581.275 Z M471.772 692.167 L418.146 663.065 461.799 582.625 C466.991 573.035 476.908 566.947 487.81 566.655 498.712 566.364 508.94 571.914 514.638 581.213 520.335 590.512 520.636 602.146 515.425 611.726 Z" fill="#3f3d56" fill-opacity="1" stroke="none"/>
   <path id="Path-12" d="M364.226 723.403 L450.568 770.259 C454.836 772.589 460.122 771.877 463.622 768.502 L521.927 712.535 C524.497 710.068 525.735 706.522 525.26 702.992 524.784 699.462 522.652 696.37 519.521 694.671 L390.023 624.394 C386.892 622.695 383.138 622.593 379.919 624.118 376.699 625.644 374.402 628.614 373.734 632.113 L358.585 711.5 C357.662 716.274 359.947 721.094 364.226 723.403 Z" fill="#a0b92c" fill-opacity="1" stroke="none"/>
   <path id="Path-13" d="M463.164 664.893 L454.434 660.156 446.312 675.121 455.042 679.859 Z" fill="#3f3d56" fill-opacity="1" stroke="none"/>
   <path id="Path-14" d="M477.016 497.777 L479.55 408.789 C479.797 400.946 486.291 394.751 494.137 394.874 498.08 394.935 501.824 396.615 504.492 399.518 507.161 402.421 508.519 406.293 508.248 410.227 L502.781 502.582 501.825 558.841 C506.648 560.976 509.62 565.901 509.26 571.164 508.899 576.426 505.284 580.9 500.215 582.358 495.145 583.815 489.706 581.945 486.605 577.678 483.505 573.41 483.406 567.659 486.359 563.288 Z" fill="#a0616a" fill-opacity="1" stroke="none"/>
   <path id="Path-15" d="M470.857 426.69 C469.519 425.331 469.254 423.245 470.209 421.594 470.764 420.593 470.992 419.443 470.862 418.305 470.834 418.086 470.792 417.868 470.735 417.654 469.984 415.052 470.551 412.247 472.253 410.14 475.064 406.765 476.42 401.655 477.008 397.099 477.65 392.115 478.033 387.02 479.85 382.334 482.471 375.574 488.736 369.55 497.285 372.433 500.903 373.716 503.968 376.206 505.963 379.485 510.227 386.284 510.273 394.505 510.242 402.37 L511.775 399.262 C511.591 407.852 513.144 416.39 516.341 424.365 514.435 423.995 513.087 426.555 513.703 428.396 514.319 430.237 516.021 431.447 517.481 432.728 519.32 434.342 521.056 436.74 519.33 439.206 518.462 440.376 517.146 441.13 515.698 441.286 502.198 443.042 488.48 441.986 475.407 438.185 472.504 437.34 469.392 436.165 467.881 433.546 466.371 430.927 467.834 426.648 470.857 426.69 Z" fill="#a0b92c" fill-opacity="1" stroke="none"/>
   <path id="Path-16" d="M498.799 303.6 C500.7 310.638 498.515 321.72 497.692 328.289 496.813 335.313 508.987 341.599 515.954 341.996 515.783 339.671 516.436 337.36 517.799 335.469 517.815 337.718 518.278 339.942 519.161 342.01 L577.294 342.01 C584.616 328.233 590.845 309.404 584.119 289.936 583.422 281.942 577.997 275.146 570.356 272.696 L538.657 262.55 C526.156 262.55 510.817 264.324 503.907 273.632 497.711 282.315 495.829 293.355 498.799 303.6 Z" fill="#2f2e41" fill-opacity="1" stroke="none"/>
   <path id="Path-17" d="M519.118 307.956 C519.118 325.98 533.729 340.591 551.753 340.591 569.777 340.591 584.389 325.98 584.389 307.956 584.389 289.932 569.777 275.321 551.753 275.321 533.729 275.321 519.118 289.932 519.118 307.956 Z" fill="#a0616a" fill-opacity="1" stroke="none"/>
   <path id="Path-18" d="M510.605 299.443 L510.605 306.537 538.841 306.537 C538.262 303.768 538.863 300.883 540.501 298.577 540.524 301.354 541.216 304.084 542.516 306.537 558.844 311.365 572.548 311.273 583.777 306.537 585.445 306.537 587.044 305.875 588.223 304.696 589.402 303.517 590.065 301.918 590.065 300.25 590.065 278.498 572.919 260.17 551.171 259.721 540.491 259.495 530.17 263.58 522.537 271.054 514.904 278.527 510.603 288.76 510.605 299.443 Z" fill="#2f2e41" fill-opacity="1" stroke="none"/>
   <path id="Path-19" d="M516.169 251.368 C519.534 249.793 523.322 249.126 525.977 246 L524.975 251.296 C530.431 248.377 536.776 247.584 542.783 249.071 544.549 249.425 546.179 250.27 547.485 251.511 548.951 253.058 549.636 255.187 549.348 257.299 549.031 259.124 547.961 260.731 546.4 261.727 545.012 262.514 543.488 263.033 541.909 263.256 535.341 264.591 528.773 265.926 522.205 267.261 519.75 267.983 517.152 268.066 514.657 267.502 511.868 266.549 509.91 264.032 509.671 261.095 509.297 256.573 512.804 252.942 516.169 251.368 Z" fill="#2f2e41" fill-opacity="1" stroke="none"/>
  </g>
  <g id="undraw_directions_re_kjxs">
   <path id="Path-20" d="M1044.802 960.811 C1033.48 997.934 1051.052 1035.889 1051.052 1035.889 1051.052 1035.889 1086.982 1013.655 1098.305 976.532 1109.628 939.408 1092.055 901.453 1092.055 901.453 1092.055 901.453 1056.125 923.688 1044.802 960.811 Z" fill="#f2f2f2" fill-opacity="1" stroke="none"/>
   <path id="Path-21" d="M1059.814 963.52 C1069.117 1001.487 1050.205 1038.945 1050.205 1038.945 1050.205 1038.945 1016.211 1014.845 1006.909 976.878 997.606 938.911 1016.518 901.453 1016.518 901.453 1016.518 901.453 1050.512 925.552 1059.814 963.52 Z" fill="#f2f2f2" fill-opacity="1" stroke="none"/>
   <path id="Path-22" d="M149.581 963.866 C138.258 1000.99 155.831 1038.945 155.831 1038.945 155.831 1038.945 191.761 1016.711 203.084 979.587 214.406 942.464 196.834 904.509 196.834 904.509 196.834 904.509 160.903 926.743 149.581 963.866 Z" fill="#e6e6e6" fill-opacity="1" stroke="none"/>
   <path id="Path-23" d="M167.648 963.52 C176.951 1001.487 158.039 1038.945 158.039 1038.945 158.039 1038.945 124.045 1014.845 114.743 976.878 105.44 938.911 124.352 901.453 124.352 901.453 124.352 901.453 158.346 925.552 167.648 963.52 Z" fill="#e6e6e6" fill-opacity="1" stroke="none"/>
   <path id="Path-24" d="M816.429 643.275 L816.432 643.275 Z" fill="#3a3768" fill-opacity="1" stroke="none"/>
   <g id="New-Group">
    <path id="Path-25" d="M751.392 497.111 C751.649 493.741 750.718 490.387 748.763 487.647 L724.111 469.825 C723.167 469.142 721.993 468.867 720.848 469.061 719.703 469.255 718.682 469.901 718.008 470.859 L714.464 475.891 C714.451 475.877 714.451 475.856 714.436 475.845 714.287 475.738 714.081 475.773 713.975 475.923 L712.523 477.985 C712.472 478.057 712.452 478.147 712.466 478.234 712.481 478.322 712.529 478.4 712.6 478.451 712.616 478.463 712.635 478.455 712.652 478.463 L711.086 480.687 C711.076 480.675 711.066 480.664 711.055 480.653 710.976 480.596 710.878 480.574 710.783 480.59 710.688 480.606 710.602 480.66 710.546 480.74 L707.773 484.678 C707.716 484.758 707.694 484.857 707.71 484.953 707.726 485.05 707.779 485.136 707.858 485.193 707.871 485.2 707.885 485.207 707.899 485.212 L706.773 486.811 C706.765 486.804 706.76 486.794 706.752 486.787 706.595 486.675 706.379 486.711 706.267 486.869 L703.443 490.88 C703.332 491.038 703.368 491.258 703.524 491.37 703.533 491.377 703.543 491.378 703.553 491.383 L677.007 529.075 C676.75 532.446 677.682 535.8 679.637 538.54 L704.288 556.362 C705.233 557.045 706.407 557.32 707.552 557.126 708.696 556.932 709.718 556.286 710.392 555.328 L738.958 514.767 C738.988 514.81 739.024 514.849 739.064 514.882 739.192 514.973 739.349 515.008 739.502 514.981 739.655 514.954 739.792 514.867 739.881 514.738 L744.783 507.778 C744.874 507.65 744.911 507.491 744.887 507.336 744.862 507.18 744.778 507.041 744.652 506.948 744.608 506.92 744.56 506.898 744.51 506.884 Z" fill="#3a3768" fill-opacity="1" stroke="none"/>
    <path id="Path-26" d="M748.116 488.18 L744.409 485.518 744.09 485.962 C743.268 487.092 741.699 487.367 740.543 486.583 L728.695 478.12 C727.525 477.282 727.255 475.655 728.092 474.484 L728.411 474.04 724.864 471.556 C723.45 470.536 721.477 470.856 720.457 472.271 L720.448 472.284 679.515 529.676 C678.502 531.098 678.826 533.072 680.242 534.094 L703.546 550.717 C704.964 551.733 706.936 551.406 707.951 549.988 L707.962 549.972 748.896 492.597 C749.902 491.173 749.563 489.202 748.139 488.196 Z" fill="#f2f2f2" fill-opacity="1" stroke="none"/>
    <path id="Path-27" d="M732.578 478.91 L735.56 481.63 C735.661 481.723 735.73 481.863 735.75 482.02 735.771 482.176 735.742 482.337 735.669 482.467 735.597 482.596 735.488 482.684 735.365 482.71 735.242 482.736 735.117 482.699 735.015 482.606 L732.034 479.886 C731.933 479.794 731.864 479.654 731.844 479.497 731.823 479.34 731.852 479.179 731.924 479.05 731.997 478.92 732.106 478.833 732.229 478.807 732.351 478.781 732.477 478.818 732.578 478.91 Z" fill="#e6e8ec" fill-opacity="1" stroke="none"/>
    <path id="Oval" d="M740.656 483.698 C740.656 484.78 739.779 485.658 738.696 485.658 737.614 485.658 736.737 484.78 736.737 483.698 736.737 482.615 737.614 481.738 738.696 481.738 739.779 481.738 740.656 482.615 740.656 483.698 Z" fill="#e6e8ec" fill-opacity="1" stroke="none"/>
   </g>
   <path id="Rectangle" d="M63.284 1038.945 L1135.716 1038.945 1135.716 1042 63.284 1042 Z" fill="#3f3d56" fill-opacity="1" stroke="none"/>
  </g>
  <path id="Shape-copy" d="M729 326 C710.222 326 695 341.136 695 359.807 695 378.477 730.624 447.354 730.624 447.354 730.624 447.354 763 378.487 763 359.813 763.001 350.846 759.421 342.247 753.045 335.906 746.67 329.564 738.022 326.001 729.005 326 Z M729 382.353 C719.163 382.353 711.188 374.423 711.188 364.641 711.188 354.86 719.163 346.93 729 346.93 738.837 346.93 746.812 354.86 746.812 364.641 746.812 374.423 738.837 382.353 729 382.353 Z" fill="#a0b92c" fill-opacity="1" stroke="none"/>
 </g>
</svg>
