<?xml version="1.0" encoding="UTF-8"?>
<svg width="256px" height="256px" viewBox="0 0 256 256" xmlns="http://www.w3.org/2000/svg" xmlns:xlink="http://www.w3.org/1999/xlink" version="1.1">
 <!-- Generated by Pixelmator Pro 2.3 -->
 <path id="ô€›" d="M118.084 217.5 C117.806 217.444 117.541 217.348 117.291 217.209 117.041 217.07 116.778 216.917 116.5 216.75 L51.166 179.584 C47.333 177.362 44.39 174.82 42.334 171.959 40.278 169.098 39.25 164.64 39.25 158.584 L39.25 93.666 C39.25 91.11 39.472 89.001 39.916 87.334 L118.084 132 118.084 217.5 Z M129.5 217.5 L129.5 132 149.609 120.51 C148.175 119.368 146.799 118.143 145.486 116.83 143.986 115.33 142.602 113.747 141.324 112.088 L123.834 122 45.25 77.416 C46.472 76.305 48.027 75.222 49.916 74.166 L80.5 56.75 131.561 85.92 C131.519 85.089 131.496 84.253 131.496 83.41 131.496 79.971 131.85 76.641 132.549 73.416 L91.75 50.25 108.666 40.666 C113.833 37.666 118.89 36.166 123.834 36.166 128.723 36.166 133.749 37.666 138.916 40.666 L149.266 46.559 C152.68 43.788 156.447 41.507 160.57 39.719 166.287 37.24 172.383 36 178.859 36 185.336 36 191.441 37.24 197.174 39.719 202.906 42.198 207.957 45.621 212.326 49.99 216.695 54.359 220.119 59.402 222.598 65.119 225.077 70.836 226.316 76.934 226.316 83.41 226.316 89.886 225.077 95.984 222.598 101.701 220.119 107.418 216.695 112.461 212.326 116.83 211.054 118.103 209.721 119.292 208.334 120.404 L208.334 158.584 C208.334 164.64 207.319 169.098 205.291 171.959 203.263 174.82 200.305 177.362 196.416 179.584 L131.166 216.75 C130.888 216.917 130.612 217.07 130.334 217.209 130.056 217.348 129.778 217.444 129.5 217.5 Z M178.906 122.918 C184.391 122.918 189.527 121.897 194.314 119.852 199.102 117.806 203.3 114.979 206.91 111.369 210.52 107.759 213.341 103.567 215.371 98.795 217.401 94.023 218.414 88.895 218.414 83.41 218.414 77.925 217.393 72.797 215.348 68.025 213.303 63.253 210.467 59.055 206.842 55.43 203.216 51.804 199.016 48.975 194.244 46.945 189.472 44.916 184.344 43.902 178.859 43.902 173.375 43.902 168.247 44.916 163.475 46.945 158.703 48.975 154.52 51.804 150.926 55.43 147.331 59.055 144.518 63.253 142.488 68.025 140.459 72.797 139.443 77.925 139.443 83.41 139.443 88.895 140.459 94.023 142.488 98.795 144.518 103.567 147.337 107.759 150.947 111.369 154.557 114.979 158.749 117.806 163.521 119.852 168.294 121.897 173.422 122.918 178.906 122.918 Z M166.402 110.555 C164.915 110.555 163.747 110.143 162.895 109.322 162.042 108.501 161.615 107.301 161.615 105.721 L161.615 105.117 C161.615 102.731 162.297 100.361 163.66 98.006 165.024 95.651 166.627 93.449 168.471 91.404 170.314 89.359 171.934 87.654 173.328 86.291 174.32 85.299 174.801 84.308 174.77 83.316 174.739 82.325 174.258 81.365 173.328 80.436 171.934 79.072 170.314 77.375 168.471 75.346 166.627 73.316 165.024 71.117 163.66 68.746 162.297 66.376 161.615 63.997 161.615 61.611 L161.615 61.1 C161.615 59.519 162.042 58.311 162.895 57.475 163.747 56.638 164.915 56.219 166.402 56.219 L191.41 56.219 C192.929 56.219 194.113 56.638 194.965 57.475 195.817 58.311 196.244 59.519 196.244 61.1 L196.244 61.611 C196.244 63.997 195.555 66.376 194.176 68.746 192.797 71.117 191.193 73.316 189.365 75.346 187.537 77.375 185.926 79.072 184.531 80.436 183.602 81.365 183.113 82.325 183.066 83.316 183.02 84.308 183.509 85.299 184.531 86.291 185.926 87.654 187.537 89.359 189.365 91.404 191.193 93.449 192.797 95.651 194.176 98.006 195.555 100.361 196.244 102.731 196.244 105.117 L196.244 105.721 C196.244 107.301 195.817 108.501 194.965 109.322 194.113 110.143 192.929 110.555 191.41 110.555 L166.402 110.555 Z M168.68 106.557 L189.133 106.557 C189.784 106.557 190.171 106.278 190.295 105.721 190.419 105.163 190.278 104.682 189.875 104.279 L180.998 95.262 C180.843 95.107 180.726 94.968 180.648 94.844 180.571 94.72 180.533 94.551 180.533 94.334 L180.533 81.271 C180.533 80.156 180.937 79.212 181.742 78.438 182.765 77.415 183.794 76.384 184.832 75.346 185.87 74.308 186.854 73.308 187.783 72.348 188.186 71.945 188.311 71.565 188.156 71.209 188.001 70.853 187.691 70.674 187.227 70.674 L170.633 70.674 C170.168 70.674 169.858 70.853 169.703 71.209 169.548 71.565 169.671 71.945 170.074 72.348 170.973 73.308 171.942 74.308 172.98 75.346 174.019 76.384 175.048 77.415 176.07 78.438 176.876 79.212 177.279 80.156 177.279 81.271 L177.279 94.334 C177.279 94.551 177.242 94.72 177.164 94.844 177.087 94.968 176.969 95.107 176.814 95.262 L167.982 104.279 C167.549 104.682 167.394 105.163 167.518 105.721 167.642 106.278 168.029 106.557 168.68 106.557 Z" fill="#000000" fill-opacity="1" stroke="none"/>
</svg>
