<?xml version="1.0" encoding="UTF-8"?>
<svg width="256px" height="256px" viewBox="0 0 256 256" xmlns="http://www.w3.org/2000/svg" xmlns:xlink="http://www.w3.org/1999/xlink" version="1.1">
 <!-- Generated by Pixelmator Pro 2.3 -->
 <defs>
  <path id="􀱨" d="M131.311 192.892 C140.145 192.892 148.46 191.202 156.258 187.82 164.056 184.439 170.934 179.769 176.893 173.81 182.853 167.851 187.523 160.972 190.904 153.174 194.285 145.376 195.976 137.061 195.976 128.228 195.976 119.394 194.285 111.079 190.904 103.281 187.523 95.483 182.853 88.605 176.893 82.646 170.934 76.686 164.056 72.016 156.258 68.635 148.46 65.254 140.145 63.563 131.311 63.563 122.478 63.563 114.163 65.254 106.365 68.635 98.567 72.016 91.689 76.676 85.729 82.614 79.77 88.552 75.1 95.42 71.719 103.218 68.337 111.016 66.647 119.331 66.647 128.164 L77.424 128.164 C77.424 120.684 78.808 113.689 81.577 107.18 84.345 100.671 88.202 94.966 93.147 90.063 98.092 85.16 103.818 81.325 110.327 78.557 116.836 75.788 123.83 74.404 131.311 74.404 138.792 74.404 145.787 75.788 152.296 78.557 158.804 81.325 164.52 85.171 169.444 90.095 174.368 95.019 178.225 100.735 181.014 107.243 183.804 113.752 185.198 120.747 185.198 128.228 185.198 135.709 183.804 142.714 181.014 149.244 178.225 155.774 174.368 161.5 169.444 166.424 164.52 171.348 158.804 175.205 152.296 177.994 145.787 180.783 138.792 182.157 131.311 182.115 125.267 182.072 119.541 181.132 114.131 179.294 108.721 177.455 103.766 174.866 99.264 171.528 94.763 168.189 90.907 164.279 87.695 159.799 86.722 158.489 85.55 157.654 84.176 157.295 82.802 156.936 81.439 157.158 80.087 157.961 78.819 158.764 78.048 159.926 77.773 161.447 77.498 162.969 77.91 164.427 79.009 165.822 83.024 171.189 87.737 175.912 93.147 179.991 98.556 184.069 104.495 187.239 110.961 189.5 117.428 191.762 124.211 192.892 131.311 192.892 Z M58.849 115.992 C57.328 115.992 56.186 116.299 55.426 116.911 54.665 117.524 54.306 118.338 54.348 119.352 54.39 120.367 54.813 121.465 55.616 122.649 L69.817 142.809 C70.873 144.288 72.078 145.017 73.43 144.996 74.783 144.975 75.966 144.246 76.981 142.809 L91.181 122.585 C91.984 121.402 92.396 120.314 92.418 119.321 92.439 118.327 92.069 117.524 91.308 116.911 90.547 116.299 89.427 115.992 87.948 115.992 Z M131.248 139.639 C134.418 139.639 136.024 137.97 136.066 134.631 L137.017 101.157 C137.059 99.551 136.52 98.21 135.4 97.132 134.28 96.054 132.875 95.515 131.185 95.515 129.452 95.515 128.046 96.043 126.969 97.1 125.891 98.157 125.373 99.488 125.415 101.094 L126.24 134.631 C126.324 137.97 127.994 139.639 131.248 139.639 Z M131.248 160.243 C133.065 160.243 134.661 159.609 136.034 158.341 137.408 157.073 138.095 155.509 138.095 153.65 138.095 151.79 137.419 150.226 136.066 148.958 134.714 147.69 133.108 147.056 131.248 147.056 129.388 147.056 127.782 147.701 126.43 148.99 125.077 150.279 124.401 151.832 124.401 153.65 124.401 155.467 125.077 157.02 126.43 158.309 127.782 159.598 129.388 160.243 131.248 160.243 Z"/>
 </defs>
 <use id="􀱨-1" xlink:href="#􀱨" fill="#000000" fill-opacity="1" stroke="none"/>
 <use id="􀱨-2" xlink:href="#􀱨" fill="#000000" fill-opacity="1" stroke="none"/>
</svg>
