<?xml version="1.0" encoding="UTF-8"?>
<svg width="256px" height="256px" viewBox="0 0 256 256" xmlns="http://www.w3.org/2000/svg" xmlns:xlink="http://www.w3.org/1999/xlink" version="1.1">
 <!-- Generated by Pixelmator Pro 2.3 -->
 <path id="􀋙" d="M41.198 176.236 C41.198 179.383 42.342 181.901 44.631 183.79 46.92 185.678 50.096 186.622 54.159 186.622 L90.383 186.622 C90.611 192.173 92.114 197.295 94.889 201.987 97.664 206.68 101.398 210.471 106.091 213.361 110.783 216.251 116.134 217.695 122.142 217.695 128.208 217.695 133.587 216.265 138.28 213.404 142.972 210.542 146.706 206.751 149.482 202.03 152.257 197.309 153.759 192.173 153.988 186.622 L190.212 186.622 C194.275 186.622 197.451 185.678 199.74 183.79 202.029 181.901 203.173 179.383 203.173 176.236 203.173 173.375 202.343 170.599 200.684 167.91 199.024 165.22 196.95 162.588 194.461 160.013 191.971 157.437 189.496 154.862 187.036 152.287 185.147 150.342 183.674 147.795 182.615 144.648 181.556 141.5 180.77 138.153 180.255 134.605 179.74 131.057 179.368 127.623 179.139 124.304 178.967 113.031 177.78 103.117 175.576 94.561 173.373 86.006 169.954 78.867 165.319 73.145 160.684 67.422 154.561 63.188 146.95 60.441 145.519 54.833 142.615 50.083 138.237 46.192 133.859 42.301 128.494 40.355 122.142 40.355 115.848 40.355 110.511 42.301 106.134 46.192 101.756 50.083 98.852 54.833 97.421 60.441 89.81 63.188 83.673 67.422 79.009 73.145 74.345 78.867 70.926 86.006 68.751 94.561 66.577 103.117 65.404 113.031 65.232 124.304 65.003 127.623 64.631 131.057 64.116 134.605 63.601 138.153 62.814 141.5 61.756 144.648 60.697 147.795 59.223 150.342 57.335 152.287 54.874 154.862 52.399 157.437 49.91 160.013 47.421 162.588 45.346 165.22 43.687 167.91 42.027 170.599 41.198 173.375 41.198 176.236 Z M57.85 173.661 L57.85 172.631 C58.365 171.83 59.223 170.757 60.425 169.412 61.627 168.067 62.986 166.594 64.502 164.991 66.019 163.389 67.521 161.758 69.009 160.098 70.554 158.382 71.899 156.393 73.043 154.133 74.188 151.872 75.161 149.312 75.962 146.45 76.763 143.589 77.392 140.413 77.85 136.922 78.308 133.432 78.651 129.598 78.88 125.42 79.109 112.945 80.397 103.045 82.743 95.72 85.089 88.395 88.222 82.945 92.142 79.368 96.062 75.792 100.483 73.317 105.404 71.943 106.491 71.714 107.321 71.299 107.893 70.699 108.466 70.098 108.78 69.254 108.838 68.166 109.009 63.703 110.283 60.055 112.657 57.222 115.032 54.389 118.194 52.973 122.142 52.973 126.148 52.973 129.339 54.389 131.713 57.222 134.088 60.055 135.361 63.703 135.533 68.166 135.533 69.254 135.834 70.098 136.434 70.699 137.035 71.299 137.851 71.714 138.881 71.943 143.802 73.317 148.223 75.792 152.143 79.368 156.063 82.945 159.21 88.395 161.585 95.72 163.96 103.045 165.262 112.945 165.49 125.42 165.662 129.598 165.991 133.432 166.478 136.922 166.964 140.413 167.593 143.589 168.366 146.45 169.139 149.312 170.097 151.872 171.242 154.133 172.386 156.393 173.731 158.382 175.276 160.098 176.821 161.758 178.352 163.389 179.868 164.991 181.385 166.594 182.73 168.067 183.903 169.412 185.076 170.757 185.92 171.83 186.435 172.631 L186.435 173.661 Z M103.773 186.622 L140.598 186.622 C140.254 192.459 138.394 197.08 135.018 200.485 131.642 203.89 127.35 205.592 122.142 205.592 116.992 205.592 112.715 203.89 109.31 200.485 105.905 197.08 104.059 192.459 103.773 186.622 Z" fill="#000000" fill-opacity="1" stroke="none"/>
</svg>
