<?xml version="1.0" encoding="UTF-8"?>
<svg width="256px" height="256px" viewBox="0 0 256 256" xmlns="http://www.w3.org/2000/svg" xmlns:xlink="http://www.w3.org/1999/xlink" version="1.1">
 <!-- Generated by Pixelmator Pro 2.3 -->
 <path id="ô€›" d="M129.5 219.5 C129.778 219.444 130.056 219.347 130.333 219.208 130.611 219.069 130.889 218.917 131.167 218.75 L196.417 181.583 C200.306 179.361 203.264 176.819 205.292 173.958 207.319 171.097 208.333 166.639 208.333 160.583 L208.333 95.667 C208.333 93.111 208.111 91 207.667 89.333 L129.5 134 Z M118.083 219.5 L118.083 134 39.917 89.333 C39.472 91 39.25 93.111 39.25 95.667 L39.25 160.583 C39.25 166.639 40.278 171.097 42.333 173.958 44.389 176.819 47.333 179.361 51.167 181.583 L116.5 218.75 C116.778 218.917 117.042 219.069 117.292 219.208 117.542 219.347 117.806 219.444 118.083 219.5 Z M123.833 124 L159.417 103.833 80.5 58.75 49.917 76.167 C48.028 77.222 46.472 78.306 45.25 79.417 Z M171 97.25 L202.333 79.417 C201.111 78.306 199.583 77.222 197.75 76.167 L138.917 42.667 C133.75 39.667 128.722 38.167 123.833 38.167 118.889 38.167 113.833 39.667 108.667 42.667 L91.75 52.25 Z" fill="#000000" fill-opacity="1" stroke="none"/>
</svg>
