<?xml version="1.0" encoding="UTF-8"?>
<svg width="64px" height="64px" viewBox="0 0 64 64" xmlns="http://www.w3.org/2000/svg" xmlns:xlink="http://www.w3.org/1999/xlink" version="1.1">
 <!-- Generated by Pixelmator Pro 2.3 -->
 <path id="􀆅" d="M25.92 57.068 C27.159 57.068 28.136 56.527 28.851 55.443 L56.275 12.263 C56.526 11.856 56.71 11.484 56.826 11.145 56.942 10.807 57 10.464 57 10.115 57 9.322 56.758 8.684 56.275 8.2 55.791 7.716 55.152 7.475 54.359 7.475 53.779 7.475 53.305 7.586 52.937 7.808 52.57 8.031 52.212 8.413 51.864 8.955 L25.804 50.481 12.281 32.779 C11.585 31.831 10.753 31.357 9.786 31.357 8.973 31.357 8.306 31.614 7.784 32.126 7.261 32.639 7 33.292 7 34.085 7 34.433 7.068 34.786 7.203 35.144 7.339 35.502 7.551 35.855 7.842 36.204 L22.902 55.385 C23.773 56.507 24.779 57.068 25.92 57.068 Z" fill="#000000" fill-opacity="1" stroke="none"/>
</svg>
