<?xml version="1.0" encoding="UTF-8"?>
<svg width="1200px" height="1200px" viewBox="0 0 1200 1200" xmlns="http://www.w3.org/2000/svg" xmlns:xlink="http://www.w3.org/1999/xlink" version="1.1">
 <!-- Generated by Pixelmator Pro 2.3 -->
 <g id="New-Group">
  <g id="undraw_going_up_re_86kg">
   <path id="Path" d="M1054.816 712.748 C1053.042 709.687 1052.716 705.997 1053.925 702.672 1055.133 699.347 1057.753 696.728 1061.078 695.52 L1060.462 653.042 1079.066 664.927 1076.798 703.443 C1078.495 709.292 1075.548 715.485 1069.94 717.859 1064.332 720.233 1057.834 718.037 1054.816 712.748 Z" fill="#a0616a" fill-opacity="1" stroke="none"/>
   <path id="Path-1" d="M1032.395 482.128 C1021.024 484.138 1012.654 493.897 1012.401 505.442 1012.131 517.874 1016.28 522.509 1022.143 524.184 1032.98 527.281 1050.24 589.904 1050.24 589.904 1050.24 589.904 1052.072 648.313 1055.027 645.429 1057.981 642.544 1054.638 649.275 1055.535 651.328 1056.433 653.382 1051.28 656.458 1056.179 658.79 1061.078 661.123 1057.981 679.702 1057.981 679.702 L1079.657 678.154 C1079.657 678.154 1076.058 663.019 1080.954 662.071 1085.85 661.123 1083.625 656.816 1081.641 653.551 1079.657 650.286 1085.151 645.632 1082.404 644.088 1079.657 642.544 1087.398 582.163 1087.398 582.163 L1057.132 493.109 C1051.892 484.753 1042.107 480.41 1032.395 482.128 Z" fill="#a0b92c" fill-opacity="1" stroke="none"/>
   <path id="Path-2" d="M966.635 485.633 L982.228 458.304 1003.293 458.304 1019.093 487.182 Z" fill="#a0b92c" fill-opacity="1" stroke="none"/>
   <path id="Path-3" d="M1072.617 1023.462 L1058.607 1023.461 1051.942 969.416 1072.622 969.418 Z" fill="#a0616a" fill-opacity="1" stroke="none"/>
   <path id="Path-4" d="M1073.111 1038.078 L1030.025 1038.077 1030.025 1037.532 C1030.025 1028.271 1037.532 1020.763 1046.794 1020.761 L1046.796 1020.761 1054.667 1014.791 1069.351 1020.762 1073.112 1020.763 Z" fill="#2f2e41" fill-opacity="1" stroke="none"/>
   <path id="Path-5" d="M967.337 1023.462 L953.327 1023.461 946.661 969.416 967.341 969.418 Z" fill="#a0616a" fill-opacity="1" stroke="none"/>
   <path id="Path-6" d="M967.831 1038.078 L924.745 1038.077 924.745 1037.532 C924.745 1028.271 932.252 1020.763 941.514 1020.761 L941.516 1020.761 949.386 1014.791 964.071 1020.762 967.832 1020.763 Z" fill="#2f2e41" fill-opacity="1" stroke="none"/>
   <path id="Path-7" d="M1077.085 978.733 C1082.197 975.392 1079.236 975.609 1079.236 975.609 1079.236 975.609 1067.805 882.932 1059.109 854.847 L1049.045 718.081 C1049.045 718.081 1048.406 720.809 1049.045 714.178 1049.684 707.547 1054.329 712.192 1049.684 707.547 1045.039 702.902 1041.943 700.536 1045.039 697.074 1048.136 693.613 1056.678 686.61 1051.633 682.37 1046.588 678.131 1036.659 650.479 1036.659 650.479 L939.894 651.253 943.765 650.479 C943.765 650.479 931.686 645.998 937.219 651.834 942.752 657.67 934.122 671.961 931.026 685.895 928.461 697.436 920.848 700.498 931.026 702.926 941.204 705.353 931.993 712.232 931.993 712.232 931.993 712.232 916.671 785.176 928.283 833.171 928.283 833.171 936.293 951.877 940.348 962.087 944.404 972.296 945.952 966.103 944.404 972.296 942.856 978.489 939.759 967.651 942.856 978.489 944.545 984.15 945.883 989.91 946.861 995.736 L967.859 994.188 C967.859 994.188 972.735 978.818 967.859 974.783 962.983 970.748 966.35 982.524 971.633 973.539 976.917 964.555 970.724 967.651 969.176 955.265 967.627 942.879 981.832 885.18 971.633 849.778 L990.48 750.438 1020.403 853.298 C1020.403 853.298 1036.274 978.923 1041.431 983.351 1046.588 987.778 1044.505 977.03 1046.588 987.778 1048.692 998.639 1053.472 995.76 1053.337 997.091 1051.895 1011.292 1077.085 997.285 1077.085 997.285 1076.839 993.676 1076.839 990.055 1077.085 986.447 1077.552 983.134 1071.974 982.073 1077.085 978.733 Z" fill="#2f2e41" fill-opacity="1" stroke="none"/>
   <path id="Path-8" d="M949.605 682.799 C943.412 682.799 926.381 674.411 929.478 670.864 932.574 667.316 932.574 655.54 932.574 652.139 932.574 648.737 946.508 523.33 946.508 523.33 L945.449 492.625 C945.321 488.906 946.709 485.294 949.294 482.618 951.88 479.942 955.441 478.431 959.162 478.431 L972.828 473.786 1011.534 472.238 1030.835 478.431 C1034.729 478.431 1038.344 480.456 1040.377 483.777 1042.411 487.098 1042.572 491.237 1040.802 494.706 1051.043 511.427 1056.183 530.773 1055.592 550.372 1055.148 565.036 1047.718 582.944 1045.928 599.51 1045.771 600.964 1045.657 602.408 1045.595 603.838 1045.578 604.237 1042.409 606.225 1045.551 605.032 1048.692 603.838 1043.867 608.05 1045.505 610.589 1047.144 613.128 1050.319 611.572 1045.635 614.672 1040.951 617.773 1051.259 647.719 1050.24 648.737 1047.144 651.834 1040.951 653.382 1045.595 658.027 1050.24 662.672 1054.885 659.575 1048.692 665.768 1042.499 671.961 1023.945 682.799 1023.945 682.799 Z" fill="#3f3d56" fill-opacity="1" stroke="none"/>
   <path id="Path-9" d="M1024.318 420.937 C1024.318 439.34 1009.399 454.26 990.995 454.26 972.592 454.26 957.672 439.34 957.672 420.937 957.672 402.533 972.592 387.614 990.995 387.614 1009.399 387.614 1024.318 402.533 1024.318 420.937 Z" fill="#a0616a" fill-opacity="1" stroke="none"/>
   <path id="Path-10" d="M788.036 524.327 C791.272 522.896 794.975 522.973 798.149 524.535 801.324 526.098 803.643 528.986 804.482 532.423 L846.776 536.424 832.941 553.627 794.9 547.19 C788.901 548.241 783.064 544.64 781.313 538.807 779.562 532.974 782.451 526.753 788.036 524.327 Z" fill="#a0616a" fill-opacity="1" stroke="none"/>
   <path id="Path-11" d="M988.564 499.521 C986.554 488.15 976.795 479.78 965.251 479.527 952.819 479.258 948.183 483.406 946.508 489.269 943.412 500.106 893.563 538.203 893.563 538.203 L850.753 533.57 C848.178 532.733 849.399 530.389 839.72 532.376 834.952 529.253 831.87 529.782 829.216 531.239 L813.36 529.523 814.908 554.295 C814.908 554.295 831.882 550.257 835.035 557.391 838.188 564.526 837.467 565.55 844.325 560.488 851.183 555.425 850.518 560.488 850.518 560.488 L900.061 572.874 977.584 524.258 C985.94 519.018 990.283 509.234 988.564 499.521 Z" fill="#a0b92c" fill-opacity="1" stroke="none"/>
   <path id="Path-12" d="M1003.932 450.687 L1006.115 451.383 C999.288 451.956 987.119 455.765 988.311 453.659 989.503 451.554 984.998 443.611 987.196 442.605 989.482 441.803 991.52 440.421 993.11 438.595 994.504 436.644 994.473 433.424 992.383 432.232 990.354 431.055 987.846 432.324 985.834 433.517 983.805 434.693 980.059 417.384 981.019 411.981 975.367 408.884 968.524 414.814 962.177 413.653 958.29 412.94 955.488 409.751 953.723 406.128 956.607 403.393 958.753 399.974 959.963 396.189 957.268 397.546 954.388 398.501 951.416 399.022 950.883 396.211 950.957 393.318 951.633 390.537 952.686 386.03 955.922 382.346 960.257 380.722 964.717 379.243 969.607 381.057 972.023 385.088 972.292 380.764 969.74 376.76 965.707 375.179 968.615 373.67 972.061 373.606 975.023 375.007 977.985 376.407 980.122 379.111 980.802 382.316 987.793 378.812 995.816 377.955 1003.391 379.901 1010.884 381.867 1020.824 390.181 1020.824 390.181 1037.73 393.913 1036.925 458.195 1003.932 450.687 Z" fill="#2f2e41" fill-opacity="1" stroke="none"/>
  </g>
  <path id="Rectangle-copy" d="M503.93 571.94 L545.328 603.602 513.666 645 472.268 613.338 Z" fill="#f0f0f0" fill-opacity="1" stroke="none"/>
  <path id="Rectangle-copy-1" d="M608.961 685.94 L620.328 694.634 611.634 706 600.268 697.307 Z" fill="#f0f0f0" fill-opacity="1" stroke="none"/>
  <path id="Rectangle-copy-2" d="M694.654 599.94 L720 619.326 700.615 644.672 675.268 625.287 Z" fill="#f0f0f0" fill-opacity="1" stroke="none"/>
  <path id="Rectangle-copy-5" d="M448.64 855.913 L471.329 873.286 453.956 895.975 431.267 878.602 Z" fill="#f0f0f0" fill-opacity="1" stroke="none"/>
  <path id="Rectangle-copy-4" d="M508.961 929.94 L520.328 938.634 511.634 950 500.268 941.307 Z" fill="#f0f0f0" fill-opacity="1" stroke="none"/>
  <path id="Rectangle-copy-3" d="M553.208 871.323 L567.1 881.96 556.463 895.852 542.571 885.215 Z" fill="#f0f0f0" fill-opacity="1" stroke="none"/>
  <path id="Rectangle-copy-8" d="M750.24 734.94 L720.268 757.864 743.191 787.836 773.164 764.912 Z" fill="#f0f0f0" fill-opacity="1" stroke="none"/>
  <path id="Rectangle-copy-7" d="M669.17 849.477 L660.94 855.771 667.234 864 675.464 857.706 Z" fill="#f0f0f0" fill-opacity="1" stroke="none"/>
  <path id="Rectangle-copy-6" d="M585.592 772.212 L567.241 786.248 581.276 804.599 599.627 790.563 Z" fill="#f0f0f0" fill-opacity="1" stroke="none"/>
  <path id="Path-copy" d="M1161.411 1041.971 L39.589 1041.971 C38.711 1041.971 38 1041.303 38 1040.479 38 1039.655 38.711 1038.987 39.589 1038.987 L1161.411 1038.987 C1162.289 1038.987 1163 1039.655 1163 1040.479 1163 1041.303 1162.289 1041.971 1161.411 1041.971 Z" fill="#3f3d56" fill-opacity="1" stroke="none"/>
  <g id="undraw_typing_re_d4sq">
   <path id="Path-13" d="M317.328 159 L589.426 159 C608.634 159.022 624.201 174.646 624.222 193.927 L624.222 343.34 C624.201 362.621 608.634 378.245 589.426 378.267 L317.328 378.267 C298.119 378.245 282.553 362.621 282.531 343.34 L282.531 193.927 C282.553 174.646 298.119 159.022 317.328 159 Z" fill="#f2f2f2" fill-opacity="1" stroke="none"/>
   <path id="Path-14" d="M316.442 169.963 L588.484 169.963 C602.161 169.979 613.244 181.106 613.259 194.837 L613.259 344.258 C613.244 357.988 602.161 369.116 588.484 369.131 L316.442 369.131 C302.766 369.115 291.683 357.988 291.667 344.258 L291.667 194.837 C291.683 181.106 302.766 169.979 316.442 169.963 Z" fill="#ffffff" fill-opacity="1" stroke="none"/>
   <path id="Path-15" d="M318.027 431.257 C317.196 431.254 316.374 431.089 315.607 430.77 313.265 429.834 311.741 427.566 311.767 425.057 L311.767 373.281 381.201 370.958 322.386 429.43 C321.237 430.593 319.667 431.251 318.027 431.257 Z" fill="#f2f2f2" fill-opacity="1" stroke="none"/>
   <path id="Rectangle" d="M571.233 221.126 L571.233 221.126 C571.233 229.199 564.688 235.743 556.615 235.743 L350.139 235.743 C342.065 235.743 335.521 229.199 335.521 221.126 L335.521 221.126 C335.521 213.052 342.065 206.508 350.139 206.508 L556.615 206.508 C564.688 206.508 571.233 213.052 571.233 221.126 Z" fill="#f2f2f2" fill-opacity="1" stroke="none"/>
   <path id="Rectangle-1" d="M571.233 268.634 L571.233 268.634 C571.233 276.707 564.688 283.251 556.615 283.251 L350.139 283.251 C342.065 283.251 335.521 276.707 335.521 268.634 L335.521 268.634 C335.521 260.56 342.065 254.016 350.139 254.016 L556.615 254.016 C564.688 254.016 571.233 260.56 571.233 268.634 Z" fill="#f2f2f2" fill-opacity="1" stroke="none"/>
   <path id="Rectangle-2" d="M571.233 316.141 L571.233 316.141 C571.233 324.215 564.688 330.759 556.615 330.759 L350.139 330.759 C342.065 330.759 335.521 324.215 335.521 316.141 L335.521 316.141 C335.521 308.068 342.065 301.524 350.139 301.524 L556.615 301.524 C564.688 301.524 571.233 308.068 571.233 316.141 Z" fill="#f2f2f2" fill-opacity="1" stroke="none"/>
   <path id="Path-16" d="M746.567 233.916 L474.469 233.916 C455.261 233.938 439.694 249.562 439.673 268.843 L439.673 418.257 C439.694 437.537 455.261 453.162 474.469 453.183 L746.567 453.183 C765.776 453.162 781.342 437.537 781.364 418.257 L781.364 268.843 C781.342 249.562 765.776 233.938 746.567 233.916 Z" fill="#e6e6e6" fill-opacity="1" stroke="none"/>
   <path id="Path-17" d="M747.453 244.88 L475.411 244.88 C461.734 244.895 450.651 256.022 450.636 269.753 L450.636 419.174 C450.651 432.905 461.734 444.032 475.411 444.047 L747.453 444.047 C761.129 444.032 772.212 432.905 772.228 419.174 L772.228 269.753 C772.212 256.022 761.13 244.895 747.453 244.88 Z" fill="#ffffff" fill-opacity="1" stroke="none"/>
   <path id="Path-18" d="M726.892 506.173 L668.076 447.702 737.51 450.024 737.51 501.801 C737.537 504.31 736.012 506.578 733.67 507.513 732.904 507.832 732.081 507.998 731.25 508 729.61 507.995 728.04 507.337 726.892 506.173 Z" fill="#e6e6e6" fill-opacity="1" stroke="none"/>
   <path id="Oval" d="M571.233 344.463 C571.233 355.059 562.643 363.649 552.047 363.649 541.451 363.649 532.861 355.059 532.861 344.463 532.861 333.867 541.451 325.278 552.047 325.278 562.643 325.278 571.233 333.867 571.233 344.463 Z" fill="#a0b92c" fill-opacity="1" stroke="none"/>
   <path id="Oval-1" d="M629.704 344.463 C629.704 355.059 621.114 363.649 610.518 363.649 599.922 363.649 591.332 355.059 591.332 344.463 591.332 333.867 599.922 325.278 610.518 325.278 621.114 325.278 629.704 333.867 629.704 344.463 Z" fill="#a0b92c" fill-opacity="1" stroke="none"/>
   <path id="Oval-2" d="M690.003 345.059 C690.003 355.655 681.413 364.245 670.817 364.245 660.221 364.245 651.631 355.655 651.631 345.059 651.631 334.463 660.221 325.873 670.817 325.873 681.413 325.873 690.003 334.463 690.003 345.059 Z" fill="#a0b92c" fill-opacity="1" stroke="none"/>
  </g>
 </g>
</svg>
