<?xml version="1.0" encoding="UTF-8"?>
<svg width="418px" height="418px" viewBox="0 0 418 418" xmlns="http://www.w3.org/2000/svg" xmlns:xlink="http://www.w3.org/1999/xlink" version="1.1">
 <!-- Generated by Pixelmator Pro 2.3 -->
 <path id="Shape" d="M210 364.699 C74.141 364.884 63.202 364.775 59.399 363.199 57.143 362.265 53.768 360.428 51.899 359.117 50.029 357.806 47.421 355.405 46.103 353.781 44.784 352.156 43.116 349.179 42.396 347.164 41.374 344.303 41.078 330.118 41.044 282.411 41.02 248.812 41.298 211.753 41.662 200.057 42.325 178.791 42.325 178.791 45.412 179.355 47.111 179.666 61.325 183.785 77 188.51 92.675 193.234 112.7 199.133 121.5 201.617 134.207 205.204 138.565 206.034 142.675 205.647 145.521 205.379 149.866 204.268 152.331 203.178 154.796 202.087 158.561 199.394 160.698 197.192 162.835 194.989 169.188 185.383 174.814 175.844 180.441 166.305 190.177 149.736 196.45 139.024 202.722 128.313 208.301 119.4 208.847 119.218 209.392 119.036 213.633 125.325 218.269 133.193 222.906 141.062 232.437 157.4 239.449 169.5 246.461 181.6 253.416 193.043 254.903 194.93 256.39 196.816 260.269 199.833 263.523 201.635 266.885 203.497 271.66 205.188 274.587 205.554 278.856 206.087 282.277 205.48 294.617 201.998 302.803 199.688 316.475 195.773 325 193.297 333.525 190.821 347.244 186.771 355.486 184.296 363.728 181.822 371.951 179.558 373.758 179.264 377.044 178.731 377.044 178.731 376.772 262.616 376.526 338.459 376.341 346.788 374.846 349.5 373.936 351.15 371.525 354.161 369.489 356.19 367.453 358.22 363.697 360.92 361.143 362.19 356.5 364.5 356.5 364.5 210 364.699 Z M140.139 183.94 C138.138 183.906 129.75 181.91 121.5 179.502 113.25 177.095 88.5 169.677 66.5 163.018 44.5 156.359 21.55 149.351 15.5 147.444 7.828 145.027 3.819 143.208 2.25 141.433 0.73 139.714 -0 137.613 -0 134.958 -0 132.206 2.051 126.603 6.842 116.264 10.606 108.144 18.184 92.25 23.683 80.944 29.182 69.638 35.024 58.885 36.665 57.049 39.649 53.709 39.649 53.709 49.075 54.257 54.259 54.559 74.025 56.876 93 59.406 111.975 61.936 132.45 64.683 138.5 65.51 144.55 66.337 162.887 68.799 179.249 70.982 204.981 74.415 209.977 74.823 216.249 74.004 220.237 73.482 235.425 71.451 250 69.489 264.575 67.527 281.45 65.281 287.5 64.499 293.55 63.716 305.475 62.152 314 61.023 322.525 59.895 336.025 58.037 344 56.895 351.975 55.753 363.014 54.575 368.53 54.277 378.56 53.735 378.56 53.735 381.53 57.148 383.164 59.025 388.948 69.689 394.384 80.847 399.82 92.005 407.347 107.741 411.11 115.817 416.089 126.503 417.958 131.642 417.976 134.694 417.993 137.632 417.326 139.668 415.75 141.489 414.035 143.47 409.812 145.241 398 148.933 389.475 151.597 371.25 157.171 357.5 161.318 343.75 165.466 322.375 171.851 310 175.507 297.625 179.162 285.199 182.649 282.386 183.255 278.402 184.112 276.57 184.065 274.093 183.038 271.497 181.963 269.107 178.669 261.087 165.111 255.683 155.975 246.182 139.725 239.973 129 233.765 118.275 224.375 102.188 219.107 93.25 213.84 84.313 209.298 77.012 209.015 77.028 208.732 77.043 204.828 83.23 200.339 90.778 195.851 98.325 187.351 112.825 181.451 123 175.552 133.175 165.568 150.275 159.266 161 152.965 171.725 146.902 181.287 145.793 182.25 144.627 183.263 142.246 183.975 140.139 183.94 Z" fill="#a0b92d" fill-opacity="1" stroke="none"/>
 <defs>
  <path id="ritira-qui-gli-acquisti-che-fai-on-line" d="M337.902 343.184 C338.53 343.184 339.074 343.104 339.535 342.943 339.996 342.783 340.382 342.576 340.691 342.32 341.001 342.065 341.245 341.79 341.424 341.496 341.602 341.202 341.724 340.921 341.789 340.652 L341.809 340.57 339.684 340.574 339.66 340.621 C339.608 340.728 339.51 340.848 339.367 340.982 339.224 341.117 339.035 341.232 338.801 341.33 338.566 341.428 338.283 341.477 337.949 341.477 337.538 341.477 337.183 341.385 336.885 341.203 336.587 341.021 336.357 340.758 336.197 340.414 336.037 340.07 335.957 339.656 335.957 339.172 L335.957 338.254 C335.957 337.754 336.038 337.33 336.201 336.982 336.364 336.635 336.587 336.371 336.871 336.191 337.155 336.012 337.48 335.922 337.848 335.922 338.217 335.922 338.542 336.009 338.82 336.184 339.099 336.358 339.317 336.618 339.475 336.963 339.632 337.308 339.711 337.738 339.711 338.254 L339.711 339.164 340.781 337.813 334.836 337.813 334.836 339.242 341.879 339.242 341.879 338.535 C341.879 337.665 341.714 336.907 341.385 336.26 341.055 335.613 340.586 335.11 339.977 334.752 339.367 334.394 338.645 334.215 337.809 334.215 336.973 334.215 336.247 334.399 335.631 334.768 335.015 335.136 334.538 335.656 334.201 336.328 333.864 337 333.695 337.793 333.695 338.707 L333.695 338.715 C333.695 339.634 333.865 340.428 334.203 341.096 334.542 341.764 335.025 342.279 335.652 342.641 336.28 343.003 337.03 343.184 337.902 343.184 Z M324.398 343 L326.68 343 326.68 338.027 C326.68 337.637 326.748 337.298 326.885 337.012 327.021 336.725 327.216 336.503 327.469 336.344 327.721 336.185 328.023 336.105 328.375 336.105 328.914 336.105 329.311 336.262 329.566 336.574 329.822 336.887 329.949 337.348 329.949 337.957 L329.949 343 332.23 343 332.23 337.438 C332.23 336.409 331.98 335.615 331.479 335.055 330.977 334.495 330.247 334.215 329.289 334.215 328.674 334.215 328.159 334.35 327.742 334.621 327.326 334.892 327.018 335.26 326.82 335.727 L326.68 335.727 326.68 334.398 324.398 334.398 Z M320.133 343 L322.414 343 322.414 334.398 320.133 334.398 Z M321.277 333.078 C321.632 333.078 321.934 332.954 322.186 332.707 322.437 332.46 322.563 332.161 322.563 331.813 322.563 331.458 322.437 331.158 322.186 330.912 321.934 330.666 321.632 330.543 321.277 330.543 320.928 330.543 320.627 330.666 320.373 330.912 320.119 331.158 319.992 331.458 319.992 331.813 319.992 332.161 320.119 332.46 320.373 332.707 320.627 332.954 320.928 333.078 321.277 333.078 Z M315.789 343 L318.07 343 318.07 331.109 315.789 331.109 Z M308.41 339.477 L313.605 339.477 313.605 337.422 308.41 337.422 Z M298.551 343 L300.832 343 300.832 338.027 C300.832 337.637 300.9 337.298 301.037 337.012 301.174 336.725 301.368 336.503 301.621 336.344 301.874 336.185 302.176 336.105 302.527 336.105 303.066 336.105 303.464 336.262 303.719 336.574 303.974 336.887 304.102 337.348 304.102 337.957 L304.102 343 306.383 343 306.383 337.438 C306.383 336.409 306.132 335.615 305.631 335.055 305.13 334.495 304.4 334.215 303.441 334.215 302.827 334.215 302.311 334.35 301.895 334.621 301.478 334.892 301.171 335.26 300.973 335.727 L300.832 335.727 300.832 334.398 298.551 334.398 Z M292.766 343.184 C293.651 343.184 294.41 343.005 295.043 342.646 295.676 342.288 296.161 341.775 296.5 341.105 296.839 340.436 297.008 339.635 297.008 338.703 L297.008 338.688 C297.008 337.76 296.837 336.963 296.494 336.295 296.152 335.627 295.664 335.113 295.031 334.754 294.398 334.395 293.643 334.215 292.766 334.215 291.893 334.215 291.14 334.395 290.506 334.756 289.872 335.117 289.383 335.631 289.039 336.299 288.695 336.967 288.523 337.763 288.523 338.688 L288.523 338.703 C288.523 339.635 288.693 340.436 289.033 341.105 289.373 341.775 289.86 342.288 290.494 342.646 291.128 343.005 291.885 343.184 292.766 343.184 Z M292.766 341.395 C292.362 341.395 292.018 341.288 291.734 341.076 291.451 340.864 291.234 340.557 291.084 340.156 290.934 339.755 290.859 339.272 290.859 338.707 L290.859 338.691 C290.859 338.129 290.935 337.648 291.086 337.248 291.237 336.848 291.454 336.541 291.738 336.326 292.022 336.111 292.365 336.004 292.766 336.004 293.169 336.004 293.512 336.111 293.795 336.326 294.077 336.541 294.294 336.848 294.445 337.248 294.596 337.648 294.672 338.129 294.672 338.691 L294.672 338.707 C294.672 339.27 294.597 339.751 294.447 340.152 294.298 340.553 294.081 340.861 293.799 341.074 293.516 341.288 293.172 341.395 292.766 341.395 Z M280.871 343 L283.152 343 283.152 334.398 280.871 334.398 Z M282.016 333.078 C282.37 333.078 282.673 332.954 282.924 332.707 283.175 332.46 283.301 332.161 283.301 331.813 283.301 331.458 283.175 331.158 282.924 330.912 282.673 330.666 282.37 330.543 282.016 330.543 281.667 330.543 281.365 330.666 281.111 330.912 280.857 331.158 280.73 331.458 280.73 331.813 280.73 332.161 280.857 332.46 281.111 332.707 281.365 332.954 281.667 333.078 282.016 333.078 Z M274.078 343.137 C274.453 343.137 274.8 343.086 275.119 342.984 275.438 342.883 275.719 342.736 275.963 342.545 276.206 342.354 276.4 342.126 276.543 341.863 L276.684 341.863 276.684 343 278.934 343 278.934 337.129 C278.934 336.517 278.795 335.993 278.518 335.559 278.24 335.124 277.836 334.791 277.305 334.561 276.773 334.33 276.126 334.215 275.363 334.215 274.645 334.215 274.014 334.319 273.471 334.527 272.928 334.736 272.495 335.027 272.174 335.4 271.852 335.774 271.661 336.214 271.602 336.719 L271.594 336.793 273.703 336.793 273.715 336.762 C273.806 336.507 273.98 336.309 274.238 336.17 274.496 336.031 274.831 335.961 275.242 335.961 275.711 335.961 276.068 336.062 276.314 336.264 276.561 336.465 276.684 336.754 276.684 337.129 L276.684 339.871 C276.684 340.173 276.604 340.445 276.443 340.686 276.283 340.926 276.064 341.117 275.787 341.258 275.51 341.398 275.195 341.469 274.844 341.469 274.448 341.469 274.124 341.375 273.873 341.188 273.622 341 273.496 340.743 273.496 340.418 L273.496 340.402 C273.496 340.087 273.617 339.839 273.857 339.658 274.098 339.477 274.462 339.372 274.949 339.344 L277.809 339.16 277.809 337.77 274.609 337.961 C273.539 338.023 272.715 338.275 272.139 338.717 271.562 339.158 271.273 339.766 271.273 340.539 L271.273 340.555 C271.273 341.076 271.393 341.53 271.633 341.918 271.872 342.306 272.204 342.606 272.627 342.818 273.05 343.031 273.534 343.137 274.078 343.137 Z M266.453 343 L268.734 343 268.734 336.117 270.508 336.117 270.508 334.398 268.688 334.398 268.688 333.754 C268.688 333.376 268.779 333.088 268.963 332.889 269.146 332.689 269.458 332.59 269.898 332.59 270.047 332.59 270.18 332.594 270.297 332.602 270.414 332.609 270.508 332.62 270.578 332.633 L270.578 331.113 C270.414 331.087 270.236 331.066 270.045 331.051 269.854 331.035 269.641 331.027 269.406 331.027 268.37 331.027 267.618 331.242 267.152 331.672 266.686 332.102 266.453 332.743 266.453 333.598 L266.453 334.398 265.063 334.398 265.063 336.117 266.453 336.117 Z M256.461 343.184 C257.089 343.184 257.633 343.104 258.094 342.943 258.555 342.783 258.94 342.576 259.25 342.32 259.56 342.065 259.804 341.79 259.982 341.496 260.161 341.202 260.283 340.921 260.348 340.652 L260.367 340.57 258.242 340.574 258.219 340.621 C258.167 340.728 258.069 340.848 257.926 340.982 257.783 341.117 257.594 341.232 257.359 341.33 257.125 341.428 256.841 341.477 256.508 341.477 256.096 341.477 255.742 341.385 255.443 341.203 255.145 341.021 254.916 340.758 254.756 340.414 254.596 340.07 254.516 339.656 254.516 339.172 L254.516 338.254 C254.516 337.754 254.597 337.33 254.76 336.982 254.923 336.635 255.146 336.371 255.43 336.191 255.714 336.012 256.039 335.922 256.406 335.922 256.776 335.922 257.1 336.009 257.379 336.184 257.658 336.358 257.876 336.618 258.033 336.963 258.191 337.308 258.27 337.738 258.27 338.254 L258.27 339.164 259.34 337.813 253.395 337.813 253.395 339.242 260.438 339.242 260.438 338.535 C260.438 337.665 260.273 336.907 259.943 336.26 259.614 335.613 259.145 335.11 258.535 334.752 257.926 334.394 257.203 334.215 256.367 334.215 255.531 334.215 254.805 334.399 254.189 334.768 253.574 335.136 253.097 335.656 252.76 336.328 252.423 337 252.254 337.793 252.254 338.707 L252.254 338.715 C252.254 339.634 252.423 340.428 252.762 341.096 253.1 341.764 253.583 342.279 254.211 342.641 254.839 343.003 255.589 343.184 256.461 343.184 Z M242.957 343 L245.238 343 245.238 338.027 C245.238 337.637 245.307 337.298 245.443 337.012 245.58 336.725 245.775 336.503 246.027 336.344 246.28 336.185 246.582 336.105 246.934 336.105 247.473 336.105 247.87 336.262 248.125 336.574 248.38 336.887 248.508 337.348 248.508 337.957 L248.508 343 250.789 343 250.789 337.438 C250.789 336.753 250.676 336.171 250.451 335.691 250.226 335.212 249.895 334.846 249.459 334.594 249.023 334.341 248.486 334.215 247.848 334.215 247.233 334.215 246.717 334.35 246.301 334.621 245.884 334.892 245.577 335.26 245.379 335.727 L245.238 335.727 245.238 331.109 242.957 331.109 Z M237.582 343.184 C238.332 343.184 238.977 343.057 239.518 342.803 240.058 342.549 240.488 342.191 240.807 341.729 241.126 341.266 241.326 340.724 241.406 340.102 L241.41 340.051 239.297 340.059 239.281 340.082 C239.182 340.517 238.993 340.844 238.713 341.064 238.433 341.285 238.059 341.395 237.59 341.395 237.184 341.395 236.839 341.29 236.557 341.082 236.274 340.874 236.059 340.568 235.91 340.164 235.762 339.76 235.688 339.268 235.688 338.688 L235.688 338.672 C235.688 338.096 235.761 337.611 235.908 337.215 236.055 336.819 236.27 336.518 236.553 336.313 236.835 336.107 237.181 336.004 237.59 336.004 238.077 336.004 238.463 336.13 238.748 336.381 239.033 336.632 239.214 336.966 239.289 337.383 L239.297 337.398 241.414 337.398 241.418 337.375 C241.35 336.734 241.158 336.178 240.84 335.705 240.522 335.232 240.089 334.866 239.541 334.605 238.993 334.345 238.339 334.215 237.578 334.215 236.682 334.215 235.921 334.39 235.293 334.74 234.665 335.091 234.188 335.597 233.859 336.26 233.531 336.923 233.367 337.727 233.367 338.672 L233.367 338.688 C233.367 339.641 233.532 340.452 233.861 341.123 234.191 341.794 234.669 342.305 235.297 342.656 235.924 343.008 236.686 343.184 237.582 343.184 Z M225.715 343 L227.996 343 227.996 334.398 225.715 334.398 Z M226.859 333.078 C227.214 333.078 227.516 332.954 227.768 332.707 228.019 332.46 228.145 332.161 228.145 331.813 228.145 331.458 228.019 331.158 227.768 330.912 227.516 330.666 227.214 330.543 226.859 330.543 226.51 330.543 226.209 330.666 225.955 330.912 225.701 331.158 225.574 331.458 225.574 331.813 225.574 332.161 225.701 332.46 225.955 332.707 226.209 332.954 226.51 333.078 226.859 333.078 Z M222.98 343.031 C223.202 343.031 223.412 343.021 223.611 343.002 223.811 342.982 223.98 342.96 224.121 342.934 L224.121 341.238 C224.012 341.249 223.909 341.257 223.813 341.264 223.716 341.27 223.595 341.273 223.449 341.273 223.064 341.273 222.783 341.184 222.607 341.004 222.432 340.824 222.344 340.542 222.344 340.156 L222.344 336.117 224.121 336.117 224.121 334.398 222.344 334.398 222.344 332.344 220.039 332.344 220.039 334.398 218.715 334.398 218.715 336.117 220.039 336.117 220.039 340.684 C220.039 341.517 220.268 342.117 220.727 342.482 221.185 342.848 221.936 343.031 222.98 343.031 Z M214.117 343.184 C214.854 343.184 215.506 343.068 216.072 342.836 216.639 342.604 217.083 342.277 217.406 341.854 217.729 341.43 217.891 340.936 217.891 340.371 L217.891 340.359 C217.891 339.724 217.686 339.219 217.275 338.844 216.865 338.469 216.229 338.189 215.367 338.004 L213.938 337.699 C213.495 337.603 213.183 337.482 213.002 337.338 212.821 337.193 212.73 337.007 212.73 336.777 L212.73 336.766 C212.73 336.573 212.788 336.406 212.904 336.266 213.02 336.125 213.18 336.016 213.383 335.939 213.586 335.863 213.819 335.824 214.082 335.824 214.509 335.824 214.848 335.914 215.098 336.094 215.348 336.273 215.503 336.48 215.563 336.715 L215.57 336.75 217.691 336.75 217.691 336.723 C217.66 336.259 217.503 335.838 217.219 335.459 216.935 335.08 216.53 334.778 216.004 334.553 215.478 334.327 214.839 334.215 214.086 334.215 213.372 334.215 212.746 334.327 212.207 334.551 211.668 334.775 211.249 335.088 210.951 335.49 210.653 335.893 210.504 336.365 210.504 336.906 L210.504 336.914 C210.504 337.557 210.708 338.082 211.115 338.488 211.523 338.895 212.137 339.186 212.957 339.363 L214.391 339.668 C214.828 339.764 215.141 339.888 215.328 340.039 215.516 340.19 215.609 340.382 215.609 340.613 L215.609 340.625 C215.609 340.815 215.548 340.98 215.424 341.121 215.3 341.262 215.129 341.372 214.91 341.451 214.691 341.531 214.435 341.57 214.141 341.57 213.693 341.57 213.337 341.484 213.074 341.313 212.811 341.141 212.633 340.922 212.539 340.656 L212.527 340.625 210.285 340.625 210.289 340.66 C210.344 341.15 210.526 341.585 210.836 341.965 211.146 342.345 211.576 342.643 212.125 342.859 212.674 343.076 213.339 343.184 214.117 343.184 Z M206.434 343 L208.715 343 208.715 334.398 206.434 334.398 Z M207.578 333.078 C207.932 333.078 208.235 332.954 208.486 332.707 208.738 332.46 208.863 332.161 208.863 331.813 208.863 331.458 208.738 331.158 208.486 330.912 208.235 330.666 207.932 330.543 207.578 330.543 207.229 330.543 206.928 330.666 206.674 330.912 206.42 331.158 206.293 331.458 206.293 331.813 206.293 332.161 206.42 332.46 206.674 332.707 206.928 332.954 207.229 333.078 207.578 333.078 Z M199.535 343.184 C200.15 343.184 200.671 343.049 201.098 342.779 201.525 342.51 201.835 342.142 202.027 341.676 L202.168 341.676 202.168 343 204.449 343 204.449 334.398 202.168 334.398 202.168 339.371 C202.168 339.757 202.102 340.094 201.969 340.383 201.836 340.672 201.641 340.896 201.383 341.055 201.125 341.214 200.809 341.293 200.434 341.293 199.895 341.293 199.504 341.136 199.262 340.822 199.02 340.508 198.898 340.048 198.898 339.441 L198.898 334.398 196.617 334.398 196.617 339.961 C196.617 340.643 196.727 341.225 196.945 341.707 197.164 342.189 197.49 342.555 197.924 342.807 198.357 343.058 198.895 343.184 199.535 343.184 Z M192.453 345.852 L194.734 345.852 194.734 334.398 192.453 334.398 192.453 335.813 192.348 335.813 C192.191 335.49 191.984 335.212 191.727 334.98 191.469 334.749 191.173 334.571 190.84 334.447 190.507 334.324 190.145 334.262 189.754 334.262 189.022 334.262 188.393 334.439 187.867 334.793 187.341 335.147 186.938 335.655 186.658 336.316 186.378 336.978 186.238 337.77 186.238 338.691 L186.238 338.707 C186.238 339.621 186.379 340.409 186.66 341.072 186.941 341.735 187.342 342.245 187.863 342.602 188.384 342.958 189.003 343.137 189.719 343.137 190.13 343.137 190.505 343.079 190.844 342.965 191.182 342.85 191.477 342.684 191.729 342.467 191.98 342.249 192.174 341.99 192.313 341.688 L192.453 341.688 Z M190.516 341.246 C190.112 341.246 189.764 341.145 189.473 340.941 189.181 340.738 188.956 340.447 188.797 340.066 188.638 339.686 188.559 339.233 188.559 338.707 L188.559 338.691 C188.559 338.165 188.637 337.713 188.795 337.334 188.952 336.955 189.178 336.663 189.473 336.459 189.767 336.255 190.113 336.152 190.512 336.152 190.913 336.152 191.26 336.255 191.553 336.459 191.846 336.663 192.074 336.956 192.236 337.336 192.399 337.716 192.48 338.169 192.48 338.695 L192.48 338.711 C192.48 339.232 192.4 339.682 192.238 340.063 192.077 340.443 191.85 340.735 191.557 340.939 191.264 341.144 190.917 341.246 190.516 341.246 Z M181.352 343.184 C182.102 343.184 182.747 343.057 183.287 342.803 183.827 342.549 184.257 342.191 184.576 341.729 184.895 341.266 185.095 340.724 185.176 340.102 L185.18 340.051 183.066 340.059 183.051 340.082 C182.952 340.517 182.762 340.844 182.482 341.064 182.202 341.285 181.828 341.395 181.359 341.395 180.953 341.395 180.609 341.29 180.326 341.082 180.044 340.874 179.828 340.568 179.68 340.164 179.531 339.76 179.457 339.268 179.457 338.688 L179.457 338.672 C179.457 338.096 179.531 337.611 179.678 337.215 179.825 336.819 180.04 336.518 180.322 336.313 180.605 336.107 180.951 336.004 181.359 336.004 181.846 336.004 182.232 336.13 182.518 336.381 182.803 336.632 182.983 336.966 183.059 337.383 L183.066 337.398 185.184 337.398 185.188 337.375 C185.12 336.734 184.927 336.178 184.609 335.705 184.292 335.232 183.859 334.866 183.311 334.605 182.762 334.345 182.108 334.215 181.348 334.215 180.452 334.215 179.69 334.39 179.063 334.74 178.435 335.091 177.957 335.597 177.629 336.26 177.301 336.923 177.137 337.727 177.137 338.672 L177.137 338.688 C177.137 339.641 177.301 340.452 177.631 341.123 177.96 341.794 178.439 342.305 179.066 342.656 179.694 343.008 180.456 343.184 181.352 343.184 Z M170.785 343.137 C171.16 343.137 171.507 343.086 171.826 342.984 172.145 342.883 172.426 342.736 172.67 342.545 172.913 342.354 173.107 342.126 173.25 341.863 L173.391 341.863 173.391 343 175.641 343 175.641 337.129 C175.641 336.517 175.502 335.993 175.225 335.559 174.947 335.124 174.543 334.791 174.012 334.561 173.48 334.33 172.833 334.215 172.07 334.215 171.352 334.215 170.721 334.319 170.178 334.527 169.635 334.736 169.202 335.027 168.881 335.4 168.559 335.774 168.368 336.214 168.309 336.719 L168.301 336.793 170.41 336.793 170.422 336.762 C170.513 336.507 170.688 336.309 170.945 336.17 171.203 336.031 171.538 335.961 171.949 335.961 172.418 335.961 172.775 336.062 173.021 336.264 173.268 336.465 173.391 336.754 173.391 337.129 L173.391 339.871 C173.391 340.173 173.311 340.445 173.15 340.686 172.99 340.926 172.771 341.117 172.494 341.258 172.217 341.398 171.902 341.469 171.551 341.469 171.155 341.469 170.831 341.375 170.58 341.188 170.329 341 170.203 340.743 170.203 340.418 L170.203 340.402 C170.203 340.087 170.324 339.839 170.564 339.658 170.805 339.477 171.169 339.372 171.656 339.344 L174.516 339.16 174.516 337.77 171.316 337.961 C170.246 338.023 169.423 338.275 168.846 338.717 168.269 339.158 167.98 339.766 167.98 340.539 L167.98 340.555 C167.98 341.076 168.1 341.53 168.34 341.918 168.579 342.306 168.911 342.606 169.334 342.818 169.757 343.031 170.241 343.137 170.785 343.137 Z M160.363 343 L162.645 343 162.645 334.398 160.363 334.398 Z M161.508 333.078 C161.862 333.078 162.165 332.954 162.416 332.707 162.667 332.46 162.793 332.161 162.793 331.813 162.793 331.458 162.667 331.158 162.416 330.912 162.165 330.666 161.862 330.543 161.508 330.543 161.159 330.543 160.857 330.666 160.604 330.912 160.35 331.158 160.223 331.458 160.223 331.813 160.223 332.161 160.35 332.46 160.604 332.707 160.857 332.954 161.159 333.078 161.508 333.078 Z M156.02 343 L158.301 343 158.301 331.109 156.02 331.109 Z M149.723 346.023 C150.592 346.023 151.345 345.889 151.98 345.621 152.616 345.353 153.107 344.973 153.453 344.48 153.799 343.988 153.973 343.406 153.973 342.734 L153.973 334.398 151.691 334.398 151.691 335.805 151.586 335.805 C151.432 335.482 151.23 335.206 150.98 334.977 150.73 334.747 150.44 334.571 150.109 334.447 149.779 334.324 149.415 334.262 149.02 334.262 148.285 334.262 147.654 334.439 147.127 334.793 146.6 335.147 146.194 335.641 145.91 336.275 145.626 336.91 145.484 337.648 145.484 338.492 L145.484 338.508 C145.484 339.323 145.626 340.04 145.908 340.658 146.191 341.277 146.594 341.759 147.117 342.105 147.641 342.452 148.262 342.625 148.98 342.625 149.379 342.625 149.743 342.572 150.074 342.467 150.405 342.361 150.696 342.204 150.947 341.994 151.199 341.785 151.402 341.529 151.559 341.227 L151.699 341.227 151.699 342.828 C151.699 343.328 151.531 343.715 151.193 343.988 150.856 344.262 150.383 344.398 149.773 344.398 149.266 344.398 148.865 344.32 148.572 344.164 148.279 344.008 148.102 343.806 148.039 343.559 L148.027 343.527 145.773 343.527 145.77 343.566 C145.835 344.051 146.028 344.479 146.35 344.85 146.671 345.221 147.115 345.509 147.682 345.715 148.248 345.921 148.928 346.023 149.723 346.023 Z M149.754 340.875 C149.345 340.875 148.997 340.775 148.709 340.576 148.421 340.377 148.201 340.099 148.049 339.742 147.896 339.385 147.82 338.971 147.82 338.5 L147.82 338.484 C147.82 338.013 147.896 337.599 148.049 337.242 148.201 336.885 148.421 336.607 148.709 336.408 148.997 336.209 149.345 336.109 149.754 336.109 150.165 336.109 150.518 336.209 150.811 336.408 151.104 336.607 151.329 336.886 151.486 337.244 151.644 337.602 151.723 338.017 151.723 338.488 L151.723 338.504 C151.723 338.975 151.644 339.389 151.486 339.744 151.329 340.1 151.104 340.377 150.811 340.576 150.518 340.775 150.165 340.875 149.754 340.875 Z M137.852 343 L140.133 343 140.133 334.398 137.852 334.398 Z M138.996 333.078 C139.35 333.078 139.653 332.954 139.904 332.707 140.156 332.46 140.281 332.161 140.281 331.813 140.281 331.458 140.156 331.158 139.904 330.912 139.653 330.666 139.35 330.543 138.996 330.543 138.647 330.543 138.346 330.666 138.092 330.912 137.838 331.158 137.711 331.458 137.711 331.813 137.711 332.161 137.838 332.46 138.092 332.707 138.346 332.954 138.647 333.078 138.996 333.078 Z M130.953 343.184 C131.568 343.184 132.089 343.049 132.516 342.779 132.943 342.51 133.253 342.142 133.445 341.676 L133.586 341.676 133.586 343 135.867 343 135.867 334.398 133.586 334.398 133.586 339.371 C133.586 339.757 133.52 340.094 133.387 340.383 133.254 340.672 133.059 340.896 132.801 341.055 132.543 341.214 132.227 341.293 131.852 341.293 131.313 341.293 130.922 341.136 130.68 340.822 130.438 340.508 130.316 340.048 130.316 339.441 L130.316 334.398 128.035 334.398 128.035 339.961 C128.035 340.643 128.145 341.225 128.363 341.707 128.582 342.189 128.908 342.555 129.342 342.807 129.775 343.058 130.313 343.184 130.953 343.184 Z M123.871 345.852 L126.152 345.852 126.152 334.398 123.871 334.398 123.871 335.813 123.766 335.813 C123.609 335.49 123.402 335.212 123.145 334.98 122.887 334.749 122.591 334.571 122.258 334.447 121.924 334.324 121.563 334.262 121.172 334.262 120.44 334.262 119.811 334.439 119.285 334.793 118.759 335.147 118.356 335.655 118.076 336.316 117.796 336.978 117.656 337.77 117.656 338.691 L117.656 338.707 C117.656 339.621 117.797 340.409 118.078 341.072 118.359 341.735 118.76 342.245 119.281 342.602 119.802 342.958 120.421 343.137 121.137 343.137 121.548 343.137 121.923 343.079 122.262 342.965 122.6 342.85 122.895 342.684 123.146 342.467 123.398 342.249 123.592 341.99 123.73 341.688 L123.871 341.688 Z M121.934 341.246 C121.53 341.246 121.182 341.145 120.891 340.941 120.599 340.738 120.374 340.447 120.215 340.066 120.056 339.686 119.977 339.233 119.977 338.707 L119.977 338.691 C119.977 338.165 120.055 337.713 120.213 337.334 120.37 336.955 120.596 336.663 120.891 336.459 121.185 336.255 121.531 336.152 121.93 336.152 122.331 336.152 122.678 336.255 122.971 336.459 123.264 336.663 123.492 336.956 123.654 337.336 123.817 337.716 123.898 338.169 123.898 338.695 L123.898 338.711 C123.898 339.232 123.818 339.682 123.656 340.063 123.495 340.443 123.268 340.735 122.975 340.939 122.682 341.144 122.335 341.246 121.934 341.246 Z M107.477 343.137 C107.852 343.137 108.199 343.086 108.518 342.984 108.837 342.883 109.118 342.736 109.361 342.545 109.605 342.354 109.798 342.126 109.941 341.863 L110.082 341.863 110.082 343 112.332 343 112.332 337.129 C112.332 336.517 112.193 335.993 111.916 335.559 111.639 335.124 111.234 334.791 110.703 334.561 110.172 334.33 109.525 334.215 108.762 334.215 108.043 334.215 107.412 334.319 106.869 334.527 106.326 334.736 105.894 335.027 105.572 335.4 105.251 335.774 105.06 336.214 105 336.719 L104.992 336.793 107.102 336.793 107.113 336.762 C107.204 336.507 107.379 336.309 107.637 336.17 107.895 336.031 108.229 335.961 108.641 335.961 109.109 335.961 109.467 336.062 109.713 336.264 109.959 336.465 110.082 336.754 110.082 337.129 L110.082 339.871 C110.082 340.173 110.002 340.445 109.842 340.686 109.682 340.926 109.463 341.117 109.186 341.258 108.908 341.398 108.594 341.469 108.242 341.469 107.846 341.469 107.523 341.375 107.271 341.188 107.02 341 106.895 340.743 106.895 340.418 L106.895 340.402 C106.895 340.087 107.015 339.839 107.256 339.658 107.497 339.477 107.861 339.372 108.348 339.344 L111.207 339.16 111.207 337.77 108.008 337.961 C106.937 338.023 106.114 338.275 105.537 338.717 104.96 339.158 104.672 339.766 104.672 340.539 L104.672 340.555 C104.672 341.076 104.792 341.53 105.031 341.918 105.271 342.306 105.602 342.606 106.025 342.818 106.449 343.031 106.932 343.137 107.477 343.137 Z M98.641 343 L100.922 343 100.922 338.188 C100.922 337.781 101.008 337.432 101.18 337.141 101.352 336.849 101.596 336.624 101.912 336.467 102.229 336.309 102.603 336.23 103.035 336.23 103.215 336.23 103.392 336.242 103.566 336.264 103.741 336.286 103.913 336.318 104.082 336.359 L104.082 334.371 C103.97 334.337 103.839 334.311 103.689 334.291 103.54 334.271 103.387 334.262 103.23 334.262 102.673 334.262 102.207 334.391 101.832 334.648 101.457 334.906 101.201 335.27 101.063 335.738 L100.922 335.738 100.922 334.398 98.641 334.398 Z M94.375 343 L96.656 343 96.656 334.398 94.375 334.398 Z M95.52 333.078 C95.874 333.078 96.176 332.954 96.428 332.707 96.679 332.46 96.805 332.161 96.805 331.813 96.805 331.458 96.679 331.158 96.428 330.912 96.176 330.666 95.874 330.543 95.52 330.543 95.171 330.543 94.869 330.666 94.615 330.912 94.361 331.158 94.234 331.458 94.234 331.813 94.234 332.161 94.361 332.46 94.615 332.707 94.869 332.954 95.171 333.078 95.52 333.078 Z M91.641 343.031 C91.862 343.031 92.072 343.021 92.271 343.002 92.471 342.982 92.641 342.96 92.781 342.934 L92.781 341.238 C92.672 341.249 92.569 341.257 92.473 341.264 92.376 341.27 92.255 341.273 92.109 341.273 91.724 341.273 91.443 341.184 91.268 341.004 91.092 340.824 91.004 340.542 91.004 340.156 L91.004 336.117 92.781 336.117 92.781 334.398 91.004 334.398 91.004 332.344 88.699 332.344 88.699 334.398 87.375 334.398 87.375 336.117 88.699 336.117 88.699 340.684 C88.699 341.517 88.928 342.117 89.387 342.482 89.845 342.848 90.596 343.031 91.641 343.031 Z M83.805 343 L86.086 343 86.086 334.398 83.805 334.398 Z M84.949 333.078 C85.303 333.078 85.606 332.954 85.857 332.707 86.109 332.46 86.234 332.161 86.234 331.813 86.234 331.458 86.109 331.158 85.857 330.912 85.606 330.666 85.303 330.543 84.949 330.543 84.6 330.543 84.299 330.666 84.045 330.912 83.791 331.158 83.664 331.458 83.664 331.813 83.664 332.161 83.791 332.46 84.045 332.707 84.299 332.954 84.6 333.078 84.949 333.078 Z M77.141 343 L79.422 343 79.422 338.188 C79.422 337.781 79.508 337.432 79.68 337.141 79.852 336.849 80.096 336.624 80.412 336.467 80.729 336.309 81.103 336.23 81.535 336.23 81.715 336.23 81.892 336.242 82.066 336.264 82.241 336.286 82.413 336.318 82.582 336.359 L82.582 334.371 C82.47 334.337 82.339 334.311 82.189 334.291 82.04 334.271 81.887 334.262 81.73 334.262 81.173 334.262 80.707 334.391 80.332 334.648 79.957 334.906 79.701 335.27 79.563 335.738 L79.422 335.738 79.422 334.398 77.141 334.398 Z"/>
 </defs>
 <use id="ritira-qui-gli-acquisti-che-fai-on-line-1" xlink:href="#ritira-qui-gli-acquisti-che-fai-on-line" fill="#000000" fill-opacity="1" stroke="none"/>
 <use id="ritira-qui-gli-acquisti-che-fai-on-line-2" xlink:href="#ritira-qui-gli-acquisti-che-fai-on-line" fill="#ffffff" fill-opacity="1" stroke="none"/>
 <path id="QuiGreen" d="M318.116 317 L327.612 317 327.612 296.969 C327.612 295.44 327.896 294.102 328.465 292.953 329.034 291.804 329.839 290.907 330.88 290.262 331.92 289.617 333.145 289.294 334.554 289.294 336.69 289.294 338.291 289.92 339.359 291.172 340.427 292.424 340.961 294.188 340.961 296.465 L340.961 317 350.456 317 350.456 294.497 C350.456 290.411 349.41 287.21 347.318 284.896 345.226 282.582 342.267 281.425 338.44 281.425 335.806 281.425 333.6 281.999 331.823 283.148 330.045 284.297 328.706 285.874 327.807 287.88 L327.612 287.88 327.612 282.14 318.116 282.14 Z M296.865 317.715 C299.348 317.715 301.518 317.39 303.377 316.74 305.236 316.089 306.811 315.222 308.101 314.138 309.39 313.054 310.412 311.865 311.165 310.569 311.919 309.274 312.431 307.987 312.702 306.708 L312.783 306.334 304.068 306.334 304.003 306.529 C303.786 307.19 303.377 307.835 302.776 308.464 302.174 309.093 301.396 309.61 300.442 310.017 299.489 310.423 298.361 310.626 297.06 310.626 295.413 310.626 293.993 310.263 292.801 309.537 291.608 308.811 290.69 307.765 290.045 306.399 289.4 305.033 289.077 303.391 289.077 301.472 L289.077 297.782 C289.077 295.798 289.4 294.115 290.045 292.733 290.69 291.351 291.581 290.302 292.719 289.587 293.857 288.871 295.164 288.514 296.638 288.514 298.112 288.514 299.407 288.861 300.524 289.554 301.64 290.248 302.513 291.283 303.141 292.66 303.77 294.036 304.085 295.744 304.085 297.782 L304.085 301.44 308.588 295.847 284.378 295.847 284.378 301.83 313.076 301.83 313.076 298.903 C313.076 295.391 312.401 292.324 311.052 289.701 309.702 287.078 307.786 285.042 305.304 283.595 302.822 282.148 299.879 281.425 296.475 281.425 293.072 281.425 290.115 282.17 287.606 283.66 285.096 285.151 283.153 287.256 281.777 289.977 280.4 292.698 279.712 295.906 279.712 299.603 L279.712 299.635 C279.712 303.342 280.4 306.551 281.777 309.261 283.153 311.97 285.123 314.057 287.687 315.52 290.251 316.984 293.31 317.715 296.865 317.715 Z M259.745 317.715 C262.228 317.715 264.398 317.39 266.257 316.74 268.116 316.089 269.691 315.222 270.981 314.138 272.271 313.054 273.292 311.865 274.045 310.569 274.799 309.274 275.311 307.987 275.582 306.708 L275.663 306.334 266.948 306.334 266.883 306.529 C266.666 307.19 266.257 307.835 265.656 308.464 265.054 309.093 264.276 309.61 263.322 310.017 262.369 310.423 261.241 310.626 259.941 310.626 258.293 310.626 256.873 310.263 255.681 309.537 254.488 308.811 253.57 307.765 252.925 306.399 252.28 305.033 251.957 303.391 251.957 301.472 L251.957 297.782 C251.957 295.798 252.28 294.115 252.925 292.733 253.57 291.351 254.461 290.302 255.599 289.587 256.737 288.871 258.044 288.514 259.518 288.514 260.992 288.514 262.287 288.861 263.404 289.554 264.52 290.248 265.393 291.283 266.022 292.66 266.65 294.036 266.965 295.744 266.965 297.782 L266.965 301.44 271.468 295.847 247.258 295.847 247.258 301.83 275.956 301.83 275.956 298.903 C275.956 295.391 275.281 292.324 273.932 289.701 272.582 287.078 270.666 285.042 268.184 283.595 265.702 282.148 262.759 281.425 259.355 281.425 255.952 281.425 252.995 282.17 250.486 283.66 247.976 285.151 246.033 287.256 244.657 289.977 243.28 292.698 242.592 295.906 242.592 299.603 L242.592 299.635 C242.592 303.342 243.28 306.551 244.657 309.261 246.033 311.97 248.004 314.057 250.567 315.52 253.131 316.984 256.19 317.715 259.745 317.715 Z M220.626 317 L230.121 317 230.121 297.489 C230.121 295.798 230.411 294.367 230.991 293.196 231.571 292.026 232.416 291.137 233.527 290.53 234.638 289.923 235.974 289.619 237.535 289.619 238.229 289.619 238.879 289.668 239.486 289.766 240.093 289.863 240.592 289.993 240.982 290.156 L240.982 281.799 C240.625 281.69 240.21 281.601 239.738 281.53 239.267 281.46 238.766 281.425 238.234 281.425 236.207 281.425 234.508 282.021 233.137 283.213 231.766 284.406 230.826 286.075 230.316 288.221 L230.121 288.221 230.121 282.14 220.626 282.14 Z M193.993 317.813 C198.361 317.813 202.095 316.992 205.196 315.35 208.296 313.707 210.672 311.355 212.325 308.293 213.978 305.231 214.805 301.57 214.805 297.31 L214.805 291.912 194.529 291.912 194.529 299.229 205.244 299.229 205.212 299.895 C205.136 301.825 204.624 303.51 203.675 304.952 202.727 306.394 201.437 307.51 199.806 308.301 198.174 309.093 196.291 309.488 194.156 309.488 191.554 309.488 189.299 308.846 187.392 307.561 185.484 306.277 184.01 304.426 182.969 302.009 181.929 299.592 181.408 296.692 181.408 293.31 L181.408 293.278 C181.408 289.961 181.904 287.132 182.896 284.79 183.888 282.449 185.31 280.663 187.164 279.433 189.018 278.203 191.234 277.588 193.814 277.588 196.459 277.588 198.692 278.219 200.513 279.482 202.334 280.745 203.635 282.509 204.415 284.774 L204.529 285.116 214.382 285.116 214.285 284.644 C213.775 281.696 212.613 279.064 210.797 276.75 208.981 274.436 206.632 272.609 203.749 271.271 200.865 269.932 197.543 269.263 193.782 269.263 189.196 269.263 185.229 270.227 181.88 272.157 178.53 274.086 175.945 276.848 174.124 280.441 172.303 284.034 171.393 288.34 171.393 293.359 L171.393 293.392 C171.393 298.486 172.306 302.854 174.132 306.497 175.959 310.139 178.56 312.935 181.937 314.886 185.313 316.837 189.332 317.813 193.993 317.813 Z M156.044 317 L165.539 317 165.539 282.14 156.044 282.14 Z M160.791 277.669 C162.222 277.669 163.425 277.181 164.401 276.205 165.377 275.23 165.864 274.07 165.864 272.726 165.864 271.36 165.377 270.195 164.401 269.23 163.425 268.266 162.222 267.783 160.791 267.783 159.371 267.783 158.171 268.266 157.19 269.23 156.209 270.195 155.719 271.36 155.719 272.726 155.719 274.07 156.209 275.23 157.19 276.205 158.171 277.181 159.371 277.669 160.791 277.669 Z M129.2 317.715 C131.845 317.715 134.056 317.141 135.833 315.992 137.611 314.843 138.944 313.266 139.833 311.26 L140.028 311.26 140.028 317 149.524 317 149.524 282.14 140.028 282.14 140.028 302.172 C140.028 303.678 139.744 305.011 139.175 306.171 138.606 307.331 137.804 308.234 136.768 308.878 135.733 309.523 134.506 309.846 133.086 309.846 130.95 309.846 129.349 309.22 128.281 307.968 127.213 306.716 126.68 304.952 126.68 302.676 L126.68 282.14 117.184 282.14 117.184 304.643 C117.184 307.353 117.653 309.686 118.591 311.643 119.528 313.599 120.894 315.1 122.688 316.146 124.482 317.192 126.652 317.715 129.2 317.715 Z M89.056 317.813 C93.717 317.813 97.735 316.827 101.112 314.854 104.488 312.881 107.095 310.082 108.933 306.456 110.77 302.83 111.688 298.529 111.688 293.554 L111.688 293.489 C111.688 288.514 110.77 284.219 108.933 280.604 107.095 276.989 104.483 274.195 101.096 272.222 97.708 270.249 93.695 269.263 89.056 269.263 84.438 269.263 80.435 270.246 77.048 272.214 73.661 274.181 71.043 276.975 69.195 280.595 67.347 284.216 66.423 288.514 66.423 293.489 L66.423 293.554 C66.423 298.529 67.341 302.833 69.179 306.464 71.016 310.095 73.628 312.895 77.016 314.862 80.403 316.829 84.416 317.813 89.056 317.813 Z M89.056 309.488 C86.487 309.488 84.259 308.841 82.373 307.545 80.487 306.25 79.029 304.41 77.999 302.025 76.969 299.641 76.455 296.817 76.455 293.554 L76.455 293.489 C76.455 290.205 76.972 287.376 78.007 285.002 79.043 282.628 80.506 280.799 82.397 279.514 84.289 278.23 86.508 277.588 89.056 277.588 91.625 277.588 93.852 278.232 95.738 279.522 97.624 280.812 99.082 282.647 100.112 285.026 101.142 287.405 101.656 290.226 101.656 293.489 L101.656 293.554 C101.656 296.795 101.147 299.608 100.128 301.993 99.109 304.377 97.662 306.223 95.787 307.529 93.912 308.835 91.668 309.488 89.056 309.488 Z M100.778 321.406 L110.111 321.406 95.592 300.92 86.259 300.92 Z" fill="#ffffff" fill-opacity="1" stroke="none"/>
 <path id="Path" d="M93 305 L93.104 305.15 C95.862 309.079 98.969 310.919 101 317" fill="#ffffff" fill-opacity="1" stroke="#ffffff" stroke-width="8" stroke-opacity="1" stroke-linejoin="round" stroke-linecap="round"/>
 <path id="Path-1" d="M97.961 311.101 L98.152 310.946 C98.425 310.724 98.805 310.402 99 310" fill="#ffffff" fill-opacity="1" stroke="#ffffff" stroke-width="8" stroke-opacity="1" stroke-linejoin="round" stroke-linecap="round"/>
 <path id="Path-2" d="M247.899 294.763 L247.899 295.01 C247.899 296.927 247.983 298.842 247.976 300.759" fill="#ffffff" fill-opacity="1" stroke="#ffffff" stroke-width="8" stroke-opacity="1" stroke-linejoin="round" stroke-linecap="round"/>
 <path id="Path-3" d="M271.057 295.568 L270.862 295.738 C270.186 296.323 269.446 296.723 268.814 297.374" fill="#ffffff" fill-opacity="1" stroke="#ffffff" stroke-width="8" stroke-opacity="1" stroke-linejoin="round" stroke-linecap="round"/>
 <path id="Path-4" d="M285.65 294.957 L285.593 295.209 C285.263 296.698 285.545 298.367 285.449 299.896" fill="#ffffff" fill-opacity="1" stroke="#ffffff" stroke-width="8" stroke-opacity="1" stroke-linejoin="round" stroke-linecap="round"/>
 <path id="Path-5" d="M307.287 295.542 L307.127 295.75 C306.752 296.241 306.277 296.674 305.854 297.127" fill="#ffffff" fill-opacity="1" stroke="#ffffff" stroke-width="8" stroke-opacity="1" stroke-linejoin="round" stroke-linecap="round"/>
</svg>
