<?xml version="1.0" encoding="UTF-8"?>
<svg width="284px" height="297px" viewBox="0 0 284 297" version="1.1" xmlns="http://www.w3.org/2000/svg" xmlns:xlink="http://www.w3.org/1999/xlink">
    <title>undraw_void_-3-ggu</title>
    <g id="Page-1" stroke="none" stroke-width="1" fill="none" fill-rule="evenodd">
        <g id="Artboard" transform="translate(-831.000000, -3750.000000)" fill-rule="nonzero">
            <g id="Fourth-Row" transform="translate(248.000000, 3492.000000)">
                <g id="Home-User-No-Package-screen" transform="translate(530.000000, 5.000000)">
                    <g id="undraw_void_-3-ggu" transform="translate(53.000000, 253.000000)">
                        <ellipse id="Oval" fill="#3F3D56" cx="110" cy="277.5" rx="110" ry="19.5"></ellipse>
                        <circle id="Oval" fill="#3F3D56" cx="176.5" cy="107.5" r="107.5"></circle>
                        <circle id="Oval" fill="#000000" opacity="0.05" cx="176.5" cy="107.5" r="88.5"></circle>
                        <circle id="Oval" fill="#000000" opacity="0.05" cx="176.5" cy="107.5" r="72.5"></circle>
                        <circle id="Oval" fill="#000000" opacity="0.05" cx="177" cy="107" r="52"></circle>
                        <path d="M69.8348293,117 C69.8348293,117 61.1186042,140.871798 64.9924804,149.352567 C68.8663566,157.833336 75,166 75,166 C75,166 72.7402364,118.570513 69.8348293,117 Z" id="Path" fill="#D0CDE1"></path>
                        <path d="M69.8348293,117 C69.8348293,117 61.1186042,140.871798 64.9924804,149.352567 C68.8663566,157.833336 75,166 75,166 C75,166 72.7402364,118.570513 69.8348293,117 Z" id="Path" fill="#000000" opacity="0.1"></path>
                        <path d="M76.1912831,171.627133 C76.1912831,171.627133 75.5713855,177.584992 75.2614385,177.898562 C74.9514914,178.212132 75.5713855,178.839276 75.2614385,179.77999 C74.9514914,180.720705 74.6415409,181.974993 75.2614385,182.288563 C75.881336,182.602133 71.852007,210.196428 71.852007,210.196428 C71.852007,210.196428 61.9336596,223.366433 65.9629887,244.062152 L67.2027803,265.071444 C67.2027803,265.071444 76.8111807,265.698588 76.8111807,262.249298 C76.8111807,262.249298 76.1912831,258.172871 76.1912831,256.291439 C76.1912831,254.410008 77.7410253,254.410011 76.8111807,253.469297 C75.881336,252.528583 75.881336,251.901439 75.881336,251.901439 C75.881336,251.901439 77.4310747,250.647155 77.1211277,250.333581 C76.8111807,250.020007 79.9106616,227.756434 79.9106616,227.756434 C79.9106616,227.756434 83.3200931,224.307147 83.3200931,222.425716 L83.3200931,220.544287 C83.3200931,220.544287 84.8698353,216.46786 84.8698353,216.154287 C84.8698353,215.840713 93.2384404,196.712852 93.2384404,196.712852 L96.6478719,210.509998 L100.367254,230.265006 C100.367254,230.265006 102.226943,248.138582 105.946322,255.037166 C105.946322,255.037166 112.455238,277.614316 112.455238,276.987172 C112.455238,276.360028 123.30343,274.79217 122.993483,271.970028 C122.683536,269.147885 116.484567,229.637873 116.484567,229.637873 L118.034309,171 L76.1912831,171.627133 Z" id="Path" fill="#2F2E41"></path>
                        <path d="M67.8402643,263.699837 C67.8402643,263.699837 59.2353491,280.040806 64.9719604,280.65743 C70.7085718,281.274053 72.9394736,281.27407 75.4890782,278.807511 C76.8829444,277.459046 79.7056135,275.649823 81.9782331,274.286668 C84.7260029,272.66508 86.272967,269.665939 85.9601329,266.56685 C85.7920563,265.058371 85.2094443,263.815457 83.7752906,263.699837 C79.9508854,263.391518 75.4890818,260 75.4890818,260 L67.8402643,263.699837 Z" id="Path" fill="#2F2E41"></path>
                        <path d="M113.840264,275.699836 C113.840264,275.699836 105.235349,292.040802 110.97196,292.657429 C116.708572,293.274055 118.939474,293.274066 121.489078,290.807511 C122.882944,289.459042 125.705614,287.649824 127.978233,286.286668 C130.726003,284.665081 132.272967,281.66594 131.960133,278.566852 C131.792056,277.058374 131.209444,275.815459 129.775294,275.699836 C125.950885,275.391518 121.489085,272 121.489085,272 L113.840264,275.699836 Z" id="Path" fill="#2F2E41"></path>
                        <circle id="Oval" fill="#FFB8B8" cx="105" cy="77" r="13"></circle>
                        <path d="M96.3630727,81 C96.3630727,81 86.7896282,98.3442616 86.0237666,98.3442616 C85.257905,98.3442616 103.255943,104 103.255943,104 C103.255943,104 108.234127,87.4098347 109,85.9016385 L96.3630727,81 Z" id="Path" fill="#FFB8B8"></path>
                        <path d="M111.180664,99.9536605 C111.180664,99.9536605 92.4353141,89.6960901 90.5607695,90.0069243 C88.686225,90.3177585 68.6911979,107.72455 69.0036226,114.873765 C69.3160473,122.022979 71.8154235,133.834731 71.8154235,133.834731 C71.8154235,133.834731 72.7526904,166.783292 74.6272243,167.094126 C76.5017582,167.40496 74.3148032,173 74.939649,173 C75.5644948,173 118.678789,173 118.991213,172.067494 C119.303638,171.134988 111.180664,99.9536605 111.180664,99.9536605 Z" id="Path" fill="#D0CDE1"></path>
                        <path d="M122.120621,174 C122.120621,174 127.935212,192.626041 123.038714,191.983763 C118.142216,191.341485 116,175.926831 116,175.926831 L122.120621,174 Z" id="Path" fill="#FFB8B8"></path>
                        <path d="M105.978847,99.0317948 C105.978847,99.0317948 94.3162038,101.518983 96.2074459,117.063903 C98.0986879,132.608824 101.565956,148.153748 101.565956,148.153748 L113.228599,173.336522 L114.489423,178 L123,175.823709 L116.695871,139.75949 C116.695871,139.75949 114.489423,101.208085 111.652566,99.9644898 C109.863648,99.2122705 107.91841,98.8924956 105.978847,99.0317948 Z" id="Path" fill="#D0CDE1"></path>
                        <polygon id="Path" fill="#000000" opacity="0.1" points="99 147.376748 113 173 101.204779 146"></polygon>
                        <path d="M118.760286,72.883784 L118.803275,71.8857699 L120.780097,72.3799145 C120.737232,71.7314897 120.413476,71.1345338 119.894313,70.7466632 L122,70.6284177 C118.429495,65.5326203 112.939313,62.1249772 106.804287,61.1967509 C102.249632,60.5337509 97.1781555,61.4931555 94.054892,64.8879895 C92.5399685,66.5346426 91.5880768,68.6286772 90.910948,70.7649982 C89.6638245,74.6996287 89.4097246,79.3899855 92.0102107,82.588265 C94.6531855,85.8387966 99.2697054,86.4755378 103.429034,86.877823 C104.892519,87.0193793 106.426213,87.1510832 107.782395,86.5808097 C107.933338,85.0185253 107.73421,83.4421187 107.199613,81.9671799 C106.976992,81.5105926 106.870596,81.0056821 106.889955,80.4976632 C107.074843,79.2549267 108.725386,78.9418361 109.965293,79.1097395 C111.2052,79.2776429 112.696092,79.534518 113.510824,78.5809136 C114.07201,77.9240608 114.038908,76.9675262 114.113258,76.1051832 C114.315679,73.757593 118.739098,73.3759326 118.760286,72.883784 Z" id="Path" fill="#2F2E41"></path>
                        <circle id="Oval" fill="#A0B92C" cx="198.5" cy="265.5" r="15.5"></circle>
                        <circle id="Oval" fill="#A0B92C" cx="19.5" cy="259.5" r="15.5"></circle>
                        <circle id="Oval" fill="#A0B92C" cx="19" cy="239" r="11"></circle>
                        <circle id="Oval" fill="#A0B92C" cx="19" cy="222" r="8"></circle>
                    </g>
                </g>
            </g>
        </g>
    </g>
</svg>