<?xml version="1.0" encoding="UTF-8"?>
<svg width="1200px" height="1200px" viewBox="0 0 1200 1200" xmlns="http://www.w3.org/2000/svg" xmlns:xlink="http://www.w3.org/1999/xlink" version="1.1">
 <!-- Generated by Pixelmator Pro 2.3 -->
 <g id="undraw_happy_announcement_re_tsm0">
  <g id="Artboard">
   <g id="Second-Row">
    <g id="PUDO-Instructions2-screen">
     <g id="undraw_happy_announcement_re_tsm0-1">
      <path id="Path" d="M510.082 946.373 L521.902 908.001 C507.68 892.398 489.853 880.492 469.967 873.316 489.395 905.4 470.569 947.255 478.414 983.907 483.549 1007.025 498.952 1026.561 520.273 1036.997 L538.21 1059.151 C557.24 1026.008 560.757 986.22 547.835 950.27 544.154 940.34 539.233 930.911 533.188 922.207 522.53 934.698 510.082 946.373 510.082 946.373 Z" fill="#f2f2f2" fill-opacity="1" stroke="none"/>
      <path id="Path-1" d="M442.663 950.815 L435.935 911.549 C415.81 903.971 394.077 901.263 372.625 903.66 405.038 923.571 406.954 969.015 430.868 998.084 446.121 1016.337 469.123 1026.885 493.377 1026.748 L519.891 1038.502 C522.142 1000.7 507.18 963.839 478.947 937.63 471.046 930.44 462.241 924.242 452.741 919.182 448.706 934.966 442.663 950.815 442.663 950.815 Z" fill="#f2f2f2" fill-opacity="1" stroke="none"/>
      <path id="Path-2" d="M832.785 1047.352 L814.797 1047.35 806.24 976.557 832.788 976.559 Z" fill="#ffb6b6" fill-opacity="1" stroke="none"/>
      <path id="Path-3" d="M838.687 1068 L779.693 1067.998 779.693 1067.238 C779.693 1054.334 789.973 1043.873 802.655 1043.872 L802.656 1043.872 813.432 1035.553 833.538 1043.873 838.688 1043.873 Z" fill="#2f2e41" fill-opacity="1" stroke="none"/>
      <path id="Path-4" d="M1127.765 981.417 L1115.155 994.256 1056.97 954.208 1075.582 935.261 Z" fill="#ffb6b6" fill-opacity="1" stroke="none"/>
      <path id="Path-5" d="M1142.514 992.634 L1103.026 1035.553 1102.49 1035.047 C1093.383 1026.447 1092.881 1011.998 1101.369 1002.771 L1101.37 1002.77 1102.711 989.387 1122.041 980.304 1125.488 976.557 Z" fill="#2f2e41" fill-opacity="1" stroke="none"/>
      <path id="Path-6" d="M1098.267 941.615 L1079.081 982.11 961.264 903.39 944.124 879.824 887.925 802.553 865.081 839.133 849.185 877.372 C838.695 884.277 831.829 895.568 830.479 908.133 L829.752 914.903 839.796 1006.024 801.619 1017.854 779.693 895.445 786.86 868.92 794.239 831.686 831.392 714.028 930.813 714.028 987.837 836.515 992.005 861.473 1008.173 880.198 Z" fill="#2f2e41" fill-opacity="1" stroke="none"/>
      <path id="Path-7" d="M893.553 522.293 L910.279 535.117 930.45 541.358 C930.45 541.358 938.788 659.463 946.302 667.028 953.816 674.594 947.039 674.797 948.549 684.625 950.059 694.453 953.729 714.599 953.729 714.599 903.011 741.631 859.286 742.356 824.165 710.724 823.239 706.693 825.225 702.556 828.938 700.782 835.474 697.29 822.912 680.99 828.254 678.265 833.596 675.539 826.082 651.897 826.082 651.897 L831.011 602.57 827.117 594.685 836.62 546.437 853.11 540.374 859.697 524.394 Z" fill="#3f3d56" fill-opacity="1" stroke="none"/>
      <path id="Path-8" d="M903.592 734.918 C903.44 730.523 905.191 726.286 908.372 723.345 911.554 720.405 915.839 719.064 920.076 719.682 L943.582 672.731 956.678 696.642 932.349 737.562 C930.832 744.969 924.164 750.04 916.828 749.365 909.491 748.691 903.805 742.484 903.592 734.918 Z" fill="#ffb6b6" fill-opacity="1" stroke="none"/>
      <path id="Path-9" d="M943.157 722.877 L995.025 643.909 994.854 643.546 C994.658 643.129 982.913 618.211 971.532 595.387 969.779 591.872 968.035 588.407 966.343 585.088 965.613 583.656 964.894 582.254 964.186 580.882 959.405 571.625 955.229 563.974 952.736 560.339 947.222 552.122 939.013 546.004 929.471 543.002 L929.231 542.942 929.002 543.036 C919.388 547.021 913.877 557.026 915.742 567.112 920.241 590.727 930.266 612.992 945.026 632.149 L953.435 643.036 924.214 705.443 Z" fill="#3f3d56" fill-opacity="1" stroke="none"/>
      <path id="Path-10" d="M769.736 421.126 C772.533 424.33 773.764 428.604 773.097 432.8 772.431 436.996 769.936 440.681 766.283 442.865 L776.743 492.796 752.036 483.038 745.891 437.119 C742.546 430.612 744.609 422.638 750.692 418.558 756.776 414.478 764.957 415.581 769.736 421.126 Z" fill="#ffb6b6" fill-opacity="1" stroke="none"/>
      <path id="Path-11" d="M741.346 454.449 L751.508 546.858 751.868 547.032 C752.165 547.176 765.04 553.411 780.844 560.838 783.51 562.09 783.128 567.517 785.914 568.814 787.834 569.707 792.902 566.466 794.841 567.361 812.116 575.338 829.584 583.094 836.545 585.196 845.943 588.136 856.077 587.814 865.264 584.283 L865.485 584.183 865.601 583.97 C870.437 575.027 868.338 563.968 860.551 557.359 842.216 541.967 820.51 530.993 797.144 525.304 L783.849 522.083 766.822 456.255 Z" fill="#3f3d56" fill-opacity="1" stroke="none"/>
      <path id="Oval" d="M909.482 485.421 C909.482 504.156 894.295 519.344 875.56 519.344 856.825 519.344 841.638 504.156 841.638 485.421 841.638 466.687 856.825 451.499 875.56 451.499 894.295 451.499 909.482 466.687 909.482 485.421 Z" fill="#ffb6b6" fill-opacity="1" stroke="none"/>
      <path id="Path-12" d="M842.779 460.425 C845.496 452.153 859.023 446.415 880.953 445.617 902.883 444.819 908.444 471.862 908.444 471.862 923.084 484.29 892.812 517.561 891.347 516.362 L892.006 510.111 C893.096 499.757 897.73 491.679 891.837 480.888 L886.179 480.956 C878.872 482.426 871.564 483.897 864.256 485.367 L872.908 477.396 872.664 477.001 C868.984 479.007 864.979 480.279 860.855 480.754 856.205 481.04 851.121 479.103 848.894 474.822 848.299 473.645 847.936 472.356 847.825 471.03 841.555 473.651 838.688 481.74 838.688 481.74 838.688 481.74 840.061 468.698 842.779 460.425 Z" fill="#2f2e41" fill-opacity="1" stroke="none"/>
      <path id="Path-13" d="M189.884 466.248 C189.794 465.469 189.698 464.728 189.595 464.03 189.62 463.793 189.645 463.535 189.67 463.298 Z" fill="#2f2e41" fill-opacity="1" stroke="none"/>
      <path id="Path-14" d="M197.601 599.636 C192.186 609.345 181.374 614.764 170.656 617.417 158.617 620.601 145.939 620.354 134.031 616.702 132.52 616.21 131.009 615.638 129.546 615.002 130.249 613.115 130.807 611.176 131.214 609.202 131.762 606.531 132.036 603.81 132.032 601.082 130.84 603.432 129.295 605.581 127.452 607.454 126.031 608.962 124.417 610.271 122.652 611.347 117.179 607.993 112.439 603.549 108.723 598.285 108.959 597.698 109.195 597.11 109.416 596.522 110.558 593.451 111.464 590.295 112.123 587.083 113.017 582.739 113.465 578.314 113.46 573.878 111.52 577.7 109.003 581.196 106 584.238 105.1 585.211 104.143 586.129 103.136 586.987 99.984 577.323 100.8 566.786 105.402 557.733 111.635 546.102 123.722 539.189 134.488 531.673 145.269 524.157 156.05 513.987 156.963 500.782 157.577 491.868 153.484 482.938 155.121 474.166 156.525 466.626 161.968 460.502 169.241 458.28 176.514 456.059 184.408 458.109 189.715 463.599 183.609 472.339 177.533 481.38 175.062 491.773 172.544 502.355 174.606 514.766 182.869 521.773 185.702 524.189 189.18 525.905 191.368 528.924 194.28 532.928 194.295 538.268 194.768 543.194 195.712 552.775 198.812 561.992 200.481 571.478 202.165 580.949 202.259 591.23 197.601 599.636 Z" fill="#2f2e41" fill-opacity="1" stroke="none"/>
      <path id="Path-15" d="M89.447 991.784 L103.349 1003.105 151.392 951.971 130.875 935.261 Z" fill="#a0616a" fill-opacity="1" stroke="none"/>
      <path id="Path-16" d="M86.395 979.507 L110.134 995.775 102.621 1005.55 112.682 1037.291 C113.703 1040.509 112.523 1044.02 109.772 1045.957 107.02 1047.893 103.335 1047.806 100.677 1045.741 L73.661 1024.753 76.435 1011.466 67.186 1019.722 57 1011.809 Z" fill="#2f2e41" fill-opacity="1" stroke="none"/>
      <path id="Path-17" d="M160.242 492.628 C160.236 508.638 170.887 522.677 186.259 526.919 201.631 531.161 217.93 524.56 226.072 510.796 234.213 497.031 232.188 479.498 221.124 467.971 L220.954 467.801 C220.671 467.502 220.388 467.203 220.091 466.919 220.087 466.919 220.083 466.917 220.081 466.915 220.078 466.912 220.077 466.908 220.077 466.905 219.709 466.563 219.34 466.222 218.958 465.895 212.728 460.406 203.972 454.449 195.038 454.449 175.485 454.449 160.242 472.991 160.242 492.628 Z" fill="#2f2e41" fill-opacity="1" stroke="none"/>
      <path id="Path-18" d="M357.826 475.034 C358.155 478.785 356.843 482.493 354.243 485.16 351.643 487.827 348.022 489.179 344.355 488.851 L260.257 566.54 245.785 543.154 333.001 474.142 C333.968 467.734 339.467 463.079 345.801 463.306 352.134 463.534 357.301 468.572 357.826 475.034 Z" fill="#a0616a" fill-opacity="1" stroke="none"/>
      <path id="Path-19" d="M222.78 591.197 C222.78 591.197 225.956 597.135 236.803 587.966 245.487 580.626 287.09 548.76 296.053 535.702 300.263 537.39 305.068 535.978 307.73 532.269 L283.172 510.494 C275.825 511.351 275.982 516.348 276.747 519.185 L258.223 527.683 210.388 558.633 220.41 586.946 Z" fill="#a0b92c" fill-opacity="1" stroke="none"/>
      <path id="Path-20" d="M172.447 643.852 L170.632 652.373 169.091 683.804 236.936 687.48 234.829 639.138 228.253 628.485 Z" fill="#a0616a" fill-opacity="1" stroke="none"/>
      <path id="Oval-1" d="M231.036 500.17 C231.036 515.647 218.49 528.193 203.013 528.193 187.537 528.193 174.991 515.647 174.991 500.17 174.991 484.694 187.537 472.147 203.013 472.147 218.49 472.147 231.036 484.694 231.036 500.17 Z" fill="#a0616a" fill-opacity="1" stroke="none"/>
      <path id="Path-21" d="M151.571 608.036 L151.392 584.35 C151.384 566.801 163.682 551.568 181.054 547.609 L181.163 547.584 186.888 539.992 210.148 542.282 214.411 550.857 231.265 560.734 237.755 581.264 C243.444 584.996 247.304 590.885 248.415 597.524 250.618 611.374 240.765 625.232 239.593 626.821 L236.573 643.559 170.88 654.966 170.347 655.033 Z" fill="#a0b92c" fill-opacity="1" stroke="none"/>
      <path id="Path-22" d="M236.396 497.576 C232.984 499.742 229.444 501.698 225.795 503.433 222.092 505.216 218.218 506.619 214.234 507.622 213.093 505.115 211.698 502.732 210.07 500.513 210.489 503.143 210.5 505.822 210.102 508.456 203.497 509.524 196.732 508.968 190.389 506.835 L184.881 497.576 184.464 507.911 C179.901 508.745 175.353 509.531 170.789 510.35 170.517 510.382 170.244 510.446 169.988 510.494 167.154 497.688 171.173 483.582 180.109 475.045 189.165 466.483 202.335 463.921 213.929 468.465 214.65 468.754 215.387 469.075 216.091 469.412 216.091 469.416 216.093 469.42 216.096 469.423 216.099 469.426 216.103 469.428 216.107 469.428 216.524 469.636 216.876 470.134 217.34 470.086 237.325 467.855 237.966 483.389 236.396 497.576 Z" fill="#2f2e41" fill-opacity="1" stroke="none"/>
      <path id="Path-23" d="M192.689 953.476 L206.629 964.758 254.634 913.565 234.06 896.914 Z" fill="#a0616a" fill-opacity="1" stroke="none"/>
      <path id="Path-24" d="M192.492 944.11 L216.24 960.339 208.755 970.134 218.87 1001.874 C219.895 1005.091 218.724 1008.606 215.979 1010.55 213.234 1012.493 209.553 1012.413 206.893 1010.352 L179.862 989.407 182.607 976.107 173.383 984.387 163.192 976.49 Z" fill="#2f2e41" fill-opacity="1" stroke="none"/>
      <path id="Path-25" d="M143.438 895.211 L143.438 895.022 150.303 883.186 143.293 867.778 143.082 828.192 144.219 822.25 C145.747 814.257 145.302 806.012 142.923 798.231 L142.795 774.135 C142.549 768.099 151.896 762.791 149.716 757.758 129.113 710.193 170.754 673.908 171.035 673.617 L171.886 672.731 176.503 676.23 180.898 676.235 240.199 687.046 240.627 687.844 C242.959 692.221 247.46 707.307 247.728 714.134 250.683 717.557 284.348 756.53 287.341 759.238 307.563 777.544 319.142 807.842 324.244 824.274 326.816 832.519 325.144 841.504 319.777 848.27 L243.219 932.163 222.617 913.137 264.041 837.618 261.054 829.956 C255.695 828.967 250.844 826.147 247.33 821.979 L238.942 812.018 C236.62 809.268 235.144 805.903 234.693 802.331 L229.606 801.718 211.385 782.579 198.743 897.113 195.306 906.161 135.453 976.557 110.096 960.702 Z" fill="#2f2e41" fill-opacity="1" stroke="none"/>
      <path id="Path-26" d="M134.339 400.281 C131.971 403.184 131.045 406.96 131.811 410.593 132.576 414.225 134.953 417.341 138.304 419.102 L118.945 474.93 134.752 534.092 160.242 522.867 144.513 478.242 156.281 413.288 C159.004 407.481 156.838 400.609 151.241 397.29 145.643 393.972 138.382 395.257 134.339 400.281 Z" fill="#a0616a" fill-opacity="1" stroke="none"/>
      <path id="Path-27" d="M157.376 583.921 C157.376 583.921 151.428 587.059 147.291 573.606 143.98 562.836 121.442 504.361 121.035 488.746 116.547 487.831 113.259 484.046 113.046 479.547 L145.779 475.097 C151.523 479.815 148.644 483.831 146.438 485.741 L157.587 504.294 180.89 554.382 161.717 581.728 Z" fill="#a0b92c" fill-opacity="1" stroke="none"/>
      <path id="Path-28" d="M174.991 510.494 C181.93 488.757 199.734 472.685 221.423 468.579 221.466 468.564 221.607 468.505 221.791 468.417 221.904 468.344 222.045 468.27 222.187 468.197 221.763 467.947 221.352 467.727 220.928 467.506 220.924 467.506 220.921 467.505 220.918 467.502 220.915 467.499 220.914 467.495 220.914 467.491 220.546 467.139 220.179 466.786 219.797 466.448 L218.722 466.492 C218.722 466.492 180.945 460.278 174.991 510.494 Z" fill="#fd6584" fill-opacity="1" stroke="none"/>
      <path id="Oval-2" d="M644.29 811.418 C651.254 816.052 653.637 824.713 649.611 830.764 645.586 836.814 636.677 837.963 629.712 833.329 622.748 828.696 620.365 820.035 624.39 813.984 628.416 807.933 637.325 806.785 644.29 811.418 Z" fill="#f2f2f2" fill-opacity="1" stroke="none"/>
      <path id="Oval-3" d="M562.575 585.589 C569.539 590.222 571.922 598.883 567.897 604.934 563.871 610.984 554.962 612.133 547.997 607.5 541.033 602.866 538.65 594.205 542.676 588.154 546.701 582.104 555.61 580.955 562.575 585.589 Z" fill="#f2f2f2" fill-opacity="1" stroke="none"/>
      <path id="Oval-4" d="M904.291 933.248 C911.256 937.881 913.638 946.542 909.613 952.593 905.587 958.643 896.678 959.792 889.714 955.159 882.749 950.525 880.366 941.864 884.392 935.813 888.417 929.763 897.326 928.614 904.291 933.248 Z" fill="#f2f2f2" fill-opacity="1" stroke="none"/>
      <path id="Oval-5" d="M213.43 206.729 C220.395 211.363 222.777 220.024 218.752 226.075 214.726 232.125 205.817 233.274 198.853 228.64 191.888 224.007 189.505 215.346 193.531 209.295 197.556 203.244 206.466 202.096 213.43 206.729 Z" fill="#f2f2f2" fill-opacity="1" stroke="none"/>
      <path id="Oval-6" d="M535.832 135.415 C542.797 140.048 545.179 148.709 541.154 154.76 537.128 160.811 528.219 161.959 521.254 157.326 514.29 152.692 511.907 144.031 515.933 137.98 519.958 131.93 528.867 130.781 535.832 135.415 Z" fill="#f2f2f2" fill-opacity="1" stroke="none"/>
      <path id="Oval-7" d="M383.248 733.737 C390.212 738.37 392.595 747.031 388.57 753.082 384.544 759.133 375.635 760.281 368.67 755.648 361.706 751.014 359.323 742.353 363.349 736.302 367.374 730.252 376.283 729.103 383.248 733.737 Z" fill="#e6e6e6" fill-opacity="1" stroke="none"/>
      <path id="Path-29" d="M1052.25 1068 L85.313 1068 C84.337 1067.998 83.548 1067.338 83.548 1066.525 83.548 1065.712 84.337 1065.053 85.313 1065.05 L1052.25 1065.05 C1053.228 1065.05 1054.021 1065.711 1054.021 1066.525 1054.021 1067.34 1053.228 1068 1052.25 1068 Z" fill="#cccccc" fill-opacity="1" stroke="none"/>
      <path id="Path-30" d="M265.229 480.997 C248.374 480.948 234.247 468.162 232.421 451.303 L213.527 274.754 C211.594 256.502 224.71 240.121 242.846 238.136 L803.856 177.361 C821.997 175.416 838.28 188.612 840.253 206.859 L859.147 383.408 C861.08 401.66 847.963 418.042 829.827 420.027 L829.747 419.283 829.827 420.027 268.817 480.802 C267.625 480.932 266.428 480.997 265.229 480.997 Z" fill="#e6e6e6" fill-opacity="1" stroke="none"/>
      <path id="Path-31" d="M799.801 186.02 C798.749 186.02 797.698 186.077 796.652 186.19 L256.85 244.454 C249.227 245.277 242.242 249.101 237.432 255.086 232.623 261.071 230.382 268.727 231.202 276.368 L240.738 365.145 C243.851 394.13 258.323 420.688 280.97 438.977 303.618 457.266 332.585 465.787 361.5 462.666 L741.071 421.697 C769.897 418.586 796.311 404.122 814.5 381.489 832.688 358.856 841.163 329.907 838.059 301.01 L828.488 211.9 C826.908 197.202 814.548 186.052 799.801 186.02 Z" fill="#ffffff" fill-opacity="1" stroke="none"/>
      <path id="Path-32" d="M688.232 279.265 L385.859 312.82 C383.507 313.084 381.196 312.034 379.8 310.065 378.403 308.097 378.133 305.509 379.091 303.28 380.049 301.05 382.089 299.517 384.442 299.259 L686.815 265.704 C689.167 265.44 691.477 266.49 692.874 268.459 694.27 270.427 694.541 273.014 693.583 275.244 692.625 277.474 690.585 279.007 688.232 279.265 Z" fill="#a0b92c" fill-opacity="1" stroke="none"/>
      <path id="Path-33" d="M691.19 320.562 L388.801 354.117 C385.167 354.52 381.904 351.811 381.513 348.067 381.122 344.322 383.75 340.959 387.384 340.556 L689.773 307 C693.406 306.597 696.669 309.306 697.06 313.051 697.452 316.796 694.823 320.158 691.19 320.562 Z" fill="#a0b92c" fill-opacity="1" stroke="none"/>
      <path id="Path-34" d="M428.449 388.521 L392.002 392.464 C388.243 392.87 384.869 390.139 384.464 386.362 384.059 382.586 386.778 379.195 390.536 378.789 L426.984 374.846 C429.417 374.579 431.806 375.638 433.251 377.623 434.695 379.609 434.975 382.218 433.984 384.466 432.993 386.715 430.883 388.26 428.449 388.521 Z" fill="#a0b92c" fill-opacity="1" stroke="none"/>
      <path id="Oval-8" d="M266.433 271.563 C266.433 278.08 261.151 283.362 254.634 283.362 248.118 283.362 242.835 278.08 242.835 271.563 242.835 265.047 248.118 259.764 254.634 259.764 261.151 259.764 266.433 265.047 266.433 271.563 Z" fill="#3f3d56" fill-opacity="1" stroke="none"/>
      <path id="Oval-9" d="M800.341 212.568 C800.341 219.084 795.058 224.367 788.542 224.367 782.025 224.367 776.743 219.084 776.743 212.568 776.743 206.052 782.025 200.769 788.542 200.769 795.058 200.769 800.341 206.052 800.341 212.568 Z" fill="#3f3d56" fill-opacity="1" stroke="none"/>
      <path id="Path-35" d="M624.005 466.808 C621.772 464.861 620.54 462.021 620.651 459.073 621.254 441.776 618.383 424.532 612.206 408.346 611.146 405.59 611.392 402.507 612.875 399.951 614.297 397.496 616.74 395.791 619.549 395.292 633.496 386.939 647.795 384.594 662.056 388.323 666.806 387.63 671.36 390.463 672.801 395.009 678.574 413.611 681.786 432.903 682.348 452.359 682.459 457.185 678.977 461.357 674.179 462.147 L631.979 469.066 C629.114 469.542 626.186 468.713 624.005 466.808 Z" fill="#a0b92c" fill-opacity="1" stroke="none"/>
      <path id="Path-36" d="M629 416.077 L665.653 411.068 C666.473 410.958 667.159 410.494 667.452 409.851 667.745 409.208 667.601 408.484 667.073 407.953 666.545 407.423 665.715 407.165 664.896 407.279 L628.243 412.287 C626.98 412.462 626.127 413.45 626.336 414.494 626.545 415.539 627.736 416.247 629 416.077 Z" fill="#ffffff" fill-opacity="1" stroke="none"/>
      <path id="Path-37" d="M631.96 436.724 L668.608 431.716 C669.873 431.543 670.729 430.555 670.52 429.508 670.311 428.462 669.116 427.754 667.851 427.927 L631.203 432.935 C630.383 433.045 629.697 433.51 629.404 434.152 629.111 434.795 629.255 435.519 629.783 436.049 630.31 436.58 631.141 436.837 631.96 436.724 Z" fill="#ffffff" fill-opacity="1" stroke="none"/>
      <path id="Path-38" d="M634.905 451.473 L671.558 446.465 C672.376 446.353 673.06 445.889 673.352 445.246 673.644 444.604 673.5 443.882 672.974 443.352 672.447 442.821 671.619 442.564 670.801 442.675 L634.148 447.684 C632.883 447.857 632.027 448.845 632.236 449.891 632.445 450.938 633.64 451.646 634.905 451.473 Z" fill="#ffffff" fill-opacity="1" stroke="none"/>
     </g>
    </g>
   </g>
  </g>
 </g>
</svg>
