<?xml version="1.0" encoding="UTF-8"?>
<svg width="256px" height="256px" viewBox="0 0 256 256" xmlns="http://www.w3.org/2000/svg" xmlns:xlink="http://www.w3.org/1999/xlink" version="1.1">
 <!-- Generated by Pixelmator Pro 2.3 -->
 <defs>
  <path id="􀇻" d="M86.005 183.204 L99.779 183.204 C101.049 183.204 102.107 183.648 102.953 184.537 L112.729 194.249 C116.749 198.269 120.663 200.269 124.472 200.248 128.28 200.226 132.173 198.227 136.151 194.249 L145.927 184.537 C146.815 183.648 147.895 183.204 149.164 183.204 L162.875 183.204 C168.546 183.204 172.735 181.861 175.443 179.173 178.152 176.486 179.506 172.286 179.506 166.573 L179.506 152.862 C179.506 151.593 179.95 150.514 180.839 149.625 L190.551 139.85 C194.571 135.872 196.57 131.979 196.549 128.17 196.528 124.361 194.529 120.447 190.551 116.427 L180.839 106.651 C179.95 105.763 179.506 104.705 179.506 103.478 L179.506 89.703 C179.506 84.075 178.162 79.896 175.475 77.167 172.788 74.437 168.588 73.072 162.875 73.072 L149.164 73.072 C147.895 73.072 146.815 72.649 145.927 71.803 L136.151 62.091 C132.173 58.028 128.28 56.008 124.472 56.029 120.663 56.05 116.749 58.071 112.729 62.091 L102.953 71.803 C102.107 72.649 101.049 73.072 99.779 73.072 L86.005 73.072 C80.334 73.072 76.145 74.416 73.437 77.103 70.728 79.79 69.374 83.99 69.374 89.703 L69.374 103.478 C69.374 104.705 68.951 105.763 68.104 106.651 L58.393 116.427 C54.372 120.447 52.362 124.361 52.362 128.17 52.362 131.979 54.372 135.872 58.393 139.85 L68.104 149.625 C68.951 150.514 69.374 151.593 69.374 152.862 L69.374 166.573 C69.374 172.244 70.728 176.433 73.437 179.142 76.145 181.85 80.334 183.204 86.005 183.204 Z M117.362 159.146 C116.262 159.146 115.268 158.914 114.379 158.448 113.49 157.983 112.623 157.2 111.776 156.1 L95.844 136.549 C95.378 135.914 95.008 135.248 94.733 134.549 94.458 133.851 94.32 133.142 94.32 132.423 94.32 130.984 94.807 129.746 95.78 128.709 96.754 127.673 97.96 127.154 99.398 127.154 100.329 127.154 101.165 127.345 101.906 127.726 102.646 128.106 103.419 128.826 104.223 129.884 L117.108 146.515 144.213 102.97 C145.398 101.023 146.921 100.05 148.783 100.05 150.137 100.05 151.365 100.484 152.465 101.351 153.565 102.219 154.115 103.393 154.115 104.874 154.115 105.593 153.946 106.313 153.607 107.032 153.269 107.752 152.909 108.429 152.528 109.063 L122.694 156.1 C122.017 157.115 121.234 157.877 120.346 158.385 119.457 158.893 118.463 159.146 117.362 159.146 Z"/>
 </defs>
 <use id="􀇻-1" xlink:href="#􀇻" fill="#000000" fill-opacity="1" stroke="none"/>
 <use id="􀇻-2" xlink:href="#􀇻" fill="#000000" fill-opacity="1" stroke="none"/>
</svg>
