<?xml version="1.0" encoding="UTF-8"?>
<svg width="150px" height="150px" viewBox="0 0 150 150" xmlns="http://www.w3.org/2000/svg" xmlns:xlink="http://www.w3.org/1999/xlink" version="1.1">
 <!-- Generated by Pixelmator Pro 2.3 -->
 <path id="􀋑" d="M36.253 67.678 C35.175 68.165 34.374 68.806 33.848 69.601 33.323 70.396 33.034 71.23 32.983 72.102 32.932 72.974 33.105 73.801 33.502 74.583 33.9 75.365 34.502 76.006 35.31 76.506 36.118 77.006 37.099 77.269 38.253 77.295 L66.296 77.41 C66.526 77.41 66.68 77.449 66.757 77.526 66.834 77.603 66.873 77.757 66.873 77.987 L66.949 105.799 C66.949 107.005 67.206 108.011 67.719 108.819 68.232 109.627 68.886 110.21 69.681 110.569 70.476 110.928 71.328 111.063 72.239 110.973 73.149 110.883 74.008 110.537 74.816 109.934 75.624 109.332 76.284 108.479 76.797 107.376 L105.224 46.252 C105.866 44.841 106.109 43.559 105.955 42.405 105.801 41.251 105.34 40.315 104.571 39.597 103.801 38.879 102.82 38.462 101.628 38.347 100.435 38.231 99.134 38.507 97.723 39.174 Z M42.946 71.294 C42.869 71.294 42.824 71.268 42.811 71.217 42.798 71.166 42.843 71.115 42.946 71.063 L98.223 45.752 C98.352 45.7 98.441 45.694 98.493 45.732 98.544 45.771 98.544 45.867 98.493 46.021 L73.027 101.26 C73.002 101.337 72.963 101.369 72.912 101.356 72.861 101.343 72.835 101.299 72.835 101.222 L73.027 74.025 C73.027 73.179 72.758 72.487 72.219 71.948 71.681 71.409 70.976 71.14 70.104 71.14 Z" fill="#000000" fill-opacity="1" stroke="none"/>
</svg>
