<?xml version="1.0" encoding="UTF-8"?>
<svg width="256px" height="256px" viewBox="0 0 256 256" xmlns="http://www.w3.org/2000/svg" xmlns:xlink="http://www.w3.org/1999/xlink" version="1.1">
 <!-- Generated by Pixelmator Pro 2.3 -->
 <path id="􀓣" d="M127.946 217.613 C140.214 217.613 151.688 215.309 162.369 210.701 173.049 206.093 182.479 199.715 190.657 191.567 198.836 183.419 205.229 173.989 209.837 163.278 214.445 152.567 216.749 141.108 216.749 128.901 216.749 116.695 214.445 105.236 209.837 94.525 205.229 83.813 198.836 74.384 190.657 66.236 182.479 58.088 173.049 51.71 162.369 47.102 151.688 42.494 140.214 40.19 127.946 40.19 115.74 40.19 104.281 42.494 93.569 47.102 82.858 51.71 73.444 58.088 65.326 66.236 57.209 74.384 50.831 83.813 46.193 94.525 41.554 105.236 39.235 116.695 39.235 128.901 39.235 141.108 41.539 152.567 46.147 163.278 50.755 173.989 57.133 183.419 65.281 191.567 73.429 199.715 82.858 206.093 93.569 210.701 104.281 215.309 115.74 217.613 127.946 217.613 Z M127.946 213.035 C116.35 213.035 105.471 210.853 95.309 206.489 85.147 202.126 76.206 196.099 68.485 188.408 60.764 180.718 54.722 171.777 50.358 161.585 45.994 151.392 43.812 140.498 43.812 128.901 43.812 117.305 45.994 106.411 50.358 96.218 54.722 86.026 60.764 77.069 68.485 69.349 76.206 61.628 85.147 55.586 95.309 51.222 105.471 46.858 116.35 44.676 127.946 44.676 139.603 44.676 150.513 46.858 160.675 51.222 170.837 55.586 179.778 61.628 187.499 69.349 195.22 77.069 201.262 86.026 205.626 96.218 209.99 106.411 212.172 117.305 212.172 128.901 212.172 140.498 209.99 151.392 205.626 161.585 201.262 171.777 195.22 180.718 187.499 188.408 179.778 196.099 170.837 202.126 160.675 206.489 150.513 210.853 139.603 213.035 127.946 213.035 Z M84.002 176.232 L171.89 176.232 C172.866 176.232 173.522 175.973 173.858 175.454 174.194 174.935 174.362 174.188 174.362 173.211 174.362 170.648 173.431 167.245 171.569 163.004 169.708 158.762 166.87 154.489 163.055 150.187 159.241 145.884 154.419 142.268 148.591 139.338 142.762 136.408 135.88 134.944 127.946 134.944 120.012 134.944 113.13 136.408 107.302 139.338 101.473 142.268 96.636 145.884 92.791 150.187 88.946 154.489 86.093 158.762 84.231 163.004 82.37 167.245 81.439 170.648 81.439 173.211 81.439 174.188 81.607 174.935 81.943 175.454 82.278 175.973 82.965 176.232 84.002 176.232 Z M127.946 127.528 C132.218 127.528 136.109 126.43 139.619 124.232 143.128 122.035 145.92 119.045 147.995 115.261 150.071 111.477 151.108 107.174 151.108 102.352 151.108 97.836 150.071 93.701 147.995 89.947 145.92 86.194 143.128 83.203 139.619 80.975 136.109 78.748 132.218 77.634 127.946 77.634 123.674 77.634 119.783 78.748 116.274 80.975 112.764 83.203 109.972 86.194 107.897 89.947 105.822 93.701 104.784 97.836 104.784 102.352 104.784 107.174 105.822 111.477 107.897 115.261 109.972 119.045 112.764 122.035 116.274 124.232 119.783 126.43 123.674 127.528 127.946 127.528 Z" fill="#000000" fill-opacity="1" stroke="none"/>
</svg>
