<?xml version="1.0" encoding="UTF-8"?>
<svg width="256px" height="256px" viewBox="0 0 256 256" xmlns="http://www.w3.org/2000/svg" xmlns:xlink="http://www.w3.org/1999/xlink" version="1.1">
 <!-- Generated by Pixelmator Pro 2.3 -->
 <path id="􀊫" d="M28.872 111.466 C28.873 121.927 30.839 131.738 34.771 140.899 38.703 150.061 44.156 158.128 51.131 165.102 58.106 172.075 66.174 177.527 75.336 181.457 84.498 185.387 94.309 187.352 104.771 187.351 113.013 187.35 120.875 186.081 128.356 183.544 135.837 181.008 142.684 177.52 148.897 173.081 L195.692 219.962 C196.833 221.04 198.085 221.848 199.449 222.387 200.812 222.926 202.254 223.195 203.776 223.195 205.932 223.195 207.834 222.703 209.482 221.721 211.13 220.738 212.414 219.39 213.333 217.678 214.252 215.966 214.712 214.064 214.712 211.972 214.711 210.45 214.442 209.024 213.903 207.693 213.364 206.361 212.587 205.188 211.573 204.174 L165.063 157.388 C169.944 151.047 173.764 143.978 176.521 136.179 179.278 128.38 180.656 120.138 180.656 111.452 180.655 100.991 178.688 91.179 174.757 82.018 170.825 72.857 165.372 64.79 158.397 57.816 151.422 50.842 143.354 45.391 134.192 41.461 125.03 37.531 115.218 35.566 104.757 35.567 94.296 35.568 84.484 37.534 75.323 41.466 66.162 45.398 58.095 50.851 51.121 57.826 44.148 64.801 38.696 72.869 34.766 82.031 30.836 91.193 28.871 101.004 28.872 111.466 Z M45.135 111.464 C45.134 103.222 46.671 95.503 49.745 88.306 52.819 81.11 57.098 74.769 62.582 69.285 68.066 63.8 74.405 59.52 81.601 56.444 88.797 53.368 96.516 51.83 104.758 51.83 113.001 51.829 120.72 53.366 127.916 56.44 135.113 59.514 141.437 63.793 146.89 69.277 152.344 74.761 156.624 81.1 159.731 88.296 162.838 95.492 164.392 103.211 164.393 111.453 164.394 119.696 162.841 127.415 159.735 134.611 156.629 141.808 152.35 148.132 146.898 153.585 141.446 159.038 135.122 163.319 127.926 166.426 120.731 169.533 113.012 171.087 104.769 171.088 96.527 171.089 88.808 169.536 81.611 166.43 74.415 163.324 68.075 159.045 62.59 153.593 57.105 148.141 52.825 141.817 49.749 134.621 46.674 127.425 45.135 119.707 45.135 111.464 Z" fill="#000000" fill-opacity="1" stroke="none"/>
</svg>
