<?xml version="1.0" encoding="UTF-8"?>
<svg width="256px" height="256px" viewBox="0 0 256 256" xmlns="http://www.w3.org/2000/svg" xmlns:xlink="http://www.w3.org/1999/xlink" version="1.1">
 <!-- Generated by Pixelmator Pro 2.3 -->
 <path id="ô€š" d="M50.917 178.417 L116.5 215.583 C118.833 216.917 121.125 217.583 123.375 217.583 125.625 217.583 127.944 216.917 130.333 215.583 L195.833 178.417 C199.667 176.194 202.569 173.681 204.542 170.875 206.514 168.069 207.5 163.694 207.5 157.75 L207.5 91.75 C207.5 87.417 206.681 83.833 205.042 81 203.403 78.167 200.833 75.722 197.333 73.667 L138.333 40.167 C133.333 37.278 128.361 35.833 123.417 35.833 118.472 35.833 113.472 37.278 108.417 40.167 L49.5 73.667 C45.944 75.722 43.347 78.167 41.708 81 40.069 83.833 39.25 87.417 39.25 91.75 L39.25 157.75 C39.25 163.694 40.25 168.069 42.25 170.875 44.25 173.681 47.139 176.194 50.917 178.417 Z M58.417 167.417 C55.972 166.028 54.278 164.569 53.333 163.042 52.389 161.514 51.917 159.611 51.917 157.333 L51.917 94.417 116.833 131.5 116.833 200.667 Z M188.417 167.417 L129.917 200.667 129.917 131.5 194.833 94.417 194.833 157.333 C194.833 159.611 194.361 161.514 193.417 163.042 192.472 164.569 190.806 166.028 188.417 167.417 Z M123.417 119.833 L59.083 83.417 84.833 68.667 149.167 105.25 Z M162.583 97.667 L98 61.167 114 52.083 C120.333 48.472 126.611 48.472 132.833 52.083 L187.75 83.417 Z" fill="#000000" fill-opacity="1" stroke="none"/>
</svg>
