<?xml version="1.0" encoding="UTF-8"?>
<svg width="1200px" height="1200px" viewBox="0 0 1200 1200" xmlns="http://www.w3.org/2000/svg" xmlns:xlink="http://www.w3.org/1999/xlink" version="1.1">
 <!-- Generated by Pixelmator Pro 2.3 -->
 <g id="undraw_mobile_login_re_9ntv">
  <path id="b10fb2cf-c586-4c5f-9fbf-e678f5ffa3db-41" d="M1062.162 963.971 C1040.456 986.969 1015.585 1006.826 988.282 1022.958 987.655 1023.339 987.019 1023.697 986.38 1024.066 L942.178 985.35 C942.642 984.923 943.156 984.444 943.71 983.917 976.645 952.968 1140.148 736.576 1151.044 683.881 1150.292 688.271 1160.875 860.43 1062.162 963.971 Z" fill="#f0f0f0" fill-opacity="1" stroke="none"/>
  <path id="a32c10c7-75df-4179-a648-6a8d2a687209-42" d="M995.565 1032.469 C994.734 1032.666 993.889 1032.851 993.042 1033.019 L960.082 1004.03 C960.726 1003.807 961.479 1003.541 962.34 1003.247 976.481 998.271 1018.6 983.249 1060.516 966.14 1105.554 947.747 1150.376 926.966 1160.016 913.655 1157.948 916.748 1094.25 1010.54 995.565 1032.469 Z" fill="#f0f0f0" fill-opacity="1" stroke="none"/>
  <path id="Path" d="M1061.541 388.35 L1056.839 388.35 1056.839 259.888 C1056.839 240.17 1048.984 221.258 1035.002 207.315 1021.021 193.372 1002.057 185.538 982.284 185.538 L709.372 185.538 C689.599 185.538 670.635 193.372 656.654 207.315 642.672 221.258 634.817 240.169 634.817 259.888 L634.817 964.637 C634.817 984.356 642.672 1003.267 656.654 1017.21 670.635 1031.153 689.599 1038.987 709.372 1038.987 L982.284 1038.987 C1002.057 1038.987 1021.02 1031.154 1035.002 1017.21 1048.984 1003.267 1056.839 984.356 1056.839 964.637 L1056.839 479.791 1061.541 479.791 Z" fill="#3f3d56" fill-opacity="1" stroke="none"/>
  <path id="Path-1" d="M1040.652 261.933 L1040.652 965.576 C1040.652 980.301 1034.795 994.422 1024.368 1004.832 1013.942 1015.242 999.801 1021.082 985.058 1021.082 L711.28 1021.082 C696.541 1021.082 682.404 1015.236 671.982 1004.826 661.559 994.417 655.706 980.298 655.706 965.576 L655.706 261.933 C655.706 247.212 661.559 233.093 671.982 222.683 682.404 212.273 696.541 206.427 711.28 206.427 L744.505 206.427 C741.193 214.56 742.148 223.806 747.053 231.092 751.958 238.378 760.17 242.751 768.961 242.756 L925.05 242.756 C933.846 242.765 942.069 238.396 946.977 231.105 951.885 223.814 952.834 214.56 949.507 206.427 L985.058 206.427 C999.801 206.427 1013.942 212.267 1024.368 222.677 1034.795 233.087 1040.652 247.208 1040.652 261.933 Z" fill="#ffffff" fill-opacity="1" stroke="none"/>
  <path id="Path-2" d="M953.188 627.183 L713.329 627.183 C704.581 627.173 697.493 620.225 697.483 611.652 L697.483 603.921 C697.493 595.347 704.581 588.4 713.329 588.39 L953.188 588.39 C961.936 588.4 969.025 595.347 969.034 603.921 L969.034 611.652 C969.025 620.225 961.936 627.173 953.188 627.183 Z" fill="#f0f0f0" fill-opacity="1" stroke="none"/>
  <path id="Path-3" d="M953.188 695.817 L713.329 695.817 C704.581 695.807 697.493 688.859 697.483 680.286 L697.483 672.555 C697.493 663.981 704.581 657.034 713.329 657.024 L953.188 657.024 C961.936 657.034 969.025 663.981 969.034 672.555 L969.034 680.286 C969.025 688.859 961.936 695.807 953.188 695.817 Z" fill="#f0f0f0" fill-opacity="1" stroke="none"/>
  <path id="Shape" d="M967.231 612.263 L726.143 612.263 C716.911 612.252 709.43 604.698 709.419 595.376 L709.419 587.372 C709.43 578.05 716.911 570.496 726.143 570.485 L967.231 570.485 C976.463 570.496 983.944 578.05 983.955 587.372 L983.955 595.376 C983.944 604.698 976.463 612.252 967.231 612.263 Z M726.143 573.702 C718.669 573.71 712.613 579.826 712.605 587.372 L712.605 595.376 C712.613 602.923 718.669 609.038 726.143 609.046 L967.231 609.046 C974.705 609.038 980.761 602.923 980.769 595.376 L980.769 587.372 C980.761 579.826 974.705 573.71 967.231 573.702 Z" fill="#3f3d56" fill-opacity="1" stroke="none"/>
  <path id="Shape-1" d="M967.231 680.897 L726.143 680.897 C716.911 680.886 709.43 673.332 709.419 664.01 L709.419 656.005 C709.43 646.684 716.911 639.13 726.143 639.119 L967.231 639.119 C976.463 639.13 983.944 646.684 983.955 656.005 L983.955 664.01 C983.944 673.332 976.463 680.886 967.231 680.897 Z M726.143 642.336 C718.669 642.344 712.613 648.459 712.605 656.005 L712.605 664.01 C712.613 671.556 718.669 677.672 726.143 677.68 L967.231 677.68 C974.705 677.672 980.761 671.556 980.769 664.01 L980.769 656.005 C980.761 648.459 974.705 642.344 967.231 642.336 Z" fill="#3f3d56" fill-opacity="1" stroke="none"/>
  <path id="Path-4" d="M1040.652 264.372 L1040.652 415.922 C991.444 428.762 939.015 418.242 898.709 387.442 858.403 356.641 834.779 309.043 834.751 258.579 834.751 254.134 834.931 249.736 835.291 245.384 L925.378 245.384 C934.149 245.392 942.348 241.066 947.242 233.847 952.137 226.627 953.083 217.464 949.766 209.411 L985.216 209.411 C999.917 209.406 1014.017 215.194 1024.414 225.502 1034.811 235.81 1040.652 249.792 1040.652 264.372 Z" fill="#f0f0f0" fill-opacity="1" stroke="none"/>
  <path id="Path-5" d="M792.974 1011.56 C792.974 1014.774 792.851 1017.948 792.587 1021.082 L709.067 1021.082 C694.123 1021.082 679.791 1015.258 669.224 1004.887 658.657 994.516 652.721 980.45 652.721 965.784 L652.721 890.802 C688.138 886.281 723.824 896.939 750.671 920.054 777.519 943.17 792.93 976.508 792.974 1011.56 Z" fill="#a0b92c" fill-opacity="1" stroke="none"/>
  <path id="Rectangle" d="M513.041 571.94 L566.351 612.713 525.578 666.023 472.268 625.25 Z" fill="#f0f0f0" fill-opacity="1" stroke="none"/>
  <path id="Path-6" d="M265.241 249.876 C282.248 249.862 298.256 258.013 308.398 271.849 L339.393 230.774 246.395 158.682 175.268 252.942 215.35 284.013 C223.555 263.386 243.298 249.878 265.241 249.876 Z" fill="#f0f0f0" fill-opacity="1" stroke="none"/>
  <path id="Path-7" d="M1161.411 1041.971 L39.589 1041.971 C38.711 1041.971 38 1041.303 38 1040.479 38 1039.655 38.711 1038.987 39.589 1038.987 L1161.411 1038.987 C1162.289 1038.987 1163 1039.655 1163 1040.479 1163 1041.303 1162.289 1041.971 1161.411 1041.971 Z" fill="#3f3d56" fill-opacity="1" stroke="none"/>
  <path id="Path-8" d="M887.467 776.387 L773.082 776.387 C764.295 776.378 757.174 769.43 757.164 760.856 L757.164 753.125 C757.174 744.552 764.295 737.604 773.082 737.594 L887.467 737.594 C896.254 737.604 903.375 744.552 903.385 753.125 L903.385 760.856 C903.375 769.43 896.254 776.378 887.467 776.387 Z" fill="#a0b92c" fill-opacity="1" stroke="none"/>
  <path id="Shape-2" d="M901.434 764.451 L785.971 764.451 C776.658 764.44 769.111 756.886 769.101 747.565 L769.101 739.56 C769.111 730.238 776.658 722.684 785.971 722.674 L901.434 722.674 C910.747 722.684 918.294 730.238 918.305 739.56 L918.305 747.565 C918.294 756.886 910.747 764.44 901.434 764.451 Z M785.971 725.89 C778.432 725.899 772.323 732.014 772.314 739.56 L772.314 747.565 C772.323 755.111 778.432 761.226 785.971 761.234 L901.434 761.234 C908.974 761.226 915.083 755.111 915.092 747.565 L915.092 739.56 C915.083 732.014 908.974 725.899 901.434 725.89 Z" fill="#3f3d56" fill-opacity="1" stroke="none"/>
 </g>
 <g id="undraw_key_points_re_u903">
  <path id="Path-9" d="M203.318 381.681 C203.336 381.743 203.355 381.798 203.373 381.86 203.414 381.979 203.448 382.1 203.474 382.224 203.696 383.015 203.817 383.831 203.835 384.653 203.845 385.004 203.836 385.355 203.808 385.704 203.774 386.153 203.71 386.599 203.616 387.039 203.516 387.528 203.379 388.01 203.204 388.477 203.125 388.7 203.035 388.918 202.934 389.132 201.617 392.083 198.993 394.245 195.845 394.974 L195.837 394.973 C195.685 395.012 195.531 395.044 195.375 395.067 194.51 395.224 193.628 395.269 192.751 395.201 L192.736 395.2 C190.597 395.037 188.563 394.207 186.922 392.826 185.917 391.992 185.807 391.111 184.552 391.501 180.549 392.748 177.875 386.151 179.875 382.538 179.873 382.402 179.878 382.265 179.891 382.13 180.083 379.606 183.883 378.962 186.099 377.623 L186.11 377.667 C186.322 378.47 187.02 379.049 187.848 379.108 188.676 379.168 189.45 378.694 189.775 377.93 Q190.382 376.466 190.878 374.962 C195.125 371.903 206.473 376.683 203.318 381.681 Z" fill="#2f2e41" fill-opacity="1" stroke="none"/>
  <path id="Path-10" d="M229.95 404.586 C230.528 405.934 248.358 405.789 249.175 406.989 255.471 416.253 232.774 455.669 239.071 464.945 L239.948 465.991 C237.893 465.044 235.92 463.931 234.048 462.662 233.88 458.865 233.712 455.057 233.531 451.26 231.645 453.672 230.123 456.348 229.013 459.202 227.548 458.169 226.345 456.253 220.062 452.485 217.518 449.691 214.586 447.277 211.355 445.318 Z" fill="#2f2e41" fill-opacity="1" stroke="none"/>
  <path id="Path-11" d="M217.002 480.51 C220.994 477.909 225.996 477.395 230.434 479.127 234.872 480.86 238.201 484.628 239.375 489.245 L266.47 559.844 313.044 533.403 C313.463 527.168 317.851 521.913 323.911 520.388 329.972 518.863 336.324 521.415 339.645 526.709 342.966 532.003 342.498 538.833 338.488 543.625 334.477 548.418 327.836 550.081 322.04 547.745 312.232 558.213 269.71 601.131 252.107 584.362 237.31 570.266 215.957 515.638 210.817 496.773 209.127 490.584 211.627 484.012 217.002 480.51 Z" fill="#a0616a" fill-opacity="1" stroke="none"/>
  <path id="Path-12" d="M203.306 1013.181 L217.096 1013.18 223.658 959.987 203.304 959.987 Z" fill="#a0616a" fill-opacity="1" stroke="none"/>
  <path id="Path-13" d="M244.931 1033.529 C244.917 1036.744 242.317 1039.349 239.102 1039.37 L213.141 1039.369 212.337 1037.702 208.665 1030.125 207.242 1037.702 206.928 1039.369 197.135 1039.369 197.275 1037.691 199.887 1006.379 203.302 1006.169 218.06 1005.295 221.686 1005.073 221.686 1014.423 C224.437 1017.349 246.027 1028.411 244.931 1033.529 Z" fill="#2f2e41" fill-opacity="1" stroke="none"/>
  <path id="Path-14" d="M257.159 1002.482 L270.173 1007.045 293.967 959.02 274.759 952.285 Z" fill="#a0616a" fill-opacity="1" stroke="none"/>
  <path id="Path-15" d="M289.704 1035.458 C288.627 1038.488 285.312 1040.086 282.271 1039.041 L257.773 1030.45 257.565 1028.61 256.608 1020.245 252.758 1026.924 251.91 1028.393 242.669 1025.153 243.357 1023.615 256.183 994.932 259.475 995.864 273.691 999.923 277.186 1000.914 274.092 1009.736 C275.72 1013.408 292.432 1030.992 289.704 1035.458 Z" fill="#2f2e41" fill-opacity="1" stroke="none"/>
  <path id="Path-16" d="M267.88 587.32 L259.33 625.966 196.806 631.622 191.06 597.971 Z" fill="#a0616a" fill-opacity="1" stroke="none"/>
  <path id="Path-17" d="M192.631 614.474 L262.99 613.299 264.503 633.838 318.835 797.16 328.489 837.314 300.817 986.409 253.956 986.38 C253.956 986.38 254.928 947.209 256.799 945.586 258.669 943.963 262.573 945.61 259.679 937.245 256.784 928.881 254.648 926.179 258.072 922.817 261.497 919.455 265.638 922.275 263.096 914.267 260.554 906.258 239.817 796.916 239.817 796.916 L239.817 992.951 191.603 992.951 C191.603 992.951 181.509 983.73 186.155 978.928 190.801 974.126 194.572 973.183 190.801 966.585 187.031 959.987 178.849 961.649 185.768 953.277 191.265 946.626 178.115 763.201 172.478 688.084 170.955 667.783 177.436 647.693 190.534 632.108 Z" fill="#2f2e41" fill-opacity="1" stroke="none"/>
  <path id="Path-18" d="M228.857 461.78 L197.736 460.177 183.281 483.018 C183.281 483.018 156.084 487.565 157.969 519.613 159.854 551.662 191.06 579.785 191.06 579.785 L189.726 575.211 192.043 581.831 191.745 585.548 188.585 589.485 188.26 593.556 191.06 599.997 187.252 606.164 267.311 598.407 270.239 587.743 265.968 582.016 268.353 574.546 264.767 567.362 262.897 565.803 C262.897 565.803 283.356 535.067 259.87 511.917 L250.444 495.893 239.897 483.025 Z" fill="#a0b92c" fill-opacity="1" stroke="none"/>
  <path id="Path-19" d="M191.6 418.786 C191.6 435.085 204.813 448.298 221.111 448.298 237.41 448.298 250.623 435.085 250.623 418.786 250.623 402.488 237.41 389.275 221.111 389.275 204.813 389.275 191.6 402.488 191.6 418.786 Z" fill="#a0616a" fill-opacity="1" stroke="none"/>
  <path id="Path-20" d="M198.697 461.299 C201.1 459.292 202.773 456.546 203.455 453.489 204.001 457.201 203.859 460.98 203.035 464.64 204.633 465.841 206.183 466.983 207.649 468.016 208.759 465.162 210.281 462.487 212.167 460.074 212.347 463.871 212.515 467.68 212.683 471.477 214.556 472.745 216.529 473.858 218.583 474.805 L217.706 473.76 C211.41 464.484 227.703 447.41 221.407 438.146 219.64 435.55 227.619 415.04 233.699 414.114 239.106 413.297 238.877 414.859 244.116 416.001 244.66 413.732 245.505 411.546 246.627 409.5 246.329 411.78 246.397 414.092 246.832 416.349 248.694 416.421 250.159 415.235 252.143 414.931 264.795 412.997 263.509 399.311 259.989 394.974 256.456 390.648 244.729 389.35 239.322 387.944 238.829 387.464 237.712 387.764 237.219 387.308 226.857 377.824 212.998 376.254 200.527 380.457 199.406 380.844 198.317 381.317 197.271 381.874 186.685 387.421 177.625 395.056 178.283 406.989 178.591 412.578 179.86 413.448 178.283 416.602 177.896 417.375 181.286 424.661 175.579 425.438 169.872 426.214 172.445 430.62 171.074 432.222 165.758 438.427 184.806 456.527 198.697 461.299 Z" fill="#2f2e41" fill-opacity="1" stroke="none"/>
  <path id="Path-21" d="M155.667 602.117 L156.829 511.631 C156.955 503.655 163.457 497.255 171.434 497.255 175.442 497.255 179.274 498.903 182.032 501.811 184.79 504.719 186.232 508.634 186.019 512.636 L181.931 606.592 181.853 663.787 C186.79 665.881 189.888 670.84 189.606 676.194 189.323 681.548 185.72 686.153 180.591 687.715 175.461 689.277 169.903 687.463 166.684 683.175 163.465 678.887 163.273 673.043 166.205 668.553 Z" fill="#a0616a" fill-opacity="1" stroke="none"/>
 </g>
</svg>
