<?xml version="1.0" encoding="UTF-8"?>
<svg width="367px" height="239px" viewBox="0 0 367 239" version="1.1" xmlns="http://www.w3.org/2000/svg" xmlns:xlink="http://www.w3.org/1999/xlink">
    <title>loginButton-Apple</title>
    <g id="Page-1" stroke="none" stroke-width="1" fill="none" fill-rule="evenodd">
        <g id="Artboard" transform="translate(-259.000000, -2819.000000)" fill-rule="nonzero">
            <g id="Third-Row" transform="translate(248.000000, 2512.000000)">
                <g id="undraw_notify_re_65on" transform="translate(11.000000, 307.000000)">
                    <path d="M334.607183,238 L324,205.900004 C324,205.900004 335.667194,217.600003 335.667194,227.2 L333.573085,205 C333.573085,205 339.55626,213.100001 338.957941,225.400001 C338.359622,237.700002 334.607183,238 334.607183,238 Z" id="Path" fill="#E6E6E6"></path>
                    <path d="M109.900039,209 L100,177.872729 C100,177.872729 110.889381,189.218182 110.889381,198.527276 L108.93488,177 C108.93488,177 114.519179,184.854547 113.960745,196.781818 C113.402311,208.709089 109.900039,209 109.900039,209 Z" id="Path" fill="#E6E6E6"></path>
                    <path d="M270,223.82611 C270.017564,244.280622 229.641725,237.988845 180.212244,238.03171 C130.782762,238.074575 91.0175759,244.435837 91,223.981357 C90.9824356,203.526877 131.343503,199.043178 180.772985,199 C230.202467,198.957438 269.982424,203.371597 270,223.82611 Z" id="Path" fill="#E6E6E6"></path>
                    <rect id="Rectangle" fill="#3F3D56" x="0" y="238" width="367" height="1"></rect>
                    <polygon id="Path" fill="#A0616A" points="235 196 228.224452 196 225 171 235 171"></polygon>
                    <path d="M223.020385,194 L236,194 L236,202 L216,202 L216,201.26816 C216,197.254061 219.143142,194 223.020385,194 L223.020385,194 Z" id="Path" fill="#2F2E41"></path>
                    <polygon id="Path" fill="#A0616A" points="283 233 276.224452 233 273 208 283 208"></polygon>
                    <path d="M271.020385,231 L284,231 L284,239 L264,239 L264,238.26816 C264,234.254061 267.143142,231 271.020385,231 L271.020385,231 Z" id="Path" fill="#2F2E41"></path>
                    <path d="M311.904456,158.222585 C312.807227,157.128271 313.178705,155.690459 312.91893,154.296043 C312.659155,152.901627 311.794813,151.693847 310.558486,150.997701 L295.578231,90 L286,94.1192663 L303.817915,153.098868 C302.76243,155.300765 303.521345,157.943775 305.584431,159.250968 C307.647517,160.558161 310.362669,160.116356 311.904456,158.222585 Z" id="Path" fill="#A0616A"></path>
                    <path d="M300.490666,34.6602246 C299.401155,33.5103071 297.863111,32.9066745 296.29039,33.0117515 C294.717668,33.1168284 293.271823,33.9198212 292.3419,35.2046615 L269,37.9101891 L272.550791,47 L293.778863,42.9888574 C296.070627,44.4552039 299.086495,43.9592221 300.798853,41.8343682 C302.511211,39.7095142 302.378811,36.6274202 300.490666,34.6602246 L300.490666,34.6602246 Z" id="Path" fill="#A0616A"></path>
                    <path d="M262,152.97971 L272.206172,229 L284.909143,226.404478 C284.909143,226.404478 283.041036,171.040687 289.39255,164.366428 C295.744064,157.692168 281.223214,146 281.223214,146 L262,152.97971 Z" id="Path" fill="#2F2E41"></path>
                    <path d="M266.458347,131.73503 L261.789913,138.728575 C261.789913,138.728575 225.842966,123.809342 225.842966,147.587067 C225.842966,171.364791 223.785909,187.501303 223.041905,188.615869 C222.297901,189.730435 231.649387,192.622588 236.113522,191.879524 C236.113522,191.879524 241.620814,153.546109 241.2488,151.316958 C241.2488,151.316958 276.511144,168.583253 283.207346,167.097153 C289.903548,165.611052 291.485564,160.350246 292.601581,157.378031 C293.717598,154.405816 292.134738,130.802557 292.134738,130.802557 L269.814952,124 L266.458347,131.73503 Z" id="Path" fill="#2F2E41"></path>
                    <path d="M266.840817,89 L265.498973,87.406919 C265.498973,87.406919 250.470312,53.9522356 256.374425,44.924781 C262.278538,35.8973264 288.041968,34.5697611 288.847082,35.1007835 C289.652197,35.6318059 286.924046,42.526303 288.802614,45.712479 C288.802614,45.712479 268.844812,49.9933776 267.502954,50.5244046 C266.161097,51.0554316 277.843947,70.6795656 277.843947,70.6795656 L276.502108,82.6276618 L266.840817,89 Z" id="Path" fill="#CCCCCC"></path>
                    <path d="M293.147307,72.8674772 C293.147307,72.8674772 279.294614,74.4681912 278.761799,74.4681912 C278.228983,74.4681912 277.962615,71 277.962615,71 L265.70828,87.8073833 C265.70828,87.8073833 259.670968,136.567653 261.269359,135.767298 C262.86775,134.966943 292.348119,139.563461 292.614524,137.429192 C292.88093,135.294924 292.348119,124.623564 293.147326,124.089991 C293.946533,123.556418 307,90.4752292 307,90.4752292 C307,90.4752292 305.66801,83.5388467 301.139238,81.1377873 C296.610466,78.7367278 293.147307,72.8674772 293.147307,72.8674772 Z" id="Path" fill="#CCCCCC"></path>
                    <path d="M302.843346,86 L307.099908,90.4849382 C307.099908,90.4849382 313.424308,142.021134 309.965852,143.604056 C306.507396,145.186978 299.698955,144.992426 299.698955,144.992426 L293,120.560425 L302.843346,86 Z" id="Path" fill="#CCCCCC"></path>
                    <circle id="Oval" fill="#A0616A" cx="280" cy="57" r="12"></circle>
                    <path d="M276.66262,58.8486952 C276.496379,56.2760872 273.274641,56.1879387 270.715634,56.1635804 C268.156627,56.139222 265.097181,56.2312499 263.649204,54.1055554 C262.692295,52.7007554 262.875074,50.7505169 263.665621,49.2443757 C264.456168,47.7382344 265.756516,46.5798391 267.035785,45.46544 C270.338551,42.5883454 273.742463,39.7340828 277.70771,37.8925521 C281.672958,36.0510213 286.319685,35.3069262 290.43205,36.785203 C295.483759,38.6011279 302.312751,47.9488883 302.902455,53.3194864 C303.492159,58.6900846 301.361592,64.1649961 297.770154,68.1782636 C294.178716,72.191531 285.958586,70.5722828 280.78552,72 C283.930455,67.5159615 281.857492,59.3683389 276.819362,57.2744072 L276.66262,58.8486952 Z" id="Path" fill="#2F2E41"></path>
                    <circle id="Oval" fill="#A0B92C" cx="168.5" cy="188.5" r="29.5"></circle>
                    <path d="M149.05924,157 C140.765746,157 133.248783,152.096284 129.874569,144.483546 L83.3945811,39.3041133 C79.1992194,29.8105466 80.5879011,18.7623478 87.000593,10.6150802 C93.4132849,2.46781262 103.792639,-1.43517309 113.952827,0.480135318 C124.113015,2.39544372 132.378789,9.81324335 135.416692,19.7420532 L169.073822,129.743898 C171.027869,136.128982 169.852054,143.066934 165.904913,148.442204 C161.957773,153.817473 155.707241,156.992819 149.059259,157 L149.05924,157 Z" id="Path" fill="#A0B92C"></path>
                </g>
            </g>
        </g>
    </g>
</svg>